<svg width="1038" height="309" viewBox="0 0 1038 309" fill="none" xmlns="http://www.w3.org/2000/svg">
<rect width="1038" height="309" rx="18" fill="#12141C"/>
<path d="M359.5 183.002L418 182.002L459 181.207L456.99 291.003H359L359.5 183.002Z" fill="#EAA360" fill-opacity="0.1"/>
<path d="M459.01 182.203H494.685L518 182.5L559 183.22L556.99 291.001H457L459.01 182.203Z" fill="#EAA360" fill-opacity="0.1"/>
<path d="M558.5 183.703H597H618L636.5 184.202L655.5 185.2L655 291.004H557L558.5 183.703Z" fill="#EAA360" fill-opacity="0.1"/>
<path d="M558.503 23H658V139L621.317 130.965L598 125L558 114.896L558.503 23Z" fill="#36BA6B" fill-opacity="0.1"/>
<path d="M358 23H463.5L462.823 113.003L358.5 131.5L358 23Z" fill="#36BA6B" fill-opacity="0.1"/>
<path d="M464.503 23H557.681V115L551.154 113.492L529.432 111.843L509.08 104.945L463 112.989L464.503 23Z" fill="#36BA6B" fill-opacity="0.1"/>
<rect x="658" y="23" width="62" height="117" fill="#36BA6B" fill-opacity="0.1"/>
<path d="M819 161.242H913V195H865.5H819V161.242Z" fill="#EAA360" fill-opacity="0.1"/>
<rect x="720" y="195" width="297" height="96" fill="#EAA360" fill-opacity="0.1"/>
<rect x="20" y="23" width="275" height="268" fill="#36BA6B" fill-opacity="0.1"/>
<path d="M295 23H358V132.205L295 133V23Z" fill="#36BA6B" fill-opacity="0.1"/>
<rect x="720" y="23" width="99" height="172" fill="#EAA360" fill-opacity="0.1"/>
<rect x="913" y="23" width="104" height="172" fill="#EAA360" fill-opacity="0.1"/>
<rect x="819" y="23" width="94" height="138" fill="#EAA360" fill-opacity="0.1"/>
<path d="M358 23V131.798L427.5 119.5" stroke="#36BA6B" stroke-opacity="0.2"/>
<path d="M427.5 119.5L509 104.848L529.5 111.5" stroke="#36BA6B" stroke-opacity="0.2"/>
<path d="M462.5 134.294L464 23.5" stroke="#36BA6B" stroke-opacity="0.2"/>
<path d="M550.5 112.832L598 125.498" stroke="#36BA6B" stroke-opacity="0.2"/>
<path d="M598 125.5L657 139.284L668 140.282H679" stroke="#36BA6B" stroke-opacity="0.2"/>
<path d="M558 134.294V23.5" stroke="#36BA6B" stroke-opacity="0.2"/>
<path d="M658 138.786C658 137.788 658 23.5 658 23.5" stroke="#36BA6B" stroke-opacity="0.2"/>
<path d="M679 140.283H719.499V23.5" stroke="#36BA6B" stroke-opacity="0.2"/>
<path d="M256 23.5V85.9065" stroke="#36BA6B" stroke-opacity="0.2"/>
<path d="M256.5 86.3828L159.5 86.3828" stroke="#36BA6B" stroke-opacity="0.2"/>
<path d="M160 85.8842V23.5" stroke="#36BA6B" stroke-opacity="0.2"/>
<path d="M59 77.3998H74.5V23.5" stroke="#36BA6B" stroke-opacity="0.2"/>
<path d="M59 237.1H74.5V291" stroke="#36BA6B" stroke-opacity="0.2"/>
<path d="M59.0003 77.3983L21.0002 77.3983" stroke="#36BA6B" stroke-opacity="0.2"/>
<path d="M21 237.102L59 236.991" stroke="#36BA6B" stroke-opacity="0.2"/>
<path d="M150 237.102V274.033" stroke="#36BA6B" stroke-opacity="0.2"/>
<path d="M212.5 235.605V273.036" stroke="#36BA6B" stroke-opacity="0.2"/>
<path d="M294.994 133L294.996 291.001" stroke="#36BA6B" stroke-opacity="0.2"/>
<path d="M359 291V182.498L418 182" stroke="#EAA360" stroke-opacity="0.2"/>
<path d="M418 182H495.5" stroke="#EAA360" stroke-opacity="0.2"/>
<path d="M459 182.203L457 291.001" stroke="#EAA360" stroke-opacity="0.2"/>
<path d="M495.5 182L618 183.5" stroke="#EAA360" stroke-opacity="0.2"/>
<path d="M559 183L557 291" stroke="#EAA360" stroke-opacity="0.2"/>
<path d="M618 183.5L656 184.7L655.5 291.003" stroke="#EAA360" stroke-opacity="0.2"/>
<path d="M720.5 291.001V23.5" stroke="#EAA360" stroke-opacity="0.2"/>
<path d="M721 196.18L811 196.002" stroke="#EAA360" stroke-opacity="0.2"/>
<path d="M811 196H819.5V161.242L913 161.741V195H923" stroke="#EAA360" stroke-opacity="0.2"/>
<path d="M923 195L1017 195.18" stroke="#EAA360" stroke-opacity="0.2"/>
<line x1="720" y1="291.5" x2="1017" y2="291.5" stroke="#EAA360" stroke-opacity="0.2"/>
<line x1="720" y1="23" x2="1017" y2="23" stroke="#EAA360" stroke-opacity="0.2"/>
<path d="M590.673 237L588.303 233.59L589.353 232.94L592.143 237H590.673ZM586.043 237V230H587.323V237H586.043ZM586.933 234.05V232.93H589.293V234.05H586.933ZM589.473 233.65L588.283 233.49L590.673 230H592.053L589.473 233.65ZM596.194 237V235.92L596.124 235.69V233.8C596.124 233.433 596.014 233.15 595.794 232.95C595.574 232.743 595.241 232.64 594.794 232.64C594.494 232.64 594.198 232.687 593.904 232.78C593.618 232.873 593.374 233.003 593.174 233.17L592.684 232.26C592.971 232.04 593.311 231.877 593.704 231.77C594.104 231.657 594.518 231.6 594.944 231.6C595.718 231.6 596.314 231.787 596.734 232.16C597.161 232.527 597.374 233.097 597.374 233.87V237H596.194ZM594.514 237.07C594.114 237.07 593.764 237.003 593.464 236.87C593.164 236.73 592.931 236.54 592.764 236.3C592.604 236.053 592.524 235.777 592.524 235.47C592.524 235.17 592.594 234.9 592.734 234.66C592.881 234.42 593.118 234.23 593.444 234.09C593.771 233.95 594.204 233.88 594.744 233.88H596.294V234.71H594.834C594.408 234.71 594.121 234.78 593.974 234.92C593.828 235.053 593.754 235.22 593.754 235.42C593.754 235.647 593.844 235.827 594.024 235.96C594.204 236.093 594.454 236.16 594.774 236.16C595.081 236.16 595.354 236.09 595.594 235.95C595.841 235.81 596.018 235.603 596.124 235.33L596.334 236.08C596.214 236.393 595.998 236.637 595.684 236.81C595.378 236.983 594.988 237.07 594.514 237.07ZM601.471 237.1C601.031 237.1 600.638 237.033 600.291 236.9C599.944 236.767 599.644 236.563 599.391 236.29C599.144 236.01 598.954 235.657 598.821 235.23C598.688 234.803 598.621 234.297 598.621 233.71C598.621 233.283 598.658 232.893 598.731 232.54C598.804 232.187 598.914 231.87 599.061 231.59C599.208 231.303 599.391 231.05 599.611 230.83C599.838 230.61 600.101 230.427 600.401 230.28C600.701 230.133 601.041 230.02 601.421 229.94L603.901 229.41L604.081 230.53L601.831 230.99C601.704 231.017 601.551 231.057 601.371 231.11C601.198 231.157 601.018 231.23 600.831 231.33C600.651 231.423 600.481 231.56 600.321 231.74C600.168 231.913 600.041 232.14 599.941 232.42C599.848 232.693 599.801 233.037 599.801 233.45C599.801 233.577 599.804 233.673 599.811 233.74C599.824 233.8 599.834 233.867 599.841 233.94C599.854 234.007 599.861 234.107 599.861 234.24L599.391 233.75C599.524 233.41 599.708 233.12 599.941 232.88C600.181 232.633 600.458 232.447 600.771 232.32C601.091 232.187 601.438 232.12 601.811 232.12C602.311 232.12 602.754 232.223 603.141 232.43C603.528 232.637 603.831 232.927 604.051 233.3C604.271 233.673 604.381 234.097 604.381 234.57C604.381 235.063 604.261 235.5 604.021 235.88C603.781 236.26 603.441 236.56 603.001 236.78C602.568 236.993 602.058 237.1 601.471 237.1ZM601.571 236.09C601.871 236.09 602.134 236.027 602.361 235.9C602.594 235.767 602.774 235.587 602.901 235.36C603.034 235.133 603.101 234.88 603.101 234.6C603.101 234.32 603.034 234.077 602.901 233.87C602.774 233.657 602.594 233.487 602.361 233.36C602.134 233.233 601.864 233.17 601.551 233.17C601.251 233.17 600.981 233.23 600.741 233.35C600.508 233.47 600.324 233.637 600.191 233.85C600.064 234.057 600.001 234.297 600.001 234.57C600.001 234.85 600.068 235.107 600.201 235.34C600.334 235.573 600.518 235.757 600.751 235.89C600.991 236.023 601.264 236.09 601.571 236.09ZM605.591 237V231.66H606.841V235.18L609.791 231.66H610.931V237H609.681V233.48L606.741 237H605.591ZM612.612 237V231.66H613.862V233.83H616.552V231.66H617.802V237H616.552V234.89H613.862V237H612.612ZM621.968 237.07C621.374 237.07 620.854 236.953 620.408 236.72C619.968 236.48 619.624 236.153 619.378 235.74C619.138 235.327 619.018 234.857 619.018 234.33C619.018 233.797 619.134 233.327 619.368 232.92C619.608 232.507 619.934 232.183 620.348 231.95C620.768 231.717 621.244 231.6 621.778 231.6C622.298 231.6 622.761 231.713 623.168 231.94C623.574 232.167 623.894 232.487 624.128 232.9C624.361 233.313 624.478 233.8 624.478 234.36C624.478 234.413 624.474 234.473 624.468 234.54C624.468 234.607 624.464 234.67 624.458 234.73H620.008V233.9H623.798L623.308 234.16C623.314 233.853 623.251 233.583 623.118 233.35C622.984 233.117 622.801 232.933 622.568 232.8C622.341 232.667 622.078 232.6 621.778 232.6C621.471 232.6 621.201 232.667 620.968 232.8C620.741 232.933 620.561 233.12 620.428 233.36C620.301 233.593 620.238 233.87 620.238 234.19V234.39C620.238 234.71 620.311 234.993 620.458 235.24C620.604 235.487 620.811 235.677 621.078 235.81C621.344 235.943 621.651 236.01 621.998 236.01C622.298 236.01 622.568 235.963 622.808 235.87C623.048 235.777 623.261 235.63 623.448 235.43L624.118 236.2C623.878 236.48 623.574 236.697 623.208 236.85C622.848 236.997 622.434 237.07 621.968 237.07ZM626.75 237V232.42L627.04 232.72H624.87V231.66H629.87V232.72H627.71L628 232.42V237H626.75ZM567.728 249V242H570.608C571.228 242 571.758 242.1 572.198 242.3C572.645 242.5 572.988 242.787 573.228 243.16C573.468 243.533 573.588 243.977 573.588 244.49C573.588 245.003 573.468 245.447 573.228 245.82C572.988 246.193 572.645 246.48 572.198 246.68C571.758 246.88 571.228 246.98 570.608 246.98H568.448L569.028 246.37V249H567.728ZM569.028 246.51L568.448 245.88H570.548C571.121 245.88 571.551 245.76 571.838 245.52C572.131 245.273 572.278 244.93 572.278 244.49C572.278 244.043 572.131 243.7 571.838 243.46C571.551 243.22 571.121 243.1 570.548 243.1H568.448L569.028 242.46V246.51ZM577.038 249.07C576.492 249.07 576.005 248.953 575.578 248.72C575.152 248.48 574.815 248.153 574.568 247.74C574.322 247.327 574.198 246.857 574.198 246.33C574.198 245.797 574.322 245.327 574.568 244.92C574.815 244.507 575.152 244.183 575.578 243.95C576.005 243.717 576.492 243.6 577.038 243.6C577.592 243.6 578.082 243.717 578.508 243.95C578.942 244.183 579.278 244.503 579.518 244.91C579.765 245.317 579.888 245.79 579.888 246.33C579.888 246.857 579.765 247.327 579.518 247.74C579.278 248.153 578.942 248.48 578.508 248.72C578.082 248.953 577.592 249.07 577.038 249.07ZM577.038 248C577.345 248 577.618 247.933 577.858 247.8C578.098 247.667 578.285 247.473 578.418 247.22C578.558 246.967 578.628 246.67 578.628 246.33C578.628 245.983 578.558 245.687 578.418 245.44C578.285 245.187 578.098 244.993 577.858 244.86C577.618 244.727 577.348 244.66 577.048 244.66C576.742 244.66 576.468 244.727 576.228 244.86C575.995 244.993 575.808 245.187 575.668 245.44C575.528 245.687 575.458 245.983 575.458 246.33C575.458 246.67 575.528 246.967 575.668 247.22C575.808 247.473 575.995 247.667 576.228 247.8C576.468 247.933 576.738 248 577.038 248ZM583.673 249.1C583.233 249.1 582.84 249.033 582.493 248.9C582.147 248.767 581.847 248.563 581.593 248.29C581.347 248.01 581.157 247.657 581.023 247.23C580.89 246.803 580.823 246.297 580.823 245.71C580.823 245.283 580.86 244.893 580.933 244.54C581.007 244.187 581.117 243.87 581.263 243.59C581.41 243.303 581.593 243.05 581.813 242.83C582.04 242.61 582.303 242.427 582.603 242.28C582.903 242.133 583.243 242.02 583.623 241.94L586.103 241.41L586.283 242.53L584.033 242.99C583.907 243.017 583.753 243.057 583.573 243.11C583.4 243.157 583.22 243.23 583.033 243.33C582.853 243.423 582.683 243.56 582.523 243.74C582.37 243.913 582.243 244.14 582.143 244.42C582.05 244.693 582.003 245.037 582.003 245.45C582.003 245.577 582.007 245.673 582.013 245.74C582.027 245.8 582.037 245.867 582.043 245.94C582.057 246.007 582.063 246.107 582.063 246.24L581.593 245.75C581.727 245.41 581.91 245.12 582.143 244.88C582.383 244.633 582.66 244.447 582.973 244.32C583.293 244.187 583.64 244.12 584.013 244.12C584.513 244.12 584.957 244.223 585.343 244.43C585.73 244.637 586.033 244.927 586.253 245.3C586.473 245.673 586.583 246.097 586.583 246.57C586.583 247.063 586.463 247.5 586.223 247.88C585.983 248.26 585.643 248.56 585.203 248.78C584.77 248.993 584.26 249.1 583.673 249.1ZM583.773 248.09C584.073 248.09 584.337 248.027 584.563 247.9C584.797 247.767 584.977 247.587 585.103 247.36C585.237 247.133 585.303 246.88 585.303 246.6C585.303 246.32 585.237 246.077 585.103 245.87C584.977 245.657 584.797 245.487 584.563 245.36C584.337 245.233 584.067 245.17 583.753 245.17C583.453 245.17 583.183 245.23 582.943 245.35C582.71 245.47 582.527 245.637 582.393 245.85C582.267 246.057 582.203 246.297 582.203 246.57C582.203 246.85 582.27 247.107 582.403 247.34C582.537 247.573 582.72 247.757 582.953 247.89C583.193 248.023 583.467 248.09 583.773 248.09ZM590.173 249.07C589.626 249.07 589.14 248.953 588.713 248.72C588.286 248.48 587.95 248.153 587.703 247.74C587.456 247.327 587.333 246.857 587.333 246.33C587.333 245.797 587.456 245.327 587.703 244.92C587.95 244.507 588.286 244.183 588.713 243.95C589.14 243.717 589.626 243.6 590.173 243.6C590.726 243.6 591.216 243.717 591.643 243.95C592.076 244.183 592.413 244.503 592.653 244.91C592.9 245.317 593.023 245.79 593.023 246.33C593.023 246.857 592.9 247.327 592.653 247.74C592.413 248.153 592.076 248.48 591.643 248.72C591.216 248.953 590.726 249.07 590.173 249.07ZM590.173 248C590.48 248 590.753 247.933 590.993 247.8C591.233 247.667 591.42 247.473 591.553 247.22C591.693 246.967 591.763 246.67 591.763 246.33C591.763 245.983 591.693 245.687 591.553 245.44C591.42 245.187 591.233 244.993 590.993 244.86C590.753 244.727 590.483 244.66 590.183 244.66C589.876 244.66 589.603 244.727 589.363 244.86C589.13 244.993 588.943 245.187 588.803 245.44C588.663 245.687 588.593 245.983 588.593 246.33C588.593 246.67 588.663 246.967 588.803 247.22C588.943 247.473 589.13 247.667 589.363 247.8C589.603 247.933 589.873 248 590.173 248ZM595.173 249V244.42L595.463 244.72H593.293V243.66H598.293V244.72H596.133L596.423 244.42V249H595.173ZM601.345 249.07C600.798 249.07 600.312 248.953 599.885 248.72C599.458 248.48 599.122 248.153 598.875 247.74C598.628 247.327 598.505 246.857 598.505 246.33C598.505 245.797 598.628 245.327 598.875 244.92C599.122 244.507 599.458 244.183 599.885 243.95C600.312 243.717 600.798 243.6 601.345 243.6C601.898 243.6 602.388 243.717 602.815 243.95C603.248 244.183 603.585 244.503 603.825 244.91C604.072 245.317 604.195 245.79 604.195 246.33C604.195 246.857 604.072 247.327 603.825 247.74C603.585 248.153 603.248 248.48 602.815 248.72C602.388 248.953 601.898 249.07 601.345 249.07ZM601.345 248C601.652 248 601.925 247.933 602.165 247.8C602.405 247.667 602.592 247.473 602.725 247.22C602.865 246.967 602.935 246.67 602.935 246.33C602.935 245.983 602.865 245.687 602.725 245.44C602.592 245.187 602.405 244.993 602.165 244.86C601.925 244.727 601.655 244.66 601.355 244.66C601.048 244.66 600.775 244.727 600.535 244.86C600.302 244.993 600.115 245.187 599.975 245.44C599.835 245.687 599.765 245.983 599.765 246.33C599.765 246.67 599.835 246.967 599.975 247.22C600.115 247.473 600.302 247.667 600.535 247.8C600.775 247.933 601.045 248 601.345 248ZM606.345 249V244.42L606.635 244.72H604.465V243.66H609.465V244.72H607.305L607.595 244.42V249H606.345ZM612.627 249.07C612.034 249.07 611.514 248.953 611.067 248.72C610.627 248.48 610.284 248.153 610.037 247.74C609.797 247.327 609.677 246.857 609.677 246.33C609.677 245.797 609.794 245.327 610.027 244.92C610.267 244.507 610.594 244.183 611.007 243.95C611.427 243.717 611.904 243.6 612.437 243.6C612.957 243.6 613.42 243.713 613.827 243.94C614.234 244.167 614.554 244.487 614.787 244.9C615.02 245.313 615.137 245.8 615.137 246.36C615.137 246.413 615.134 246.473 615.127 246.54C615.127 246.607 615.124 246.67 615.117 246.73H610.667V245.9H614.457L613.967 246.16C613.974 245.853 613.91 245.583 613.777 245.35C613.644 245.117 613.46 244.933 613.227 244.8C613 244.667 612.737 244.6 612.437 244.6C612.13 244.6 611.86 244.667 611.627 244.8C611.4 244.933 611.22 245.12 611.087 245.36C610.96 245.593 610.897 245.87 610.897 246.19V246.39C610.897 246.71 610.97 246.993 611.117 247.24C611.264 247.487 611.47 247.677 611.737 247.81C612.004 247.943 612.31 248.01 612.657 248.01C612.957 248.01 613.227 247.963 613.467 247.87C613.707 247.777 613.92 247.63 614.107 247.43L614.777 248.2C614.537 248.48 614.234 248.697 613.867 248.85C613.507 248.997 613.094 249.07 612.627 249.07ZM615.568 249L617.918 245.94L617.898 246.61L615.658 243.66H617.048L618.618 245.76H618.088L619.668 243.66H621.018L618.758 246.61L618.768 245.94L621.108 249H619.698L618.048 246.77L618.568 246.84L616.948 249H615.568ZM622.002 249V243.66H623.252V245.83H625.942V243.66H627.192V249H625.942V246.89H623.252V249H622.002ZM628.867 249V243.66H630.117V247.18L633.067 243.66H634.207V249H632.957V245.48L630.017 249H628.867ZM639.719 249L637.789 246.44L638.809 245.81L641.189 249H639.719ZM635.889 249V243.66H637.139V249H635.889ZM636.769 246.86V245.82H638.579V246.86H636.769ZM638.929 246.48L637.759 246.34L639.719 243.66H641.059L638.929 246.48ZM642.07 249V243.66H643.32V247.18L646.27 243.66H647.41V249H646.16V245.48L643.22 249H642.07Z" fill="white" fill-opacity="0.6"/>
<line x1="1017.5" y1="292" x2="1017.5" y2="22" stroke="#EAA360" stroke-opacity="0.2"/>
<path d="M21 23H720" stroke="#36BA6B" stroke-opacity="0.2"/>
<path d="M20.5 22.5L20.5 290.996" stroke="#36BA6B" stroke-opacity="0.2"/>
<path d="M656 291.5L358.5 291.5" stroke="#EAA360" stroke-opacity="0.2"/>
<path d="M295.5 291.5L20.0003 291.5" stroke="#36BA6B" stroke-opacity="0.2"/>
<ellipse opacity="0.4" cx="414" cy="59.5" rx="17" ry="17.5" fill="#36BA6B"/>
<circle opacity="0.4" cx="866" cy="227" r="24" fill="#EAA360"/>
<g opacity="0.5">
<path d="M424.373 60.3377C425.828 56.7434 425.103 52.4699 422.192 49.5547C418.316 45.6693 412.029 45.6693 408.152 49.5547L405.565 52.1465L415.336 61.9177C417.466 59.0487 421.412 58.3419 424.373 60.3377ZM414.306 64.0198L404.124 53.842C402.862 55.9349 403.121 58.693 404.923 60.4994L406.517 62.0979L401.758 66.2282C401.361 66.5747 401.338 67.1845 401.712 67.5587L404.179 70.0304C404.549 70.4046 405.159 70.3815 405.505 69.9842L409.631 65.2118L411.28 66.8611C412.19 67.7712 413.341 68.2702 414.528 68.3996C414.2 67.6142 414.02 66.7549 414.02 65.854C414.015 65.2164 414.135 64.6066 414.306 64.0198ZM420.668 61.4234C418.219 61.4234 416.233 63.41 416.233 65.8586C416.233 68.3072 418.219 70.2938 420.668 70.2938C423.116 70.2938 425.103 68.3072 425.103 65.8586C425.103 63.41 423.116 61.4234 420.668 61.4234Z" fill="white"/>
</g>
<circle opacity="0.4" cx="307.5" cy="59.5" r="17.5" fill="#36BA6B"/>
<path d="M298.809 51.0048C298.563 51.0874 298.351 51.2482 298.206 51.4626C298.06 51.6769 297.988 51.9331 298.002 52.192V64.064C298.002 64.3789 298.127 64.6808 298.349 64.9035C298.572 65.1261 298.874 65.2512 299.189 65.2512H305.126V67.6256H302.751C301.445 67.6256 300.376 68.6941 300.376 70H314.625C314.625 68.6941 313.557 67.6256 312.25 67.6256H309.876V65.2512H315.813C316.128 65.2512 316.43 65.1261 316.652 64.9035C316.875 64.6808 317 64.3789 317 64.064V52.192C317 51.8772 316.875 51.5752 316.652 51.3525C316.43 51.1299 316.128 51.0048 315.813 51.0048L299.189 51.0048C299.118 50.9984 299.046 50.9984 298.975 51.0048C298.928 51.002 298.88 51.002 298.833 51.0048L298.809 51.0048ZM300.376 53.3792H314.625V62.8768H300.376V53.3792Z" fill="white" fill-opacity="0.5"/>
<circle opacity="0.4" cx="865.5" cy="59.5" r="17.5" fill="#EAA360"/>
<path d="M856.809 51.0048C856.563 51.0874 856.351 51.2482 856.206 51.4626C856.06 51.6769 855.988 51.9331 856.002 52.192V64.064C856.002 64.3789 856.127 64.6808 856.349 64.9035C856.572 65.1261 856.874 65.2512 857.189 65.2512H863.126V67.6256H860.751C859.445 67.6256 858.376 68.6941 858.376 70H872.625C872.625 68.6941 871.557 67.6256 870.25 67.6256H867.876V65.2512H873.813C874.128 65.2512 874.43 65.1261 874.652 64.9035C874.875 64.6808 875 64.3789 875 64.064V52.192C875 51.8772 874.875 51.5752 874.652 51.3525C874.43 51.1299 874.128 51.0048 873.813 51.0048L857.189 51.0048C857.118 50.9984 857.046 50.9984 856.975 51.0048C856.928 51.002 856.88 51.002 856.833 51.0048L856.809 51.0048ZM858.376 53.3792H872.625V62.8768H858.376V53.3792Z" fill="white" fill-opacity="0.5"/>
<path d="M400.075 248.182C400.075 248.807 400.464 249.196 401.089 249.196C401.715 249.196 402.103 248.807 402.103 248.182V238.802H403.117V248.182C403.117 248.806 403.506 249.196 404.131 249.196C404.756 249.196 405.145 248.807 405.145 248.182V232.211H405.652V237.947C405.652 239.162 407.176 239.162 407.173 237.947V231.786C407.173 230.444 406.207 229.676 404.638 229.676H400.582C399.152 229.676 398.047 230.294 398.047 231.748V238.295C398.047 239.309 399.568 239.309 399.568 238.295V232.211H400.075V248.182Z" fill="white" fill-opacity="0.5"/>
<path d="M402.546 228.792C403.702 228.792 404.638 227.856 404.638 226.701C404.638 225.546 403.702 224.609 402.546 224.609C401.391 224.609 400.455 225.546 400.455 226.701C400.455 227.856 401.391 228.792 402.546 228.792Z" fill="white" fill-opacity="0.5"/>
<path d="M415.222 228.792C416.377 228.792 417.314 227.856 417.314 226.701C417.314 225.546 416.377 224.609 415.222 224.609C414.067 224.609 413.131 225.546 413.131 226.701C413.131 227.856 414.067 228.792 415.222 228.792Z" fill="white" fill-opacity="0.5"/>
<path d="M420.312 240.577L417.316 232.344L417.299 232.26C417.299 232.139 417.4 232.042 417.525 232.042C417.632 232.042 417.722 232.114 417.746 232.209L419.783 237.535C419.918 237.839 420.475 238.042 420.841 238.042C421.33 238.042 421.381 237.081 421.37 237.028L419.333 231.903C419.156 230.726 417.968 229.676 416.612 229.676H413.958C412.601 229.676 411.325 230.726 411.148 231.903L409.202 237.091C409.158 237.192 409.202 238.074 409.732 238.074C410.143 238.074 410.69 237.914 410.789 237.551L412.754 232.195C412.785 232.111 412.87 232.047 412.968 232.047C413.093 232.047 413.194 232.142 413.194 232.262L413.18 232.338L410.261 240.578C410.254 240.602 410.261 241.186 410.261 241.211C410.261 241.387 410.684 241.845 410.868 241.845H412.751V248.231C412.751 248.758 413.215 249.197 413.765 249.197C414.315 249.197 414.779 248.758 414.779 248.231V241.586C414.779 241.443 415.793 241.447 415.793 241.591V248.182C415.793 248.71 416.258 249.196 416.807 249.196C417.358 249.196 417.821 248.709 417.821 248.182V241.844H419.783C419.966 241.844 420.312 241.386 420.312 241.211C420.312 241.17 420.327 240.612 420.312 240.577Z" fill="white" fill-opacity="0.5"/>
<circle opacity="0.4" cx="409.5" cy="236.5" r="17.5" fill="#EAA360"/>
<path d="M855.344 237.719H876.718" stroke="white" stroke-opacity="0.5" stroke-width="2.67184" stroke-linecap="round" stroke-linejoin="round"/>
<path d="M876.718 232.375V219.016C876.718 218.307 876.437 217.627 875.936 217.126C875.435 216.625 874.755 216.344 874.047 216.344H858.016C857.307 216.344 856.627 216.625 856.126 217.126C855.625 217.627 855.344 218.307 855.344 219.016V232.375L860.687 224.359C864.25 226.14 867.812 226.14 871.375 224.359L876.718 232.375Z" stroke="white" stroke-opacity="0.5" stroke-width="2.67184" stroke-linecap="round" stroke-linejoin="round"/>
<path d="M138.959 145.86V142.306C138.959 140.488 140.447 139 142.265 139H158.795C160.613 139 162.101 140.488 162.101 142.306V145.877C160.184 146.554 158.795 148.373 158.795 150.521V153.877H142.265V150.505C142.265 148.373 140.877 146.538 138.959 145.86ZM163.754 147.265C161.936 147.265 160.448 148.753 160.448 150.571V155.53H140.612V150.571C140.612 148.753 139.141 147.265 137.306 147.265C135.471 147.265 134 148.753 134 150.571V158.836C134 160.654 135.488 162.142 137.306 162.142V165.448H140.612V162.142H160.448V165.448H163.754V162.142C165.572 162.142 167.06 160.654 167.06 158.836V150.571C167.06 148.753 165.572 147.265 163.754 147.265Z" fill="white" fill-opacity="0.5"/>
<circle opacity="0.4" cx="151" cy="152" r="24" fill="#36BA6B"/>
<path d="M62.5354 156V146.2H64.0194L68.3174 153.354H67.5194L71.7474 146.2H73.2314L73.2594 156H71.5234L71.5094 148.902H71.8734L68.2894 154.88H67.4774L63.8374 148.902H64.2574V156H62.5354ZM80.5519 156V153.452L80.8039 153.746H78.5639C77.5372 153.746 76.7299 153.531 76.1419 153.102C75.5632 152.663 75.2739 152.033 75.2739 151.212C75.2739 150.335 75.5819 149.667 76.1979 149.21C76.8232 148.753 77.6539 148.524 78.6899 148.524H82.1199V156H80.5519ZM75.1759 156L77.1919 153.144H78.9839L77.0519 156H75.1759ZM80.5519 152.892V149.532L80.8039 149.994H78.7459C78.2045 149.994 77.7845 150.097 77.4859 150.302C77.1965 150.498 77.0519 150.82 77.0519 151.268C77.0519 152.108 77.5979 152.528 78.6899 152.528H80.8039L80.5519 152.892ZM84.4739 156V148.524H90.2139V150.008H85.8179L86.2239 149.616V156H84.4739ZM96.8495 156L94.1475 152.416L95.5755 151.534L98.9075 156H96.8495ZM91.4875 156V148.524H93.2375V156H91.4875ZM92.7195 153.004V151.548H95.2535V153.004H92.7195ZM95.7435 152.472L94.1055 152.276L96.8495 148.524H98.7255L95.7435 152.472ZM104.541 156V154.488L104.443 154.166V151.52C104.443 151.007 104.289 150.61 103.981 150.33C103.673 150.041 103.206 149.896 102.581 149.896C102.161 149.896 101.746 149.961 101.335 150.092C100.934 150.223 100.593 150.405 100.313 150.638L99.6271 149.364C100.028 149.056 100.504 148.827 101.055 148.678C101.615 148.519 102.194 148.44 102.791 148.44C103.874 148.44 104.709 148.701 105.297 149.224C105.894 149.737 106.193 150.535 106.193 151.618V156H104.541ZM102.189 156.098C101.629 156.098 101.139 156.005 100.719 155.818C100.299 155.622 99.9724 155.356 99.7391 155.02C99.5151 154.675 99.4031 154.287 99.4031 153.858C99.4031 153.438 99.5011 153.06 99.6971 152.724C99.9024 152.388 100.234 152.122 100.691 151.926C101.148 151.73 101.755 151.632 102.511 151.632H104.681V152.794H102.637C102.04 152.794 101.638 152.892 101.433 153.088C101.228 153.275 101.125 153.508 101.125 153.788C101.125 154.105 101.251 154.357 101.503 154.544C101.755 154.731 102.105 154.824 102.553 154.824C102.982 154.824 103.365 154.726 103.701 154.53C104.046 154.334 104.294 154.045 104.443 153.662L104.737 154.712C104.569 155.151 104.266 155.491 103.827 155.734C103.398 155.977 102.852 156.098 102.189 156.098ZM113.105 156V153.452L113.357 153.746H111.117C110.09 153.746 109.283 153.531 108.695 153.102C108.116 152.663 107.827 152.033 107.827 151.212C107.827 150.335 108.135 149.667 108.751 149.21C109.376 148.753 110.207 148.524 111.243 148.524H114.673V156H113.105ZM107.729 156L109.745 153.144H111.537L109.605 156H107.729ZM113.105 152.892V149.532L113.357 149.994H111.299C110.757 149.994 110.337 150.097 110.039 150.302C109.749 150.498 109.605 150.82 109.605 151.268C109.605 152.108 110.151 152.528 111.243 152.528H113.357L113.105 152.892Z" fill="white" fill-opacity="0.6"/>
<path d="M189.665 156.126C189.096 156.126 188.531 156.061 187.971 155.93C187.42 155.79 186.921 155.594 186.473 155.342L186.963 154.04C187.327 154.245 187.738 154.404 188.195 154.516C188.652 154.628 189.11 154.684 189.567 154.684C189.959 154.684 190.295 154.647 190.575 154.572C190.855 154.488 191.07 154.367 191.219 154.208C191.378 154.049 191.457 153.867 191.457 153.662C191.457 153.363 191.326 153.139 191.065 152.99C190.813 152.831 190.449 152.752 189.973 152.752H188.531V151.576H189.833C190.132 151.576 190.384 151.543 190.589 151.478C190.804 151.413 190.967 151.315 191.079 151.184C191.191 151.053 191.247 150.899 191.247 150.722C191.247 150.545 191.177 150.391 191.037 150.26C190.906 150.12 190.715 150.017 190.463 149.952C190.211 149.877 189.908 149.84 189.553 149.84C189.18 149.84 188.792 149.887 188.391 149.98C187.999 150.073 187.598 150.209 187.187 150.386L186.739 149.098C187.215 148.883 187.677 148.72 188.125 148.608C188.582 148.487 189.035 148.421 189.483 148.412C190.164 148.384 190.771 148.454 191.303 148.622C191.835 148.79 192.255 149.033 192.563 149.35C192.871 149.667 193.025 150.041 193.025 150.47C193.025 150.825 192.913 151.147 192.689 151.436C192.474 151.716 192.176 151.935 191.793 152.094C191.42 152.253 190.99 152.332 190.505 152.332L190.561 151.954C191.392 151.954 192.045 152.122 192.521 152.458C192.997 152.785 193.235 153.233 193.235 153.802C193.235 154.259 193.081 154.665 192.773 155.02C192.465 155.365 192.04 155.636 191.499 155.832C190.967 156.028 190.356 156.126 189.665 156.126ZM198.369 156.098C197.604 156.098 196.923 155.935 196.325 155.608C195.728 155.272 195.257 154.815 194.911 154.236C194.566 153.657 194.393 152.999 194.393 152.262C194.393 151.515 194.566 150.857 194.911 150.288C195.257 149.709 195.728 149.257 196.325 148.93C196.923 148.603 197.604 148.44 198.369 148.44C199.144 148.44 199.83 148.603 200.427 148.93C201.034 149.257 201.505 149.705 201.841 150.274C202.187 150.843 202.359 151.506 202.359 152.262C202.359 152.999 202.187 153.657 201.841 154.236C201.505 154.815 201.034 155.272 200.427 155.608C199.83 155.935 199.144 156.098 198.369 156.098ZM198.369 154.6C198.799 154.6 199.181 154.507 199.517 154.32C199.853 154.133 200.115 153.863 200.301 153.508C200.497 153.153 200.595 152.738 200.595 152.262C200.595 151.777 200.497 151.361 200.301 151.016C200.115 150.661 199.853 150.391 199.517 150.204C199.181 150.017 198.803 149.924 198.383 149.924C197.954 149.924 197.571 150.017 197.235 150.204C196.909 150.391 196.647 150.661 196.451 151.016C196.255 151.361 196.157 151.777 196.157 152.262C196.157 152.738 196.255 153.153 196.451 153.508C196.647 153.863 196.909 154.133 197.235 154.32C197.571 154.507 197.949 154.6 198.369 154.6ZM204.088 156V148.524H205.838V151.562H209.604V148.524H211.354V156H209.604V153.046H205.838V156H204.088ZM218.235 156V154.488L218.137 154.166V151.52C218.137 151.007 217.983 150.61 217.675 150.33C217.367 150.041 216.901 149.896 216.275 149.896C215.855 149.896 215.44 149.961 215.029 150.092C214.628 150.223 214.287 150.405 214.007 150.638L213.321 149.364C213.723 149.056 214.199 148.827 214.749 148.678C215.309 148.519 215.888 148.44 216.485 148.44C217.568 148.44 218.403 148.701 218.991 149.224C219.589 149.737 219.887 150.535 219.887 151.618V156H218.235ZM215.883 156.098C215.323 156.098 214.833 156.005 214.413 155.818C213.993 155.622 213.667 155.356 213.433 155.02C213.209 154.675 213.097 154.287 213.097 153.858C213.097 153.438 213.195 153.06 213.391 152.724C213.597 152.388 213.928 152.122 214.385 151.926C214.843 151.73 215.449 151.632 216.205 151.632H218.375V152.794H216.331C215.734 152.794 215.333 152.892 215.127 153.088C214.922 153.275 214.819 153.508 214.819 153.788C214.819 154.105 214.945 154.357 215.197 154.544C215.449 154.731 215.799 154.824 216.247 154.824C216.677 154.824 217.059 154.726 217.395 154.53C217.741 154.334 217.988 154.045 218.137 153.662L218.431 154.712C218.263 155.151 217.96 155.491 217.521 155.734C217.092 155.977 216.546 156.098 215.883 156.098Z" fill="white" fill-opacity="0.6"/>
<path d="M823.441 270L827.851 260.2H829.643L834.067 270H832.163L828.369 261.166H829.097L825.317 270H823.441ZM825.471 267.732L825.961 266.304H831.253L831.743 267.732H825.471ZM835.374 270V262.524H837.208L840.218 267.83H839.49L842.654 262.524H844.292L844.306 270H842.724V264.4L843.004 264.582L840.204 269.216H839.448L836.634 264.456L836.97 264.372V270H835.374ZM851.4 270.14C851.39 270.14 851.348 270.14 851.274 270.14C851.208 270.14 851.143 270.14 851.078 270.14C851.022 270.14 850.984 270.14 850.966 270.14C849.388 270.121 848.166 269.781 847.298 269.118C846.43 268.446 845.996 267.489 845.996 266.248C845.996 265.016 846.43 264.073 847.298 263.42C848.166 262.767 849.402 262.431 851.008 262.412C851.026 262.412 851.064 262.412 851.12 262.412C851.185 262.412 851.246 262.412 851.302 262.412C851.367 262.412 851.404 262.412 851.414 262.412C853.028 262.412 854.284 262.743 855.18 263.406C856.085 264.059 856.538 265.007 856.538 266.248C856.538 267.499 856.085 268.46 855.18 269.132C854.284 269.804 853.024 270.14 851.4 270.14ZM851.344 268.684C852.137 268.684 852.79 268.595 853.304 268.418C853.817 268.231 854.2 267.961 854.452 267.606C854.704 267.242 854.83 266.789 854.83 266.248C854.83 265.716 854.704 265.277 854.452 264.932C854.2 264.577 853.817 264.316 853.304 264.148C852.79 263.971 852.137 263.882 851.344 263.882C851.325 263.882 851.278 263.882 851.204 263.882C851.138 263.882 851.096 263.882 851.078 263.882C850.303 263.882 849.668 263.975 849.174 264.162C848.679 264.339 848.31 264.601 848.068 264.946C847.834 265.291 847.718 265.725 847.718 266.248C847.718 266.78 847.834 267.223 848.068 267.578C848.31 267.933 848.679 268.203 849.174 268.39C849.678 268.577 850.312 268.675 851.078 268.684C851.096 268.684 851.138 268.684 851.204 268.684C851.278 268.684 851.325 268.684 851.344 268.684ZM850.434 272.716V259.612H852.086V272.716H850.434ZM858.234 270V262.524H859.984V267.452L864.114 262.524H865.71V270H863.96V265.072L859.844 270H858.234ZM869.618 270V263.588L870.024 264.008H866.986V262.524H873.986V264.008H870.962L871.368 263.588V270H869.618ZM878.413 270.098C877.582 270.098 876.854 269.935 876.229 269.608C875.613 269.272 875.132 268.815 874.787 268.236C874.451 267.657 874.283 266.999 874.283 266.262C874.283 265.515 874.446 264.857 874.773 264.288C875.109 263.709 875.566 263.257 876.145 262.93C876.733 262.603 877.4 262.44 878.147 262.44C878.875 262.44 879.524 262.599 880.093 262.916C880.662 263.233 881.11 263.681 881.437 264.26C881.764 264.839 881.927 265.52 881.927 266.304C881.927 266.379 881.922 266.463 881.913 266.556C881.913 266.649 881.908 266.738 881.899 266.822H875.669V265.66H880.975L880.289 266.024C880.298 265.595 880.21 265.217 880.023 264.89C879.836 264.563 879.58 264.307 879.253 264.12C878.936 263.933 878.567 263.84 878.147 263.84C877.718 263.84 877.34 263.933 877.013 264.12C876.696 264.307 876.444 264.568 876.257 264.904C876.08 265.231 875.991 265.618 875.991 266.066V266.346C875.991 266.794 876.094 267.191 876.299 267.536C876.504 267.881 876.794 268.147 877.167 268.334C877.54 268.521 877.97 268.614 878.455 268.614C878.875 268.614 879.253 268.549 879.589 268.418C879.925 268.287 880.224 268.082 880.485 267.802L881.423 268.88C881.087 269.272 880.662 269.575 880.149 269.79C879.645 269.995 879.066 270.098 878.413 270.098ZM888.172 270V268.488L888.074 268.166V265.52C888.074 265.007 887.92 264.61 887.612 264.33C887.304 264.041 886.837 263.896 886.212 263.896C885.792 263.896 885.377 263.961 884.966 264.092C884.565 264.223 884.224 264.405 883.944 264.638L883.258 263.364C883.659 263.056 884.135 262.827 884.686 262.678C885.246 262.519 885.825 262.44 886.422 262.44C887.505 262.44 888.34 262.701 888.928 263.224C889.525 263.737 889.824 264.535 889.824 265.618V270H888.172ZM885.82 270.098C885.26 270.098 884.77 270.005 884.35 269.818C883.93 269.622 883.603 269.356 883.37 269.02C883.146 268.675 883.034 268.287 883.034 267.858C883.034 267.438 883.132 267.06 883.328 266.724C883.533 266.388 883.865 266.122 884.322 265.926C884.779 265.73 885.386 265.632 886.142 265.632H888.312V266.794H886.268C885.671 266.794 885.269 266.892 885.064 267.088C884.859 267.275 884.756 267.508 884.756 267.788C884.756 268.105 884.882 268.357 885.134 268.544C885.386 268.731 885.736 268.824 886.184 268.824C886.613 268.824 886.996 268.726 887.332 268.53C887.677 268.334 887.925 268.045 888.074 267.662L888.368 268.712C888.2 269.151 887.897 269.491 887.458 269.734C887.029 269.977 886.483 270.098 885.82 270.098ZM893.543 270V263.588L893.949 264.008H890.911V262.524H897.911V264.008H894.887L895.293 263.588V270H893.543ZM903.325 270.098C902.718 270.098 902.163 269.958 901.659 269.678C901.164 269.398 900.768 268.978 900.469 268.418C900.18 267.849 900.035 267.13 900.035 266.262C900.035 265.385 900.175 264.666 900.455 264.106C900.744 263.546 901.136 263.131 901.631 262.86C902.126 262.58 902.69 262.44 903.325 262.44C904.062 262.44 904.711 262.599 905.271 262.916C905.84 263.233 906.288 263.677 906.615 264.246C906.951 264.815 907.119 265.487 907.119 266.262C907.119 267.037 906.951 267.713 906.615 268.292C906.288 268.861 905.84 269.305 905.271 269.622C904.711 269.939 904.062 270.098 903.325 270.098ZM899.181 272.716V262.524H900.847V264.288L900.791 266.276L900.931 268.264V272.716H899.181ZM903.129 268.6C903.549 268.6 903.922 268.507 904.249 268.32C904.585 268.133 904.851 267.863 905.047 267.508C905.243 267.153 905.341 266.738 905.341 266.262C905.341 265.777 905.243 265.361 905.047 265.016C904.851 264.661 904.585 264.391 904.249 264.204C903.922 264.017 903.549 263.924 903.129 263.924C902.709 263.924 902.331 264.017 901.995 264.204C901.659 264.391 901.393 264.661 901.197 265.016C901.001 265.361 900.903 265.777 900.903 266.262C900.903 266.738 901.001 267.153 901.197 267.508C901.393 267.863 901.659 268.133 901.995 268.32C902.331 268.507 902.709 268.6 903.129 268.6Z" fill="white" fill-opacity="0.6"/>
<circle opacity="0.4" cx="115.5" cy="256.5" r="17.5" fill="#36BA6B"/>
<path d="M106.809 248.005C106.563 248.087 106.351 248.248 106.206 248.463C106.06 248.677 105.988 248.933 106.002 249.192V261.064C106.002 261.379 106.127 261.681 106.349 261.903C106.572 262.126 106.874 262.251 107.189 262.251H113.126V264.626H110.751C109.445 264.626 108.376 265.694 108.376 267H122.625C122.625 265.694 121.557 264.626 120.25 264.626H117.876V262.251H123.813C124.128 262.251 124.43 262.126 124.652 261.903C124.875 261.681 125 261.379 125 261.064V249.192C125 248.877 124.875 248.575 124.652 248.353C124.43 248.13 124.128 248.005 123.813 248.005L107.189 248.005C107.118 247.998 107.046 247.998 106.975 248.005C106.928 248.002 106.88 248.002 106.833 248.005L106.809 248.005ZM108.376 250.379H122.625V259.877H108.376V250.379Z" fill="white" fill-opacity="0.5"/>
<circle opacity="0.4" cx="253.5" cy="254.5" r="17.5" fill="#36BA6B"/>
<path d="M244.809 246.005C244.563 246.087 244.351 246.248 244.206 246.463C244.06 246.677 243.988 246.933 244.002 247.192V259.064C244.002 259.379 244.127 259.681 244.349 259.903C244.572 260.126 244.874 260.251 245.189 260.251H251.126V262.626H248.751C247.445 262.626 246.376 263.694 246.376 265H260.625C260.625 263.694 259.557 262.626 258.25 262.626H255.876V260.251H261.813C262.128 260.251 262.43 260.126 262.652 259.903C262.875 259.681 263 259.379 263 259.064V247.192C263 246.877 262.875 246.575 262.652 246.353C262.43 246.13 262.128 246.005 261.813 246.005L245.189 246.005C245.118 245.998 245.046 245.998 244.975 246.005C244.928 246.002 244.88 246.002 244.833 246.005L244.809 246.005ZM246.376 248.379H260.625V257.877H246.376V248.379Z" fill="white" fill-opacity="0.5"/>
<path d="M505.283 237L502.223 230H503.633L506.363 236.33H505.553L508.313 230H509.613L506.563 237H505.283ZM510.352 237V230H513.232C513.852 230 514.382 230.1 514.822 230.3C515.269 230.5 515.612 230.787 515.852 231.16C516.092 231.533 516.212 231.977 516.212 232.49C516.212 233.003 516.092 233.447 515.852 233.82C515.612 234.187 515.269 234.47 514.822 234.67C514.382 234.863 513.852 234.96 513.232 234.96H511.072L511.652 234.37V237H510.352ZM514.932 237L513.162 234.46H514.552L516.332 237H514.932ZM511.652 234.51L511.072 233.89H513.172C513.745 233.89 514.175 233.767 514.462 233.52C514.755 233.273 514.902 232.93 514.902 232.49C514.902 232.043 514.755 231.7 514.462 231.46C514.175 231.22 513.745 231.1 513.172 231.1H511.072L511.652 230.46V234.51ZM496.894 248.31L497.314 247.36C497.614 247.567 497.941 247.727 498.294 247.84C498.654 247.947 499.011 248.003 499.364 248.01C499.718 248.017 500.038 247.977 500.324 247.89C500.618 247.803 500.851 247.673 501.024 247.5C501.198 247.327 501.284 247.11 501.284 246.85C501.284 246.537 501.154 246.303 500.894 246.15C500.641 245.99 500.294 245.91 499.854 245.91H498.224V244.89H499.754C500.148 244.89 500.451 244.81 500.664 244.65C500.884 244.49 500.994 244.273 500.994 244C500.994 243.773 500.921 243.587 500.774 243.44C500.634 243.293 500.441 243.183 500.194 243.11C499.954 243.037 499.681 243.003 499.374 243.01C499.074 243.01 498.761 243.057 498.434 243.15C498.108 243.237 497.798 243.367 497.504 243.54L497.094 242.49C497.534 242.257 497.994 242.093 498.474 242C498.961 241.907 499.431 241.88 499.884 241.92C500.338 241.96 500.744 242.063 501.104 242.23C501.471 242.397 501.764 242.617 501.984 242.89C502.204 243.157 502.314 243.473 502.314 243.84C502.314 244.173 502.224 244.47 502.044 244.73C501.871 244.983 501.631 245.18 501.324 245.32C501.018 245.46 500.661 245.53 500.254 245.53L500.304 245.21C500.764 245.21 501.164 245.29 501.504 245.45C501.851 245.603 502.118 245.817 502.304 246.09C502.498 246.363 502.594 246.68 502.594 247.04C502.594 247.38 502.508 247.683 502.334 247.95C502.161 248.21 501.924 248.43 501.624 248.61C501.324 248.783 500.981 248.913 500.594 249C500.208 249.08 499.801 249.11 499.374 249.09C498.948 249.07 498.521 248.997 498.094 248.87C497.674 248.743 497.274 248.557 496.894 248.31ZM506.319 249.07C505.772 249.07 505.285 248.953 504.859 248.72C504.432 248.48 504.095 248.153 503.849 247.74C503.602 247.327 503.479 246.857 503.479 246.33C503.479 245.797 503.602 245.327 503.849 244.92C504.095 244.507 504.432 244.183 504.859 243.95C505.285 243.717 505.772 243.6 506.319 243.6C506.872 243.6 507.362 243.717 507.789 243.95C508.222 244.183 508.559 244.503 508.799 244.91C509.045 245.317 509.169 245.79 509.169 246.33C509.169 246.857 509.045 247.327 508.799 247.74C508.559 248.153 508.222 248.48 507.789 248.72C507.362 248.953 506.872 249.07 506.319 249.07ZM506.319 248C506.625 248 506.899 247.933 507.139 247.8C507.379 247.667 507.565 247.473 507.699 247.22C507.839 246.967 507.909 246.67 507.909 246.33C507.909 245.983 507.839 245.687 507.699 245.44C507.565 245.187 507.379 244.993 507.139 244.86C506.899 244.727 506.629 244.66 506.329 244.66C506.022 244.66 505.749 244.727 505.509 244.86C505.275 244.993 505.089 245.187 504.949 245.44C504.809 245.687 504.739 245.983 504.739 246.33C504.739 246.67 504.809 246.967 504.949 247.22C505.089 247.473 505.275 247.667 505.509 247.8C505.749 247.933 506.019 248 506.319 248ZM510.403 249V243.66H511.653V245.83H514.343V243.66H515.593V249H514.343V246.89H511.653V249H510.403ZM520.509 249V247.92L520.439 247.69V245.8C520.439 245.433 520.329 245.15 520.109 244.95C519.889 244.743 519.555 244.64 519.109 244.64C518.809 244.64 518.512 244.687 518.219 244.78C517.932 244.873 517.689 245.003 517.489 245.17L516.999 244.26C517.285 244.04 517.625 243.877 518.019 243.77C518.419 243.657 518.832 243.6 519.259 243.6C520.032 243.6 520.629 243.787 521.049 244.16C521.475 244.527 521.689 245.097 521.689 245.87V249H520.509ZM518.829 249.07C518.429 249.07 518.079 249.003 517.779 248.87C517.479 248.73 517.245 248.54 517.079 248.3C516.919 248.053 516.839 247.777 516.839 247.47C516.839 247.17 516.909 246.9 517.049 246.66C517.195 246.42 517.432 246.23 517.759 246.09C518.085 245.95 518.519 245.88 519.059 245.88H520.609V246.71H519.149C518.722 246.71 518.435 246.78 518.289 246.92C518.142 247.053 518.069 247.22 518.069 247.42C518.069 247.647 518.159 247.827 518.339 247.96C518.519 248.093 518.769 248.16 519.089 248.16C519.395 248.16 519.669 248.09 519.909 247.95C520.155 247.81 520.332 247.603 520.439 247.33L520.649 248.08C520.529 248.393 520.312 248.637 519.999 248.81C519.692 248.983 519.302 249.07 518.829 249.07Z" fill="white" fill-opacity="0.6"/>
<path d="M590.673 75L588.303 71.59L589.353 70.94L592.143 75H590.673ZM586.043 75V68H587.323V75H586.043ZM586.933 72.05V70.93H589.293V72.05H586.933ZM589.473 71.65L588.283 71.49L590.673 68H592.053L589.473 71.65ZM596.194 75V73.92L596.124 73.69V71.8C596.124 71.4333 596.014 71.15 595.794 70.95C595.574 70.7433 595.241 70.64 594.794 70.64C594.494 70.64 594.198 70.6867 593.904 70.78C593.618 70.8733 593.374 71.0033 593.174 71.17L592.684 70.26C592.971 70.04 593.311 69.8767 593.704 69.77C594.104 69.6567 594.518 69.6 594.944 69.6C595.718 69.6 596.314 69.7867 596.734 70.16C597.161 70.5267 597.374 71.0967 597.374 71.87V75H596.194ZM594.514 75.07C594.114 75.07 593.764 75.0033 593.464 74.87C593.164 74.73 592.931 74.54 592.764 74.3C592.604 74.0533 592.524 73.7767 592.524 73.47C592.524 73.17 592.594 72.9 592.734 72.66C592.881 72.42 593.118 72.23 593.444 72.09C593.771 71.95 594.204 71.88 594.744 71.88H596.294V72.71H594.834C594.408 72.71 594.121 72.78 593.974 72.92C593.828 73.0533 593.754 73.22 593.754 73.42C593.754 73.6467 593.844 73.8267 594.024 73.96C594.204 74.0933 594.454 74.16 594.774 74.16C595.081 74.16 595.354 74.09 595.594 73.95C595.841 73.81 596.018 73.6033 596.124 73.33L596.334 74.08C596.214 74.3933 595.998 74.6367 595.684 74.81C595.378 74.9833 594.988 75.07 594.514 75.07ZM601.471 75.1C601.031 75.1 600.638 75.0333 600.291 74.9C599.944 74.7667 599.644 74.5633 599.391 74.29C599.144 74.01 598.954 73.6567 598.821 73.23C598.688 72.8033 598.621 72.2967 598.621 71.71C598.621 71.2833 598.658 70.8933 598.731 70.54C598.804 70.1867 598.914 69.87 599.061 69.59C599.208 69.3033 599.391 69.05 599.611 68.83C599.838 68.61 600.101 68.4267 600.401 68.28C600.701 68.1333 601.041 68.02 601.421 67.94L603.901 67.41L604.081 68.53L601.831 68.99C601.704 69.0167 601.551 69.0567 601.371 69.11C601.198 69.1567 601.018 69.23 600.831 69.33C600.651 69.4233 600.481 69.56 600.321 69.74C600.168 69.9133 600.041 70.14 599.941 70.42C599.848 70.6933 599.801 71.0367 599.801 71.45C599.801 71.5767 599.804 71.6733 599.811 71.74C599.824 71.8 599.834 71.8667 599.841 71.94C599.854 72.0067 599.861 72.1067 599.861 72.24L599.391 71.75C599.524 71.41 599.708 71.12 599.941 70.88C600.181 70.6333 600.458 70.4467 600.771 70.32C601.091 70.1867 601.438 70.12 601.811 70.12C602.311 70.12 602.754 70.2233 603.141 70.43C603.528 70.6367 603.831 70.9267 604.051 71.3C604.271 71.6733 604.381 72.0967 604.381 72.57C604.381 73.0633 604.261 73.5 604.021 73.88C603.781 74.26 603.441 74.56 603.001 74.78C602.568 74.9933 602.058 75.1 601.471 75.1ZM601.571 74.09C601.871 74.09 602.134 74.0267 602.361 73.9C602.594 73.7667 602.774 73.5867 602.901 73.36C603.034 73.1333 603.101 72.88 603.101 72.6C603.101 72.32 603.034 72.0767 602.901 71.87C602.774 71.6567 602.594 71.4867 602.361 71.36C602.134 71.2333 601.864 71.17 601.551 71.17C601.251 71.17 600.981 71.23 600.741 71.35C600.508 71.47 600.324 71.6367 600.191 71.85C600.064 72.0567 600.001 72.2967 600.001 72.57C600.001 72.85 600.068 73.1067 600.201 73.34C600.334 73.5733 600.518 73.7567 600.751 73.89C600.991 74.0233 601.264 74.09 601.571 74.09ZM605.591 75V69.66H606.841V73.18L609.791 69.66H610.931V75H609.681V71.48L606.741 75H605.591ZM612.612 75V69.66H613.862V71.83H616.552V69.66H617.802V75H616.552V72.89H613.862V75H612.612ZM621.968 75.07C621.374 75.07 620.854 74.9533 620.408 74.72C619.968 74.48 619.624 74.1533 619.378 73.74C619.138 73.3267 619.018 72.8567 619.018 72.33C619.018 71.7967 619.134 71.3267 619.368 70.92C619.608 70.5067 619.934 70.1833 620.348 69.95C620.768 69.7167 621.244 69.6 621.778 69.6C622.298 69.6 622.761 69.7133 623.168 69.94C623.574 70.1667 623.894 70.4867 624.128 70.9C624.361 71.3133 624.478 71.8 624.478 72.36C624.478 72.4133 624.474 72.4733 624.468 72.54C624.468 72.6067 624.464 72.67 624.458 72.73H620.008V71.9H623.798L623.308 72.16C623.314 71.8533 623.251 71.5833 623.118 71.35C622.984 71.1167 622.801 70.9333 622.568 70.8C622.341 70.6667 622.078 70.6 621.778 70.6C621.471 70.6 621.201 70.6667 620.968 70.8C620.741 70.9333 620.561 71.12 620.428 71.36C620.301 71.5933 620.238 71.87 620.238 72.19V72.39C620.238 72.71 620.311 72.9933 620.458 73.24C620.604 73.4867 620.811 73.6767 621.078 73.81C621.344 73.9433 621.651 74.01 621.998 74.01C622.298 74.01 622.568 73.9633 622.808 73.87C623.048 73.7767 623.261 73.63 623.448 73.43L624.118 74.2C623.878 74.48 623.574 74.6967 623.208 74.85C622.848 74.9967 622.434 75.07 621.968 75.07ZM626.75 75V70.42L627.04 70.72H624.87V69.66H629.87V70.72H627.71L628 70.42V75H626.75Z" fill="white" fill-opacity="0.6"/>
<path d="M493.673 75L491.303 71.59L492.353 70.94L495.143 75H493.673ZM489.043 75V68H490.323V75H489.043ZM489.933 72.05V70.93H492.293V72.05H489.933ZM492.473 71.65L491.283 71.49L493.673 68H495.053L492.473 71.65ZM499.194 75V73.92L499.124 73.69V71.8C499.124 71.4333 499.014 71.15 498.794 70.95C498.574 70.7433 498.241 70.64 497.794 70.64C497.494 70.64 497.198 70.6867 496.904 70.78C496.618 70.8733 496.374 71.0033 496.174 71.17L495.684 70.26C495.971 70.04 496.311 69.8767 496.704 69.77C497.104 69.6567 497.518 69.6 497.944 69.6C498.718 69.6 499.314 69.7867 499.734 70.16C500.161 70.5267 500.374 71.0967 500.374 71.87V75H499.194ZM497.514 75.07C497.114 75.07 496.764 75.0033 496.464 74.87C496.164 74.73 495.931 74.54 495.764 74.3C495.604 74.0533 495.524 73.7767 495.524 73.47C495.524 73.17 495.594 72.9 495.734 72.66C495.881 72.42 496.118 72.23 496.444 72.09C496.771 71.95 497.204 71.88 497.744 71.88H499.294V72.71H497.834C497.408 72.71 497.121 72.78 496.974 72.92C496.828 73.0533 496.754 73.22 496.754 73.42C496.754 73.6467 496.844 73.8267 497.024 73.96C497.204 74.0933 497.454 74.16 497.774 74.16C498.081 74.16 498.354 74.09 498.594 73.95C498.841 73.81 499.018 73.6033 499.124 73.33L499.334 74.08C499.214 74.3933 498.998 74.6367 498.684 74.81C498.378 74.9833 497.988 75.07 497.514 75.07ZM504.471 75.1C504.031 75.1 503.638 75.0333 503.291 74.9C502.944 74.7667 502.644 74.5633 502.391 74.29C502.144 74.01 501.954 73.6567 501.821 73.23C501.688 72.8033 501.621 72.2967 501.621 71.71C501.621 71.2833 501.658 70.8933 501.731 70.54C501.804 70.1867 501.914 69.87 502.061 69.59C502.208 69.3033 502.391 69.05 502.611 68.83C502.838 68.61 503.101 68.4267 503.401 68.28C503.701 68.1333 504.041 68.02 504.421 67.94L506.901 67.41L507.081 68.53L504.831 68.99C504.704 69.0167 504.551 69.0567 504.371 69.11C504.198 69.1567 504.018 69.23 503.831 69.33C503.651 69.4233 503.481 69.56 503.321 69.74C503.168 69.9133 503.041 70.14 502.941 70.42C502.848 70.6933 502.801 71.0367 502.801 71.45C502.801 71.5767 502.804 71.6733 502.811 71.74C502.824 71.8 502.834 71.8667 502.841 71.94C502.854 72.0067 502.861 72.1067 502.861 72.24L502.391 71.75C502.524 71.41 502.708 71.12 502.941 70.88C503.181 70.6333 503.458 70.4467 503.771 70.32C504.091 70.1867 504.438 70.12 504.811 70.12C505.311 70.12 505.754 70.2233 506.141 70.43C506.528 70.6367 506.831 70.9267 507.051 71.3C507.271 71.6733 507.381 72.0967 507.381 72.57C507.381 73.0633 507.261 73.5 507.021 73.88C506.781 74.26 506.441 74.56 506.001 74.78C505.568 74.9933 505.058 75.1 504.471 75.1ZM504.571 74.09C504.871 74.09 505.134 74.0267 505.361 73.9C505.594 73.7667 505.774 73.5867 505.901 73.36C506.034 73.1333 506.101 72.88 506.101 72.6C506.101 72.32 506.034 72.0767 505.901 71.87C505.774 71.6567 505.594 71.4867 505.361 71.36C505.134 71.2333 504.864 71.17 504.551 71.17C504.251 71.17 503.981 71.23 503.741 71.35C503.508 71.47 503.324 71.6367 503.191 71.85C503.064 72.0567 503.001 72.2967 503.001 72.57C503.001 72.85 503.068 73.1067 503.201 73.34C503.334 73.5733 503.518 73.7567 503.751 73.89C503.991 74.0233 504.264 74.09 504.571 74.09ZM508.591 75V69.66H509.841V73.18L512.791 69.66H513.931V75H512.681V71.48L509.741 75H508.591ZM515.612 75V69.66H516.862V71.83H519.552V69.66H520.802V75H519.552V72.89H516.862V75H515.612ZM524.968 75.07C524.374 75.07 523.854 74.9533 523.408 74.72C522.968 74.48 522.624 74.1533 522.378 73.74C522.138 73.3267 522.018 72.8567 522.018 72.33C522.018 71.7967 522.134 71.3267 522.368 70.92C522.608 70.5067 522.934 70.1833 523.348 69.95C523.768 69.7167 524.244 69.6 524.778 69.6C525.298 69.6 525.761 69.7133 526.168 69.94C526.574 70.1667 526.894 70.4867 527.128 70.9C527.361 71.3133 527.478 71.8 527.478 72.36C527.478 72.4133 527.474 72.4733 527.468 72.54C527.468 72.6067 527.464 72.67 527.458 72.73H523.008V71.9H526.798L526.308 72.16C526.314 71.8533 526.251 71.5833 526.118 71.35C525.984 71.1167 525.801 70.9333 525.568 70.8C525.341 70.6667 525.078 70.6 524.778 70.6C524.471 70.6 524.201 70.6667 523.968 70.8C523.741 70.9333 523.561 71.12 523.428 71.36C523.301 71.5933 523.238 71.87 523.238 72.19V72.39C523.238 72.71 523.311 72.9933 523.458 73.24C523.604 73.4867 523.811 73.6767 524.078 73.81C524.344 73.9433 524.651 74.01 524.998 74.01C525.298 74.01 525.568 73.9633 525.808 73.87C526.048 73.7767 526.261 73.63 526.448 73.43L527.118 74.2C526.878 74.48 526.574 74.6967 526.208 74.85C525.848 74.9967 525.434 75.07 524.968 75.07ZM529.75 75V70.42L530.04 70.72H527.87V69.66H532.87V70.72H530.71L531 70.42V75H529.75Z" fill="white" fill-opacity="0.6"/>
<path d="M396.424 92L394.054 88.59L395.104 87.94L397.894 92H396.424ZM391.794 92V85H393.074V92H391.794ZM392.684 89.05V87.93H395.044V89.05H392.684ZM395.224 88.65L394.034 88.49L396.424 85H397.804L395.224 88.65ZM400.949 92.07C400.402 92.07 399.915 91.9533 399.489 91.72C399.062 91.48 398.725 91.1533 398.479 90.74C398.232 90.3267 398.109 89.8567 398.109 89.33C398.109 88.7967 398.232 88.3267 398.479 87.92C398.725 87.5067 399.062 87.1833 399.489 86.95C399.915 86.7167 400.402 86.6 400.949 86.6C401.502 86.6 401.992 86.7167 402.419 86.95C402.852 87.1833 403.189 87.5033 403.429 87.91C403.675 88.3167 403.799 88.79 403.799 89.33C403.799 89.8567 403.675 90.3267 403.429 90.74C403.189 91.1533 402.852 91.48 402.419 91.72C401.992 91.9533 401.502 92.07 400.949 92.07ZM400.949 91C401.255 91 401.529 90.9333 401.769 90.8C402.009 90.6667 402.195 90.4733 402.329 90.22C402.469 89.9667 402.539 89.67 402.539 89.33C402.539 88.9833 402.469 88.6867 402.329 88.44C402.195 88.1867 402.009 87.9933 401.769 87.86C401.529 87.7267 401.259 87.66 400.959 87.66C400.652 87.66 400.379 87.7267 400.139 87.86C399.905 87.9933 399.719 88.1867 399.579 88.44C399.439 88.6867 399.369 88.9833 399.369 89.33C399.369 89.67 399.439 89.9667 399.579 90.22C399.719 90.4733 399.905 90.6667 400.139 90.8C400.379 90.9333 400.649 91 400.949 91ZM405.033 92V86.66H406.343L408.493 90.45H407.973L410.233 86.66H411.403L411.413 92H410.283V88L410.483 88.13L408.483 91.44H407.943L405.933 88.04L406.173 87.98V92H405.033ZM413.09 92V86.66H414.34V88.83H417.03V86.66H418.28V92H417.03V89.89H414.34V92H413.09ZM423.195 92V90.92L423.125 90.69V88.8C423.125 88.4333 423.015 88.15 422.795 87.95C422.575 87.7433 422.242 87.64 421.795 87.64C421.495 87.64 421.199 87.6867 420.905 87.78C420.619 87.8733 420.375 88.0033 420.175 88.17L419.685 87.26C419.972 87.04 420.312 86.8767 420.705 86.77C421.105 86.6567 421.519 86.6 421.945 86.6C422.719 86.6 423.315 86.7867 423.735 87.16C424.162 87.5267 424.375 88.0967 424.375 88.87V92H423.195ZM421.515 92.07C421.115 92.07 420.765 92.0033 420.465 91.87C420.165 91.73 419.932 91.54 419.765 91.3C419.605 91.0533 419.525 90.7767 419.525 90.47C419.525 90.17 419.595 89.9 419.735 89.66C419.882 89.42 420.119 89.23 420.445 89.09C420.772 88.95 421.205 88.88 421.745 88.88H423.295V89.71H421.835C421.409 89.71 421.122 89.78 420.975 89.92C420.829 90.0533 420.755 90.22 420.755 90.42C420.755 90.6467 420.845 90.8267 421.025 90.96C421.205 91.0933 421.455 91.16 421.775 91.16C422.082 91.16 422.355 91.09 422.595 90.95C422.842 90.81 423.019 90.6033 423.125 90.33L423.335 91.08C423.215 91.3933 422.999 91.6367 422.685 91.81C422.379 91.9833 421.989 92.07 421.515 92.07ZM427.032 92V87.42L427.322 87.72H425.152V86.66H430.152V87.72H427.992L428.282 87.42V92H427.032ZM434.299 92V90.92L434.229 90.69V88.8C434.229 88.4333 434.119 88.15 433.899 87.95C433.679 87.7433 433.345 87.64 432.899 87.64C432.599 87.64 432.302 87.6867 432.009 87.78C431.722 87.8733 431.479 88.0033 431.279 88.17L430.789 87.26C431.075 87.04 431.415 86.8767 431.809 86.77C432.209 86.6567 432.622 86.6 433.049 86.6C433.822 86.6 434.419 86.7867 434.839 87.16C435.265 87.5267 435.479 88.0967 435.479 88.87V92H434.299ZM432.619 92.07C432.219 92.07 431.869 92.0033 431.569 91.87C431.269 91.73 431.035 91.54 430.869 91.3C430.709 91.0533 430.629 90.7767 430.629 90.47C430.629 90.17 430.699 89.9 430.839 89.66C430.985 89.42 431.222 89.23 431.549 89.09C431.875 88.95 432.309 88.88 432.849 88.88H434.399V89.71H432.939C432.512 89.71 432.225 89.78 432.079 89.92C431.932 90.0533 431.859 90.22 431.859 90.42C431.859 90.6467 431.949 90.8267 432.129 90.96C432.309 91.0933 432.559 91.16 432.879 91.16C433.185 91.16 433.459 91.09 433.699 90.95C433.945 90.81 434.122 90.6033 434.229 90.33L434.439 91.08C434.319 91.3933 434.102 91.6367 433.789 91.81C433.482 91.9833 433.092 92.07 432.619 92.07ZM397.872 104.07C397.326 104.07 396.839 103.953 396.412 103.72C395.986 103.48 395.649 103.153 395.402 102.74C395.156 102.327 395.032 101.857 395.032 101.33C395.032 100.797 395.156 100.327 395.402 99.92C395.649 99.5067 395.986 99.1833 396.412 98.95C396.839 98.7167 397.326 98.6 397.872 98.6C398.426 98.6 398.916 98.7167 399.342 98.95C399.776 99.1833 400.112 99.5033 400.352 99.91C400.599 100.317 400.722 100.79 400.722 101.33C400.722 101.857 400.599 102.327 400.352 102.74C400.112 103.153 399.776 103.48 399.342 103.72C398.916 103.953 398.426 104.07 397.872 104.07ZM397.872 103C398.179 103 398.452 102.933 398.692 102.8C398.932 102.667 399.119 102.473 399.252 102.22C399.392 101.967 399.462 101.67 399.462 101.33C399.462 100.983 399.392 100.687 399.252 100.44C399.119 100.187 398.932 99.9933 398.692 99.86C398.452 99.7267 398.182 99.66 397.882 99.66C397.576 99.66 397.302 99.7267 397.062 99.86C396.829 99.9933 396.642 100.187 396.502 100.44C396.362 100.687 396.292 100.983 396.292 101.33C396.292 101.67 396.362 101.967 396.502 102.22C396.642 102.473 396.829 102.667 397.062 102.8C397.302 102.933 397.572 103 397.872 103ZM402.872 104V99.42L403.162 99.72H400.992V98.66H405.992V99.72H403.832L404.122 99.42V104H402.872ZM410.197 103.42V99.72H408.147L408.117 100.58C408.104 100.887 408.084 101.183 408.057 101.47C408.031 101.75 407.987 102.01 407.927 102.25C407.867 102.483 407.781 102.677 407.667 102.83C407.554 102.983 407.404 103.083 407.217 103.13L405.977 102.94C406.177 102.94 406.337 102.877 406.457 102.75C406.584 102.617 406.681 102.437 406.747 102.21C406.821 101.977 406.874 101.713 406.907 101.42C406.941 101.12 406.964 100.81 406.977 100.49L407.047 98.66H411.447V103.42H410.197ZM405.787 105.19V102.94H412.237V105.19H411.067V104H406.947V105.19H405.787ZM418.744 104V98.66H419.994V104H418.744ZM415.954 100.42C416.64 100.42 417.16 100.573 417.514 100.88C417.874 101.187 418.054 101.62 418.054 102.18C418.054 102.76 417.854 103.213 417.454 103.54C417.06 103.86 416.5 104.017 415.774 104.01L413.354 104V98.66H414.604V100.41L415.954 100.42ZM415.664 103.09C416.03 103.097 416.31 103.02 416.504 102.86C416.697 102.7 416.794 102.467 416.794 102.16C416.794 101.853 416.697 101.633 416.504 101.5C416.317 101.36 416.037 101.287 415.664 101.28L414.604 101.27V103.08L415.664 103.09ZM420.884 104L423.234 100.94L423.214 101.61L420.974 98.66H422.364L423.934 100.76H423.404L424.984 98.66H426.334L424.074 101.61L424.084 100.94L426.424 104H425.014L423.364 101.77L423.884 101.84L422.264 104H420.884ZM430.461 104V102.92L430.391 102.69V100.8C430.391 100.433 430.281 100.15 430.061 99.95C429.841 99.7433 429.508 99.64 429.061 99.64C428.761 99.64 428.464 99.6867 428.171 99.78C427.884 99.8733 427.641 100.003 427.441 100.17L426.951 99.26C427.238 99.04 427.578 98.8767 427.971 98.77C428.371 98.6567 428.784 98.6 429.211 98.6C429.984 98.6 430.581 98.7867 431.001 99.16C431.428 99.5267 431.641 100.097 431.641 100.87V104H430.461ZM428.781 104.07C428.381 104.07 428.031 104.003 427.731 103.87C427.431 103.73 427.198 103.54 427.031 103.3C426.871 103.053 426.791 102.777 426.791 102.47C426.791 102.17 426.861 101.9 427.001 101.66C427.148 101.42 427.384 101.23 427.711 101.09C428.038 100.95 428.471 100.88 429.011 100.88H430.561V101.71H429.101C428.674 101.71 428.388 101.78 428.241 101.92C428.094 102.053 428.021 102.22 428.021 102.42C428.021 102.647 428.111 102.827 428.291 102.96C428.471 103.093 428.721 103.16 429.041 103.16C429.348 103.16 429.621 103.09 429.861 102.95C430.108 102.81 430.284 102.603 430.391 102.33L430.601 103.08C430.481 103.393 430.264 103.637 429.951 103.81C429.644 103.983 429.254 104.07 428.781 104.07Z" fill="white" fill-opacity="0.6"/>
<path d="M190.722 46V39H192.002V44.9H195.532V39H196.822V46H190.722ZM196.662 47.54V45.68L196.952 46H195.532V44.9H197.862V47.54H196.662ZM201.314 46.07C200.721 46.07 200.201 45.9533 199.754 45.72C199.314 45.48 198.971 45.1533 198.724 44.74C198.484 44.3267 198.364 43.8567 198.364 43.33C198.364 42.7967 198.481 42.3267 198.714 41.92C198.954 41.5067 199.281 41.1833 199.694 40.95C200.114 40.7167 200.591 40.6 201.124 40.6C201.644 40.6 202.108 40.7133 202.514 40.94C202.921 41.1667 203.241 41.4867 203.474 41.9C203.708 42.3133 203.824 42.8 203.824 43.36C203.824 43.4133 203.821 43.4733 203.814 43.54C203.814 43.6067 203.811 43.67 203.804 43.73H199.354V42.9H203.144L202.654 43.16C202.661 42.8533 202.598 42.5833 202.464 42.35C202.331 42.1167 202.148 41.9333 201.914 41.8C201.688 41.6667 201.424 41.6 201.124 41.6C200.818 41.6 200.548 41.6667 200.314 41.8C200.088 41.9333 199.908 42.12 199.774 42.36C199.648 42.5933 199.584 42.87 199.584 43.19V43.39C199.584 43.71 199.658 43.9933 199.804 44.24C199.951 44.4867 200.158 44.6767 200.424 44.81C200.691 44.9433 200.998 45.01 201.344 45.01C201.644 45.01 201.914 44.9633 202.154 44.87C202.394 44.7767 202.608 44.63 202.794 44.43L203.464 45.2C203.224 45.48 202.921 45.6967 202.554 45.85C202.194 45.9967 201.781 46.07 201.314 46.07ZM205.192 46V40.66H206.442V42.83H209.132V40.66H210.382V46H209.132V43.89H206.442V46H205.192ZM213.167 46V41.42L213.457 41.72H211.287V40.66H216.287V41.72H214.127L214.417 41.42V46H213.167ZM220.154 46.07C219.72 46.07 219.324 45.97 218.964 45.77C218.61 45.57 218.327 45.27 218.114 44.87C217.907 44.4633 217.804 43.95 217.804 43.33C217.804 42.7033 217.904 42.19 218.104 41.79C218.31 41.39 218.59 41.0933 218.944 40.9C219.297 40.7 219.7 40.6 220.154 40.6C220.68 40.6 221.144 40.7133 221.544 40.94C221.95 41.1667 222.27 41.4833 222.504 41.89C222.744 42.2967 222.864 42.7767 222.864 43.33C222.864 43.8833 222.744 44.3667 222.504 44.78C222.27 45.1867 221.95 45.5033 221.544 45.73C221.144 45.9567 220.68 46.07 220.154 46.07ZM217.194 47.94V40.66H218.384V41.92L218.344 43.34L218.444 44.76V47.94H217.194ZM220.014 45C220.314 45 220.58 44.9333 220.814 44.8C221.054 44.6667 221.244 44.4733 221.384 44.22C221.524 43.9667 221.594 43.67 221.594 43.33C221.594 42.9833 221.524 42.6867 221.384 42.44C221.244 42.1867 221.054 41.9933 220.814 41.86C220.58 41.7267 220.314 41.66 220.014 41.66C219.714 41.66 219.444 41.7267 219.204 41.86C218.964 41.9933 218.774 42.1867 218.634 42.44C218.494 42.6867 218.424 42.9833 218.424 43.33C218.424 43.67 218.494 43.9667 218.634 44.22C218.774 44.4733 218.964 44.6667 219.204 44.8C219.444 44.9333 219.714 45 220.014 45ZM179.491 58V56.92L179.421 56.69V54.8C179.421 54.4333 179.311 54.15 179.091 53.95C178.871 53.7433 178.538 53.64 178.091 53.64C177.791 53.64 177.494 53.6867 177.201 53.78C176.914 53.8733 176.671 54.0033 176.471 54.17L175.981 53.26C176.268 53.04 176.608 52.8767 177.001 52.77C177.401 52.6567 177.814 52.6 178.241 52.6C179.014 52.6 179.611 52.7867 180.031 53.16C180.458 53.5267 180.671 54.0967 180.671 54.87V58H179.491ZM177.811 58.07C177.411 58.07 177.061 58.0033 176.761 57.87C176.461 57.73 176.228 57.54 176.061 57.3C175.901 57.0533 175.821 56.7767 175.821 56.47C175.821 56.17 175.891 55.9 176.031 55.66C176.178 55.42 176.414 55.23 176.741 55.09C177.068 54.95 177.501 54.88 178.041 54.88H179.591V55.71H178.131C177.704 55.71 177.418 55.78 177.271 55.92C177.124 56.0533 177.051 56.22 177.051 56.42C177.051 56.6467 177.141 56.8267 177.321 56.96C177.501 57.0933 177.751 57.16 178.071 57.16C178.378 57.16 178.651 57.09 178.891 56.95C179.138 56.81 179.314 56.6033 179.421 56.33L179.631 57.08C179.511 57.3933 179.294 57.6367 178.981 57.81C178.674 57.9833 178.284 58.07 177.811 58.07ZM186.048 58L184.118 55.44L185.138 54.81L187.518 58H186.048ZM182.218 58V52.66H183.468V58H182.218ZM183.098 55.86V54.82H184.908V55.86H183.098ZM185.258 55.48L184.088 55.34L186.048 52.66H187.388L185.258 55.48ZM189.441 58V53.42L189.731 53.72H187.561V52.66H192.561V53.72H190.401L190.691 53.42V58H189.441ZM193.958 60.01C193.698 60.01 193.438 59.9667 193.178 59.88C192.918 59.7933 192.701 59.6733 192.528 59.52L193.028 58.6C193.154 58.7133 193.298 58.8033 193.458 58.87C193.618 58.9367 193.781 58.97 193.948 58.97C194.174 58.97 194.358 58.9133 194.498 58.8C194.638 58.6867 194.768 58.4967 194.888 58.23L195.198 57.53L195.298 57.38L197.318 52.66H198.518L196.018 58.43C195.851 58.83 195.664 59.1467 195.458 59.38C195.258 59.6133 195.031 59.7767 194.778 59.87C194.531 59.9633 194.258 60.01 193.958 60.01ZM195.058 58.19L192.648 52.66H193.948L195.908 57.27L195.058 58.19ZM202.46 58V56.92L202.39 56.69V54.8C202.39 54.4333 202.28 54.15 202.06 53.95C201.84 53.7433 201.507 53.64 201.06 53.64C200.76 53.64 200.463 53.6867 200.17 53.78C199.883 53.8733 199.64 54.0033 199.44 54.17L198.95 53.26C199.237 53.04 199.577 52.8767 199.97 52.77C200.37 52.6567 200.783 52.6 201.21 52.6C201.983 52.6 202.58 52.7867 203 53.16C203.427 53.5267 203.64 54.0967 203.64 54.87V58H202.46ZM200.78 58.07C200.38 58.07 200.03 58.0033 199.73 57.87C199.43 57.73 199.197 57.54 199.03 57.3C198.87 57.0533 198.79 56.7767 198.79 56.47C198.79 56.17 198.86 55.9 199 55.66C199.147 55.42 199.383 55.23 199.71 55.09C200.037 54.95 200.47 54.88 201.01 54.88H202.56V55.71H201.1C200.673 55.71 200.387 55.78 200.24 55.92C200.093 56.0533 200.02 56.22 200.02 56.42C200.02 56.6467 200.11 56.8267 200.29 56.96C200.47 57.0933 200.72 57.16 201.04 57.16C201.347 57.16 201.62 57.09 201.86 56.95C202.107 56.81 202.283 56.6033 202.39 56.33L202.6 57.08C202.48 57.3933 202.263 57.6367 201.95 57.81C201.643 57.9833 201.253 58.07 200.78 58.07ZM204.407 57.99L204.467 56.94C204.513 56.9467 204.557 56.9533 204.597 56.96C204.637 56.9667 204.673 56.97 204.707 56.97C204.913 56.97 205.073 56.9067 205.187 56.78C205.3 56.6533 205.383 56.4833 205.437 56.27C205.497 56.05 205.537 55.8067 205.557 55.54C205.583 55.2667 205.603 54.9933 205.617 54.72L205.707 52.66H210.027V58H208.777V53.38L209.067 53.72H206.527L206.797 53.37L206.727 54.78C206.707 55.2533 206.667 55.6933 206.607 56.1C206.553 56.5 206.467 56.85 206.347 57.15C206.233 57.45 206.073 57.6833 205.867 57.85C205.667 58.0167 205.41 58.1 205.097 58.1C204.997 58.1 204.887 58.09 204.767 58.07C204.653 58.05 204.533 58.0233 204.407 57.99ZM214.39 54.42C215.077 54.42 215.6 54.5733 215.96 54.88C216.32 55.1867 216.5 55.62 216.5 56.18C216.5 56.76 216.3 57.2133 215.9 57.54C215.5 57.86 214.937 58.0167 214.21 58.01L211.71 58V52.66H212.96V54.41L214.39 54.42ZM214.1 57.09C214.467 57.0967 214.747 57.02 214.94 56.86C215.133 56.7 215.23 56.4667 215.23 56.16C215.23 55.8533 215.133 55.6333 214.94 55.5C214.753 55.36 214.473 55.2867 214.1 55.28L212.96 55.27V57.08L214.1 57.09ZM217.599 58V52.66H218.849V54.83H221.539V52.66H222.789V58H221.539V55.89H218.849V58H217.599ZM229.854 58V52.66H231.104V58H229.854ZM227.064 54.42C227.751 54.42 228.271 54.5733 228.624 54.88C228.984 55.1867 229.164 55.62 229.164 56.18C229.164 56.76 228.964 57.2133 228.564 57.54C228.171 57.86 227.611 58.0167 226.884 58.01L224.464 58V52.66H225.714V54.41L227.064 54.42ZM226.774 57.09C227.141 57.0967 227.421 57.02 227.614 56.86C227.807 56.7 227.904 56.4667 227.904 56.16C227.904 55.8533 227.807 55.6333 227.614 55.5C227.427 55.36 227.147 55.2867 226.774 55.28L225.714 55.27V57.08L226.774 57.09ZM231.994 58L234.344 54.94L234.324 55.61L232.084 52.66H233.474L235.044 54.76H234.514L236.094 52.66H237.444L235.184 55.61L235.194 54.94L237.534 58H236.124L234.474 55.77L234.994 55.84L233.374 58H231.994ZM177.135 70V64.66H182.255V70H181.015V65.43L181.305 65.72H178.095L178.385 65.43V70H177.135ZM186.902 70.07C186.468 70.07 186.072 69.97 185.712 69.77C185.358 69.57 185.075 69.27 184.862 68.87C184.655 68.4633 184.552 67.95 184.552 67.33C184.552 66.7033 184.652 66.19 184.852 65.79C185.058 65.39 185.338 65.0933 185.692 64.9C186.045 64.7 186.448 64.6 186.902 64.6C187.428 64.6 187.892 64.7133 188.292 64.94C188.698 65.1667 189.018 65.4833 189.252 65.89C189.492 66.2967 189.612 66.7767 189.612 67.33C189.612 67.8833 189.492 68.3667 189.252 68.78C189.018 69.1867 188.698 69.5033 188.292 69.73C187.892 69.9567 187.428 70.07 186.902 70.07ZM183.942 71.94V64.66H185.132V65.92L185.092 67.34L185.192 68.76V71.94H183.942ZM186.762 69C187.062 69 187.328 68.9333 187.562 68.8C187.802 68.6667 187.992 68.4733 188.132 68.22C188.272 67.9667 188.342 67.67 188.342 67.33C188.342 66.9833 188.272 66.6867 188.132 66.44C187.992 66.1867 187.802 65.9933 187.562 65.86C187.328 65.7267 187.062 65.66 186.762 65.66C186.462 65.66 186.192 65.7267 185.952 65.86C185.712 65.9933 185.522 66.1867 185.382 66.44C185.242 66.6867 185.172 66.9833 185.172 67.33C185.172 67.67 185.242 67.9667 185.382 68.22C185.522 68.4733 185.712 68.6667 185.952 68.8C186.192 68.9333 186.462 69 186.762 69ZM193.236 70.07C192.689 70.07 192.202 69.9533 191.776 69.72C191.349 69.48 191.012 69.1533 190.766 68.74C190.519 68.3267 190.396 67.8567 190.396 67.33C190.396 66.7967 190.519 66.3267 190.766 65.92C191.012 65.5067 191.349 65.1833 191.776 64.95C192.202 64.7167 192.689 64.6 193.236 64.6C193.789 64.6 194.279 64.7167 194.706 64.95C195.139 65.1833 195.476 65.5033 195.716 65.91C195.962 66.3167 196.086 66.79 196.086 67.33C196.086 67.8567 195.962 68.3267 195.716 68.74C195.476 69.1533 195.139 69.48 194.706 69.72C194.279 69.9533 193.789 70.07 193.236 70.07ZM193.236 69C193.542 69 193.816 68.9333 194.056 68.8C194.296 68.6667 194.482 68.4733 194.616 68.22C194.756 67.9667 194.826 67.67 194.826 67.33C194.826 66.9833 194.756 66.6867 194.616 66.44C194.482 66.1867 194.296 65.9933 194.056 65.86C193.816 65.7267 193.546 65.66 193.246 65.66C192.939 65.66 192.666 65.7267 192.426 65.86C192.192 65.9933 192.006 66.1867 191.866 66.44C191.726 66.6867 191.656 66.9833 191.656 67.33C191.656 67.67 191.726 67.9667 191.866 68.22C192.006 68.4733 192.192 68.6667 192.426 68.8C192.666 68.9333 192.936 69 193.236 69ZM200.71 70.1C200.704 70.1 200.674 70.1 200.62 70.1C200.574 70.1 200.527 70.1 200.48 70.1C200.44 70.1 200.414 70.1 200.4 70.1C199.274 70.0867 198.4 69.8433 197.78 69.37C197.16 68.89 196.85 68.2067 196.85 67.32C196.85 66.44 197.16 65.7667 197.78 65.3C198.4 64.8333 199.284 64.5933 200.43 64.58C200.444 64.58 200.47 64.58 200.51 64.58C200.557 64.58 200.6 64.58 200.64 64.58C200.687 64.58 200.714 64.58 200.72 64.58C201.874 64.58 202.77 64.8167 203.41 65.29C204.057 65.7567 204.38 66.4333 204.38 67.32C204.38 68.2133 204.057 68.9 203.41 69.38C202.77 69.86 201.87 70.1 200.71 70.1ZM200.67 69.06C201.237 69.06 201.704 68.9967 202.07 68.87C202.437 68.7367 202.71 68.5433 202.89 68.29C203.07 68.03 203.16 67.7067 203.16 67.32C203.16 66.94 203.07 66.6267 202.89 66.38C202.71 66.1267 202.437 65.94 202.07 65.82C201.704 65.6933 201.237 65.63 200.67 65.63C200.657 65.63 200.624 65.63 200.57 65.63C200.524 65.63 200.494 65.63 200.48 65.63C199.927 65.63 199.474 65.6967 199.12 65.83C198.767 65.9567 198.504 66.1433 198.33 66.39C198.164 66.6367 198.08 66.9467 198.08 67.32C198.08 67.7 198.164 68.0167 198.33 68.27C198.504 68.5233 198.767 68.7167 199.12 68.85C199.48 68.9833 199.934 69.0533 200.48 69.06C200.494 69.06 200.524 69.06 200.57 69.06C200.624 69.06 200.657 69.06 200.67 69.06ZM200.02 71.94V62.58H201.2V71.94H200.02ZM208.082 70.07C207.489 70.07 206.969 69.9533 206.522 69.72C206.082 69.48 205.739 69.1533 205.492 68.74C205.252 68.3267 205.132 67.8567 205.132 67.33C205.132 66.7967 205.249 66.3267 205.482 65.92C205.722 65.5067 206.049 65.1833 206.462 64.95C206.882 64.7167 207.359 64.6 207.892 64.6C208.412 64.6 208.875 64.7133 209.282 64.94C209.689 65.1667 210.009 65.4867 210.242 65.9C210.475 66.3133 210.592 66.8 210.592 67.36C210.592 67.4133 210.589 67.4733 210.582 67.54C210.582 67.6067 210.579 67.67 210.572 67.73H206.122V66.9H209.912L209.422 67.16C209.429 66.8533 209.365 66.5833 209.232 66.35C209.099 66.1167 208.915 65.9333 208.682 65.8C208.455 65.6667 208.192 65.6 207.892 65.6C207.585 65.6 207.315 65.6667 207.082 65.8C206.855 65.9333 206.675 66.12 206.542 66.36C206.415 66.5933 206.352 66.87 206.352 67.19V67.39C206.352 67.71 206.425 67.9933 206.572 68.24C206.719 68.4867 206.925 68.6767 207.192 68.81C207.459 68.9433 207.765 69.01 208.112 69.01C208.412 69.01 208.682 68.9633 208.922 68.87C209.162 68.7767 209.375 68.63 209.562 68.43L210.232 69.2C209.992 69.48 209.689 69.6967 209.322 69.85C208.962 69.9967 208.549 70.07 208.082 70.07ZM214.389 70.07C213.829 70.07 213.329 69.9533 212.889 69.72C212.456 69.48 212.116 69.1533 211.869 68.74C211.622 68.3267 211.499 67.8567 211.499 67.33C211.499 66.7967 211.622 66.3267 211.869 65.92C212.116 65.5067 212.456 65.1833 212.889 64.95C213.329 64.7167 213.829 64.6 214.389 64.6C214.909 64.6 215.366 64.7067 215.759 64.92C216.159 65.1267 216.462 65.4333 216.669 65.84L215.709 66.4C215.549 66.1467 215.352 65.96 215.119 65.84C214.892 65.72 214.646 65.66 214.379 65.66C214.072 65.66 213.796 65.7267 213.549 65.86C213.302 65.9933 213.109 66.1867 212.969 66.44C212.829 66.6867 212.759 66.9833 212.759 67.33C212.759 67.6767 212.829 67.9767 212.969 68.23C213.109 68.4767 213.302 68.6667 213.549 68.8C213.796 68.9333 214.072 69 214.379 69C214.646 69 214.892 68.94 215.119 68.82C215.352 68.7 215.549 68.5133 215.709 68.26L216.669 68.82C216.462 69.22 216.159 69.53 215.759 69.75C215.366 69.9633 214.909 70.07 214.389 70.07ZM220.122 70.07C219.562 70.07 219.062 69.9533 218.622 69.72C218.188 69.48 217.848 69.1533 217.602 68.74C217.355 68.3267 217.232 67.8567 217.232 67.33C217.232 66.7967 217.355 66.3267 217.602 65.92C217.848 65.5067 218.188 65.1833 218.622 64.95C219.062 64.7167 219.562 64.6 220.122 64.6C220.642 64.6 221.098 64.7067 221.492 64.92C221.892 65.1267 222.195 65.4333 222.402 65.84L221.442 66.4C221.282 66.1467 221.085 65.96 220.852 65.84C220.625 65.72 220.378 65.66 220.112 65.66C219.805 65.66 219.528 65.7267 219.282 65.86C219.035 65.9933 218.842 66.1867 218.702 66.44C218.562 66.6867 218.492 66.9833 218.492 67.33C218.492 67.6767 218.562 67.9767 218.702 68.23C218.842 68.4767 219.035 68.6667 219.282 68.8C219.528 68.9333 219.805 69 220.112 69C220.378 69 220.625 68.94 220.852 68.82C221.085 68.7 221.282 68.5133 221.442 68.26L222.402 68.82C222.195 69.22 221.892 69.53 221.492 69.75C221.098 69.9633 220.642 70.07 220.122 70.07ZM223.502 70V64.66H224.752V68.18L227.702 64.66H228.842V70H227.592V66.48L224.652 70H223.502ZM230.524 70V64.66H231.774V68.18L234.724 64.66H235.864V70H234.614V66.48L231.674 70H230.524ZM233.114 64.03C232.58 64.03 232.17 63.9067 231.884 63.66C231.597 63.4067 231.45 63.04 231.444 62.56H232.274C232.28 62.8 232.354 62.99 232.494 63.13C232.64 63.27 232.844 63.34 233.104 63.34C233.357 63.34 233.557 63.27 233.704 63.13C233.857 62.99 233.937 62.8 233.944 62.56H234.794C234.787 63.04 234.637 63.4067 234.344 63.66C234.057 63.9067 233.647 64.03 233.114 64.03Z" fill="white" fill-opacity="0.6"/>
<path d="M529.5 111.5L551 113" stroke="#36BA6B" stroke-opacity="0.2"/>
<path d="M294.5 132.5L357.993 132.5" stroke="#36BA6B" stroke-opacity="0.2"/>
<path d="M308.774 242.774H344.394V278.394H308.774V242.774Z" stroke="white" stroke-opacity="0.6" stroke-width="1.54867"/>
<path d="M314.195 272.975H320.39V266.78H326.585V260.585H332.779V254.391H338.974" stroke="white" stroke-opacity="0.6" stroke-width="3.09734" stroke-linecap="round" stroke-linejoin="round"/>
<path d="M325.036 248.195L314.195 259.036M314.195 259.036V252.841M314.195 259.036H320.39" stroke="white" stroke-opacity="0.6" stroke-width="3.09734" stroke-linecap="round" stroke-linejoin="round"/>
<path d="M670.774 242.774H706.394V278.394H670.774V242.774Z" stroke="white" stroke-opacity="0.6" stroke-width="1.54867"/>
<path d="M676.195 272.975H682.39V266.78H688.585V260.585H694.779V254.391H700.974" stroke="white" stroke-opacity="0.6" stroke-width="3.09734" stroke-linecap="round" stroke-linejoin="round"/>
<path d="M687.036 248.195L676.195 259.036M676.195 259.036V252.841M676.195 259.036H682.39" stroke="white" stroke-opacity="0.6" stroke-width="3.09734" stroke-linecap="round" stroke-linejoin="round"/>
</svg>
