<svg width="1038" height="309" viewBox="0 0 1038 309" fill="none" xmlns="http://www.w3.org/2000/svg">
<rect width="1038" height="309" rx="18" fill="#12141C"/>
<path d="M427.075 245.182C427.075 245.807 427.464 246.196 428.089 246.196C428.715 246.196 429.103 245.807 429.103 245.182V235.802H430.117V245.182C430.117 245.806 430.506 246.196 431.131 246.196C431.756 246.196 432.145 245.807 432.145 245.182V229.211H432.652V234.947C432.652 236.162 434.176 236.162 434.173 234.947V228.786C434.173 227.444 433.207 226.676 431.638 226.676H427.582C426.152 226.676 425.047 227.294 425.047 228.748V235.295C425.047 236.309 426.568 236.309 426.568 235.295V229.211H427.075V245.182Z" fill="white" fill-opacity="0.5"/>
<path d="M429.546 225.792C430.702 225.792 431.638 224.856 431.638 223.701C431.638 222.546 430.702 221.609 429.546 221.609C428.391 221.609 427.455 222.546 427.455 223.701C427.455 224.856 428.391 225.792 429.546 225.792Z" fill="white" fill-opacity="0.5"/>
<path d="M442.222 225.792C443.377 225.792 444.314 224.856 444.314 223.701C444.314 222.546 443.377 221.609 442.222 221.609C441.067 221.609 440.131 222.546 440.131 223.701C440.131 224.856 441.067 225.792 442.222 225.792Z" fill="white" fill-opacity="0.5"/>
<path d="M447.312 237.577L444.316 229.344L444.299 229.26C444.299 229.139 444.4 229.042 444.525 229.042C444.632 229.042 444.722 229.114 444.746 229.209L446.783 234.535C446.918 234.839 447.475 235.042 447.841 235.042C448.33 235.042 448.381 234.081 448.37 234.028L446.333 228.903C446.156 227.726 444.968 226.676 443.612 226.676H440.958C439.601 226.676 438.325 227.726 438.148 228.903L436.202 234.091C436.158 234.192 436.202 235.074 436.732 235.074C437.143 235.074 437.69 234.914 437.789 234.551L439.754 229.195C439.785 229.111 439.87 229.047 439.968 229.047C440.093 229.047 440.194 229.142 440.194 229.262L440.18 229.338L437.261 237.578C437.254 237.602 437.261 238.186 437.261 238.211C437.261 238.387 437.684 238.845 437.868 238.845H439.751V245.231C439.751 245.758 440.215 246.197 440.765 246.197C441.315 246.197 441.779 245.758 441.779 245.231V238.586C441.779 238.443 442.793 238.447 442.793 238.591V245.182C442.793 245.71 443.258 246.196 443.807 246.196C444.358 246.196 444.821 245.709 444.821 245.182V238.844H446.783C446.966 238.844 447.312 238.386 447.312 238.211C447.312 238.17 447.327 237.612 447.312 237.577Z" fill="white" fill-opacity="0.5"/>
<circle opacity="0.4" cx="436.5" cy="233.5" r="17.5" fill="#EAA360"/>
<path d="M331.774 241.774H367.394V277.394H331.774V241.774Z" stroke="white" stroke-opacity="0.6" stroke-width="1.54867"/>
<path d="M337.195 271.975H343.39V265.78H349.585V259.585H355.779V253.391H361.974" stroke="white" stroke-opacity="0.6" stroke-width="3.09734" stroke-linecap="round" stroke-linejoin="round"/>
<path d="M337.194 258.035L348.035 247.194M348.035 247.194V253.389M348.035 247.194H341.84" stroke="white" stroke-opacity="0.6" stroke-width="3.09734" stroke-linecap="round" stroke-linejoin="round"/>
<path d="M693.774 241.774H729.394V277.394H693.774V241.774Z" stroke="white" stroke-opacity="0.6" stroke-width="1.54867"/>
<path d="M699.195 271.975H705.39V265.78H711.585V259.585H717.779V253.391H723.974" stroke="white" stroke-opacity="0.6" stroke-width="3.09734" stroke-linecap="round" stroke-linejoin="round"/>
<path d="M699.194 258.035L710.035 247.194M710.035 247.194V253.389M710.035 247.194H703.84" stroke="white" stroke-opacity="0.6" stroke-width="3.09734" stroke-linecap="round" stroke-linejoin="round"/>
<rect x="223" y="19" width="93" height="111" fill="#36BA6B" fill-opacity="0.1"/>
<rect x="384" y="18" width="103" height="112" fill="#36BA6B" fill-opacity="0.1"/>
<rect x="487" y="18" width="140" height="112" fill="#36BA6B" fill-opacity="0.1"/>
<rect x="740" y="19" width="179" height="113" fill="#EAA360" fill-opacity="0.1"/>
<rect x="628" y="19" width="54" height="112" fill="#36BA6B" fill-opacity="0.1"/>
<path d="M20 19H223V86H20V19Z" fill="#36BA6B" fill-opacity="0.1"/>
<path d="M20 86H132L132.5 132H124.5V153.5V176.5H132.5L132 222H20V86Z" fill="#36BA6B" fill-opacity="0.1"/>
<rect x="20" y="222" width="203" height="69" fill="#36BA6B" fill-opacity="0.1"/>
<rect x="223" y="176" width="93" height="115" fill="#36BA6B" fill-opacity="0.1"/>
<path d="M625 289V179.5H638.5" stroke="#EAA360" stroke-opacity="0.2"/>
<path d="M638.5 179.5H679M688 179.5H679M679 179.5V289" stroke="#EAA360" stroke-opacity="0.2"/>
<path d="M741 170V177M741 289.5V278V177M741 177H732H754" stroke="#36BA6B" stroke-opacity="0.2"/>
<path d="M772.5 177H832M851 177H832M832 177V289.5" stroke="#36BA6B" stroke-opacity="0.2"/>
<path d="M870 176H1019" stroke="#36BA6B" stroke-opacity="0.2"/>
<path d="M919 141.999V132.5M919 32.5V132.5M919 132.5H889.5" stroke="#EAA360" stroke-opacity="0.2"/>
<path d="M919 32.5V19" stroke="#36BA6B" stroke-opacity="0.2"/>
<path d="M889.5 132.5H801.5M776 132.5H801.5M801.5 132.5V96.5H781.5" stroke="#EAA360" stroke-opacity="0.2"/>
<path d="M781.5 96.5H740V139.5" stroke="#EAA360" stroke-opacity="0.2"/>
<path d="M776 132.5H735" stroke="#36BA6B" stroke-opacity="0.2"/>
<path d="M740 96V19" stroke="#EAA360" stroke-opacity="0.2"/>
<path d="M20 86H132.5M176 86H132.5M132.5 86V121" stroke="#36BA6B" stroke-opacity="0.2"/>
<path d="M176 86H223" stroke="#36BA6B" stroke-opacity="0.2"/>
<path d="M204 221.5H132.5M20 221.5H132.5M132.5 221.5V213.5" stroke="#36BA6B" stroke-opacity="0.2"/>
<path d="M204 221.5H223V178.515V176V291" stroke="#36BA6B" stroke-opacity="0.2"/>
<path d="M316 291V176.5H325.5" stroke="#36BA6B" stroke-opacity="0.2"/>
<path d="M373.5 177.5H382V290" stroke="#EAA360" stroke-opacity="0.2"/>
<path d="M380 177.5H424" stroke="#EAA360" stroke-opacity="0.2"/>
<path d="M424 177.5H490V290" stroke="#EAA360" stroke-opacity="0.2"/>
<path d="M624.492 216H595V179.5H624.5" stroke="#EAA360" stroke-opacity="0.2"/>
<path d="M535 290V251H490" stroke="#EAA360" stroke-opacity="0.2"/>
<path d="M223 129.856L223 87.6147L223 84.0826L223 20" stroke="#36BA6B" stroke-opacity="0.2"/>
<path d="M132.5 213.5V176.5H124.5V132H132.5V121" stroke="#36BA6B" stroke-opacity="0.2"/>
<path d="M316 132.921V130.868M316 19V130.355M316 130.355H222.5H326H316ZM316 130.355V130.868M316 136V130.868" stroke="#36BA6B" stroke-opacity="0.2"/>
<path d="M383.5 66.5V135" stroke="#36BA6B" stroke-opacity="0.2"/>
<path d="M383.5 18L383.5 66.5" stroke="#36BA6B" stroke-opacity="0.2"/>
<path d="M373.5 130.501H487M613.5 130.501H487M487 130.501V19" stroke="#36BA6B" stroke-opacity="0.2"/>
<path d="M613.5 130.5H664" stroke="#36BA6B" stroke-opacity="0.2"/>
<path d="M627.5 130.001V19" stroke="#36BA6B" stroke-opacity="0.2"/>
<path d="M664 130.5H693" stroke="#36BA6B" stroke-opacity="0.2"/>
<path d="M682 64.5V130" stroke="#36BA6B" stroke-opacity="0.2"/>
<path d="M681.5 77.5H667" stroke="#36BA6B" stroke-opacity="0.2"/>
<path d="M667 77.5H628" stroke="#36BA6B" stroke-opacity="0.2"/>
<path d="M682 19V64.4997" stroke="#36BA6B" stroke-opacity="0.2"/>
<path d="M919 171V176" stroke="#36BA6B" stroke-opacity="0.2"/>
<rect x="382" y="178" width="108" height="112" fill="#EAA360" fill-opacity="0.1"/>
<rect x="490" y="251" width="45" height="39" fill="#EAA360" fill-opacity="0.1"/>
<rect x="595" y="180" width="30" height="36" fill="#EAA360" fill-opacity="0.1"/>
<rect x="625" y="180" width="54" height="109" fill="#EAA360" fill-opacity="0.1"/>
<path d="M316.5 291.5L20.0002 291.5" stroke="#36BA6B" stroke-opacity="0.2"/>
<path d="M1019 290L740.5 290" stroke="#36BA6B" stroke-opacity="0.2"/>
<path d="M740 19L19.9789 18.5" stroke="#36BA6B" stroke-opacity="0.2"/>
<path fill-rule="evenodd" clip-rule="evenodd" d="M269.145 244.399H266.513C265.771 244.399 265.169 243.824 265.169 243.115V243.101C265.169 242.391 265.771 241.816 266.513 241.816H273.487C274.23 241.816 274.831 242.391 274.831 243.101V243.115C274.831 243.824 274.229 244.399 273.487 244.399H270.855V249.374H271.34C271.809 249.374 272.191 249.738 272.191 250.187C272.191 250.637 271.809 251 271.34 251H268.66C268.191 251 267.81 250.637 267.81 250.187C267.81 249.738 268.191 249.374 268.66 249.374H269.145L269.145 244.399ZM261.312 247.745C261.148 247.639 261.023 247.481 260.963 247.291L259.037 241.16C258.898 240.716 259.162 240.247 259.627 240.114C260.092 239.981 260.582 240.233 260.721 240.677L262.459 246.21H266.031C266.516 246.21 266.91 246.586 266.91 247.05C266.91 247.513 266.516 247.89 266.031 247.89H265.872V250.523C265.872 250.77 265.662 250.971 265.403 250.971C265.144 250.971 264.933 250.77 264.933 250.523V247.89H262.251V250.523C262.251 250.77 262.04 250.971 261.781 250.971C261.522 250.971 261.312 250.77 261.312 250.523L261.312 247.745ZM274.128 247.889H273.969C273.484 247.889 273.09 247.513 273.09 247.049C273.09 246.586 273.484 246.21 273.969 246.21H277.541L279.279 240.677C279.418 240.233 279.908 239.981 280.373 240.114C280.838 240.247 281.102 240.716 280.963 241.159L279.037 247.291C278.978 247.481 278.852 247.639 278.688 247.745V250.523C278.688 250.77 278.478 250.971 278.219 250.971C277.96 250.971 277.749 250.77 277.749 250.523V247.889H275.067V250.523C275.067 250.77 274.856 250.971 274.597 250.971C274.338 250.971 274.128 250.77 274.128 250.523L274.128 247.889ZM270.855 240.941V236.989H269.145V240.941H270.855ZM279.393 236.114H260.607C260.184 236.114 259.813 235.844 259.702 235.454C259.59 235.065 259.765 234.652 260.128 234.446L269.521 229.125C269.816 228.958 270.184 228.958 270.479 229.125L279.872 234.446C280.235 234.652 280.41 235.065 280.298 235.454C280.186 235.844 279.816 236.114 279.393 236.114H279.393Z" fill="white" fill-opacity="0.6"/>
<circle opacity="0.4" cx="269.5" cy="239.5" r="17.5" fill="#36BA6B"/>
<circle opacity="0.4" cx="436.5" cy="77.5" r="17.5" fill="#36BA6B"/>
<path opacity="0.6" d="M446.954 81.4627L437.857 75.3273V74.8665C437.857 74.5943 437.987 74.3748 438.265 74.1769C438.3 74.1523 438.34 74.1259 438.385 74.0963C438.827 73.8046 439.747 73.198 439.747 71.8303C439.747 70.4097 438.66 69.3198 437.608 69.0862C436.501 68.8386 435.497 69.129 434.843 69.9017C434.247 70.6041 434.079 71.1891 434.044 72.1391C434.041 72.2078 434.04 72.3558 434.038 72.5004C434.036 72.7 434.402 72.8622 434.854 72.8622H435.018C435.469 72.8622 435.836 72.701 435.837 72.5015C435.838 72.3367 435.839 72.171 435.84 72.1396C435.865 71.4844 436.029 71.0989 436.65 70.9637C437.036 70.88 437.453 70.9964 437.697 71.2541C437.808 71.3704 437.867 71.5722 437.85 71.7807C437.84 71.9196 437.785 72.1795 437.541 72.36L436.762 72.9314C436.265 73.2742 436.053 73.6845 436.053 74.3026V75.3288L427.047 81.4411C425.713 82.3276 425.989 83.8394 426.105 84.2817C426.212 84.6849 426.698 86 428.466 86H445.646C446.896 86 447.686 85.125 447.917 84.2569C448.155 83.3493 447.897 82.061 446.954 81.4626L446.954 81.4627ZM446.03 83.598C445.987 83.7601 445.847 83.935 445.621 83.935H445.62H428.445C428.207 83.9341 428.073 83.7658 428.03 83.6222C427.976 83.4376 428.046 83.249 428.208 83.1252L437.011 77.192L445.862 83.1501C446.081 83.2976 446.052 83.5121 446.03 83.5977L446.03 83.598Z" fill="white" fill-opacity="0.6"/>
<path d="M74.4825 147C71.9676 147 69.5558 147.999 67.7773 149.777C65.9989 151.556 65 153.968 65 156.483C65 158.998 65.999 161.41 67.7773 163.188C69.5556 164.967 71.9676 165.966 74.4825 165.966C76.9974 165.966 79.4092 164.967 81.1876 163.188C82.9661 161.41 83.9651 158.998 83.9651 156.483C83.9651 153.968 82.9661 151.556 81.1876 149.777C79.4094 147.999 76.9976 147 74.4825 147ZM78.2376 151.119C78.4508 150.906 78.7403 150.785 79.0422 150.785C79.3439 150.785 79.6335 150.905 79.847 151.119C80.0606 151.332 80.1805 151.622 80.1805 151.923C80.1805 152.225 80.0606 152.515 79.847 152.728C79.6335 152.942 79.3439 153.061 79.0422 153.061C78.7403 153.061 78.4508 152.941 78.2376 152.728C78.0243 152.514 77.9046 152.225 77.9046 151.923C77.9046 151.622 78.0243 151.333 78.2376 151.119ZM66.8962 156.483C66.8962 156.181 67.0161 155.891 67.2296 155.678C67.4428 155.465 67.7323 155.345 68.0342 155.345C68.3359 155.345 68.6254 155.465 68.8388 155.678C69.052 155.891 69.1719 156.181 69.1719 156.483C69.1719 156.784 69.052 157.074 68.8388 157.287C68.6254 157.5 68.3359 157.62 68.0342 157.62C67.7323 157.62 67.4428 157.5 67.2296 157.287C67.0161 157.074 66.8962 156.784 66.8962 156.483ZM70.7272 161.846C70.5137 162.06 70.2244 162.18 69.9226 162.18C69.6207 162.18 69.331 162.06 69.1176 161.847C68.9041 161.633 68.7841 161.344 68.7841 161.042C68.7841 160.74 68.9041 160.451 69.1176 160.237C69.331 160.024 69.6207 159.904 69.9226 159.904C70.2245 159.904 70.5138 160.024 70.7272 160.238C70.9402 160.451 71.0599 160.74 71.0599 161.042C71.0599 161.343 70.9402 161.633 70.7272 161.846V161.846ZM70.7272 152.743C70.5137 152.956 70.2244 153.076 69.9226 153.076C69.6207 153.076 69.331 152.957 69.1176 152.743C68.9041 152.53 68.7841 152.24 68.7841 151.938C68.7841 151.637 68.9041 151.347 69.1176 151.134C69.331 150.92 69.6207 150.8 69.9226 150.8C70.2245 150.801 70.5138 150.921 70.7272 151.134C70.9357 151.347 71.0524 151.633 71.0524 151.931C71.0524 152.229 70.9357 152.515 70.7272 152.727V152.743ZM74.4823 164.069C74.1804 164.069 73.8909 163.949 73.6777 163.736C73.4642 163.522 73.3443 163.233 73.3443 162.931C73.3443 162.629 73.4642 162.34 73.6777 162.126C73.8909 161.913 74.1804 161.793 74.4823 161.793C74.784 161.793 75.0735 161.913 75.2869 162.126C75.5001 162.34 75.62 162.629 75.62 162.931C75.62 163.233 75.5001 163.522 75.2869 163.736C75.0734 163.949 74.784 164.069 74.4823 164.069ZM74.4823 151.172C74.1804 151.172 73.8909 151.052 73.6777 150.839C73.4642 150.626 73.3443 150.336 73.3443 150.034C73.3443 149.732 73.4642 149.443 73.6777 149.23C73.8909 149.016 74.1804 148.896 74.4823 148.896C74.784 148.896 75.0735 149.016 75.2869 149.23C75.5001 149.443 75.62 149.733 75.62 150.034C75.62 150.336 75.5001 150.626 75.2869 150.839C75.0734 151.052 74.784 151.172 74.4823 151.172ZM79.8455 161.846C79.6323 162.06 79.3428 162.18 79.0409 162.18C78.739 162.18 78.4496 162.06 78.2359 161.847C78.0225 161.633 77.9026 161.344 77.9026 161.042C77.9026 160.74 78.0225 160.451 78.2359 160.237C78.4496 160.024 78.739 159.904 79.0409 159.904C79.3428 159.904 79.6323 160.024 79.8455 160.238C80.0586 160.451 80.1783 160.74 80.1783 161.042C80.1783 161.343 80.0586 161.633 79.8455 161.846V161.846ZM80.9304 157.62C80.6285 157.62 80.3392 157.501 80.1258 157.287C79.9124 157.074 79.7925 156.784 79.7925 156.483C79.7925 156.181 79.9124 155.891 80.1258 155.678C80.3392 155.465 80.6286 155.345 80.9304 155.345C81.2321 155.345 81.5216 155.465 81.735 155.678C81.9483 155.891 82.0682 156.181 82.0682 156.483C82.0682 156.784 81.9483 157.074 81.735 157.287C81.5216 157.501 81.2321 157.62 80.9304 157.62Z" fill="white" fill-opacity="0.6"/>
<path d="M85.4819 165.208C86.171 166.391 86.6822 167.669 86.9991 169.001C84.7234 167.184 80.6915 166.456 77.8164 166.164C79.8055 165.48 81.5342 164.197 82.7662 162.492C84.3154 162.791 85.7685 163.462 86.9994 164.449L85.4819 165.208Z" fill="white" fill-opacity="0.6"/>
<circle opacity="0.4" cx="75.5" cy="157.5" r="17.5" fill="#36BA6B"/>
<circle opacity="0.4" cx="124.5" cy="256.5" r="17.5" fill="#36BA6B"/>
<g opacity="0.6">
<path d="M118.773 260.667C118.773 261 118 264 118 264H121L122.318 258.333L123.136 262.667L126.409 258.667L126 264H128.5L131.182 253L129 250L125.045 255.333L123.955 250H119.318L120.682 252C120.682 252 118.781 260.26 118.773 260.667Z" fill="white"/>
<path d="M118.773 260.667H117.182L116.5 264H113.5L114.182 260.667H112.273L112 260L113.364 251.667L112.273 250H116.636L115.273 257.667H117.182L118.545 250H119.318M118.773 260.667C118.773 261 118 264 118 264H121L122.318 258.333L123.136 262.667L126.409 258.667L126 264H128.5L131.182 253M118.773 260.667C118.781 260.26 120.682 252 120.682 252L119.318 250M131.182 253H132.318L130 264H133L135.318 253H135.864V254H138.591L139.682 250H129M131.182 253L129 250M129 250L125.045 255.333L123.955 250H119.318" stroke="white"/>
</g>
<path d="M251.062 197L248.692 193.59L249.742 192.94L252.532 197H251.062ZM246.432 197V190H247.712V197H246.432ZM247.322 194.05V192.93H249.682V194.05H247.322ZM249.862 193.65L248.672 193.49L251.062 190H252.442L249.862 193.65ZM255.586 197.07C255.04 197.07 254.553 196.953 254.126 196.72C253.7 196.48 253.363 196.153 253.116 195.74C252.87 195.327 252.746 194.857 252.746 194.33C252.746 193.797 252.87 193.327 253.116 192.92C253.363 192.507 253.7 192.183 254.126 191.95C254.553 191.717 255.04 191.6 255.586 191.6C256.14 191.6 256.63 191.717 257.056 191.95C257.49 192.183 257.826 192.503 258.066 192.91C258.313 193.317 258.436 193.79 258.436 194.33C258.436 194.857 258.313 195.327 258.066 195.74C257.826 196.153 257.49 196.48 257.056 196.72C256.63 196.953 256.14 197.07 255.586 197.07ZM255.586 196C255.893 196 256.166 195.933 256.406 195.8C256.646 195.667 256.833 195.473 256.966 195.22C257.106 194.967 257.176 194.67 257.176 194.33C257.176 193.983 257.106 193.687 256.966 193.44C256.833 193.187 256.646 192.993 256.406 192.86C256.166 192.727 255.896 192.66 255.596 192.66C255.29 192.66 255.016 192.727 254.776 192.86C254.543 192.993 254.356 193.187 254.216 193.44C254.076 193.687 254.006 193.983 254.006 194.33C254.006 194.67 254.076 194.967 254.216 195.22C254.356 195.473 254.543 195.667 254.776 195.8C255.016 195.933 255.286 196 255.586 196ZM263.061 197.1C263.054 197.1 263.024 197.1 262.971 197.1C262.924 197.1 262.878 197.1 262.831 197.1C262.791 197.1 262.764 197.1 262.751 197.1C261.624 197.087 260.751 196.843 260.131 196.37C259.511 195.89 259.201 195.207 259.201 194.32C259.201 193.44 259.511 192.767 260.131 192.3C260.751 191.833 261.634 191.593 262.781 191.58C262.794 191.58 262.821 191.58 262.861 191.58C262.908 191.58 262.951 191.58 262.991 191.58C263.038 191.58 263.064 191.58 263.071 191.58C264.224 191.58 265.121 191.817 265.761 192.29C266.408 192.757 266.731 193.433 266.731 194.32C266.731 195.213 266.408 195.9 265.761 196.38C265.121 196.86 264.221 197.1 263.061 197.1ZM263.021 196.06C263.588 196.06 264.054 195.997 264.421 195.87C264.788 195.737 265.061 195.543 265.241 195.29C265.421 195.03 265.511 194.707 265.511 194.32C265.511 193.94 265.421 193.627 265.241 193.38C265.061 193.127 264.788 192.94 264.421 192.82C264.054 192.693 263.588 192.63 263.021 192.63C263.008 192.63 262.974 192.63 262.921 192.63C262.874 192.63 262.844 192.63 262.831 192.63C262.278 192.63 261.824 192.697 261.471 192.83C261.118 192.957 260.854 193.143 260.681 193.39C260.514 193.637 260.431 193.947 260.431 194.32C260.431 194.7 260.514 195.017 260.681 195.27C260.854 195.523 261.118 195.717 261.471 195.85C261.831 195.983 262.284 196.053 262.831 196.06C262.844 196.06 262.874 196.06 262.921 196.06C262.974 196.06 263.008 196.06 263.021 196.06ZM262.371 198.94V189.58H263.551V198.94H262.371ZM270.433 197.07C269.839 197.07 269.319 196.953 268.873 196.72C268.433 196.48 268.089 196.153 267.843 195.74C267.603 195.327 267.483 194.857 267.483 194.33C267.483 193.797 267.599 193.327 267.833 192.92C268.073 192.507 268.399 192.183 268.813 191.95C269.233 191.717 269.709 191.6 270.243 191.6C270.763 191.6 271.226 191.713 271.633 191.94C272.039 192.167 272.359 192.487 272.593 192.9C272.826 193.313 272.943 193.8 272.943 194.36C272.943 194.413 272.939 194.473 272.933 194.54C272.933 194.607 272.929 194.67 272.923 194.73H268.473V193.9H272.263L271.773 194.16C271.779 193.853 271.716 193.583 271.583 193.35C271.449 193.117 271.266 192.933 271.033 192.8C270.806 192.667 270.543 192.6 270.243 192.6C269.936 192.6 269.666 192.667 269.433 192.8C269.206 192.933 269.026 193.12 268.893 193.36C268.766 193.593 268.703 193.87 268.703 194.19V194.39C268.703 194.71 268.776 194.993 268.923 195.24C269.069 195.487 269.276 195.677 269.543 195.81C269.809 195.943 270.116 196.01 270.463 196.01C270.763 196.01 271.033 195.963 271.273 195.87C271.513 195.777 271.726 195.63 271.913 195.43L272.583 196.2C272.343 196.48 272.039 196.697 271.673 196.85C271.313 196.997 270.899 197.07 270.433 197.07ZM274.31 197V191.66H275.56V195.18L278.51 191.66H279.65V197H278.4V193.48L275.46 197H274.31ZM276.9 191.03C276.366 191.03 275.956 190.907 275.67 190.66C275.383 190.407 275.236 190.04 275.23 189.56H276.06C276.066 189.8 276.14 189.99 276.28 190.13C276.426 190.27 276.63 190.34 276.89 190.34C277.143 190.34 277.343 190.27 277.49 190.13C277.643 189.99 277.723 189.8 277.73 189.56H278.58C278.573 190.04 278.423 190.407 278.13 190.66C277.843 190.907 277.433 191.03 276.9 191.03ZM281.331 197V191.66H282.581V193.83H285.271V191.66H286.521V197H285.271V194.89H282.581V197H281.331ZM291.586 197V195.18L291.766 195.39H290.166C289.433 195.39 288.856 195.237 288.436 194.93C288.023 194.617 287.816 194.167 287.816 193.58C287.816 192.953 288.036 192.477 288.476 192.15C288.923 191.823 289.516 191.66 290.256 191.66H292.706V197H291.586ZM287.746 197L289.186 194.96H290.466L289.086 197H287.746ZM291.586 194.78V192.38L291.766 192.71H290.296C289.91 192.71 289.61 192.783 289.396 192.93C289.19 193.07 289.086 193.3 289.086 193.62C289.086 194.22 289.476 194.52 290.256 194.52H291.766L291.586 194.78Z" fill="white" fill-opacity="0.6"/>
<path d="M58.4049 191L56.0349 187.59L57.0849 186.94L59.8749 191H58.4049ZM53.7749 191V184H55.0549V191H53.7749ZM54.6649 188.05V186.93H57.0249V188.05H54.6649ZM57.2049 187.65L56.0149 187.49L58.4049 184H59.7849L57.2049 187.65ZM60.7541 191V185.66H62.0041V189.18L64.9541 185.66H66.0941V191H64.8441V187.48L61.9041 191H60.7541ZM67.7755 191V185.66H69.0255V187.83H71.7155V185.66H72.9655V191H71.7155V188.89H69.0255V191H67.7755ZM77.0208 191.07C76.4741 191.07 75.9874 190.953 75.5608 190.72C75.1341 190.48 74.7974 190.153 74.5508 189.74C74.3041 189.327 74.1808 188.857 74.1808 188.33C74.1808 187.797 74.3041 187.327 74.5508 186.92C74.7974 186.507 75.1341 186.183 75.5608 185.95C75.9874 185.717 76.4741 185.6 77.0208 185.6C77.5741 185.6 78.0641 185.717 78.4908 185.95C78.9241 186.183 79.2608 186.503 79.5008 186.91C79.7474 187.317 79.8708 187.79 79.8708 188.33C79.8708 188.857 79.7474 189.327 79.5008 189.74C79.2608 190.153 78.9241 190.48 78.4908 190.72C78.0641 190.953 77.5741 191.07 77.0208 191.07ZM77.0208 190C77.3274 190 77.6008 189.933 77.8408 189.8C78.0808 189.667 78.2674 189.473 78.4008 189.22C78.5408 188.967 78.6108 188.67 78.6108 188.33C78.6108 187.983 78.5408 187.687 78.4008 187.44C78.2674 187.187 78.0808 186.993 77.8408 186.86C77.6008 186.727 77.3308 186.66 77.0308 186.66C76.7241 186.66 76.4508 186.727 76.2108 186.86C75.9774 186.993 75.7908 187.187 75.6508 187.44C75.5108 187.687 75.4408 187.983 75.4408 188.33C75.4408 188.67 75.5108 188.967 75.6508 189.22C75.7908 189.473 75.9774 189.667 76.2108 189.8C76.4508 189.933 76.7208 190 77.0208 190ZM82.7175 191.09C82.3108 191.09 81.9075 191.043 81.5075 190.95C81.1142 190.85 80.7575 190.71 80.4375 190.53L80.7875 189.6C81.0475 189.747 81.3408 189.86 81.6675 189.94C81.9942 190.02 82.3208 190.06 82.6475 190.06C82.9275 190.06 83.1675 190.033 83.3675 189.98C83.5675 189.92 83.7208 189.833 83.8275 189.72C83.9408 189.607 83.9975 189.477 83.9975 189.33C83.9975 189.117 83.9042 188.957 83.7175 188.85C83.5375 188.737 83.2775 188.68 82.9375 188.68H81.9075V187.84H82.8375C83.0508 187.84 83.2308 187.817 83.3775 187.77C83.5308 187.723 83.6475 187.653 83.7275 187.56C83.8075 187.467 83.8475 187.357 83.8475 187.23C83.8475 187.103 83.7975 186.993 83.6975 186.9C83.6042 186.8 83.4675 186.727 83.2875 186.68C83.1075 186.627 82.8908 186.6 82.6375 186.6C82.3708 186.6 82.0942 186.633 81.8075 186.7C81.5275 186.767 81.2408 186.863 80.9475 186.99L80.6275 186.07C80.9675 185.917 81.2975 185.8 81.6175 185.72C81.9442 185.633 82.2675 185.587 82.5875 185.58C83.0742 185.56 83.5075 185.61 83.8875 185.73C84.2675 185.85 84.5675 186.023 84.7875 186.25C85.0075 186.477 85.1175 186.743 85.1175 187.05C85.1175 187.303 85.0375 187.533 84.8775 187.74C84.7242 187.94 84.5108 188.097 84.2375 188.21C83.9708 188.323 83.6642 188.38 83.3175 188.38L83.3575 188.11C83.9508 188.11 84.4175 188.23 84.7575 188.47C85.0975 188.703 85.2675 189.023 85.2675 189.43C85.2675 189.757 85.1575 190.047 84.9375 190.3C84.7175 190.547 84.4142 190.74 84.0275 190.88C83.6475 191.02 83.2108 191.09 82.7175 191.09ZM89.7948 191V189.92L89.7248 189.69V187.8C89.7248 187.433 89.6148 187.15 89.3948 186.95C89.1748 186.743 88.8415 186.64 88.3948 186.64C88.0948 186.64 87.7982 186.687 87.5048 186.78C87.2182 186.873 86.9748 187.003 86.7748 187.17L86.2848 186.26C86.5715 186.04 86.9115 185.877 87.3048 185.77C87.7048 185.657 88.1182 185.6 88.5448 185.6C89.3182 185.6 89.9148 185.787 90.3348 186.16C90.7615 186.527 90.9748 187.097 90.9748 187.87V191H89.7948ZM88.1148 191.07C87.7148 191.07 87.3648 191.003 87.0648 190.87C86.7648 190.73 86.5315 190.54 86.3648 190.3C86.2048 190.053 86.1248 189.777 86.1248 189.47C86.1248 189.17 86.1948 188.9 86.3348 188.66C86.4815 188.42 86.7182 188.23 87.0448 188.09C87.3715 187.95 87.8048 187.88 88.3448 187.88H89.8948V188.71H88.4348C88.0082 188.71 87.7215 188.78 87.5748 188.92C87.4282 189.053 87.3548 189.22 87.3548 189.42C87.3548 189.647 87.4448 189.827 87.6248 189.96C87.8048 190.093 88.0548 190.16 88.3748 190.16C88.6815 190.16 88.9548 190.09 89.1948 189.95C89.4415 189.81 89.6182 189.603 89.7248 189.33L89.9348 190.08C89.8148 190.393 89.5982 190.637 89.2848 190.81C88.9782 190.983 88.5882 191.07 88.1148 191.07ZM91.7416 190.99L91.8016 189.94C91.8483 189.947 91.8916 189.953 91.9316 189.96C91.9716 189.967 92.0083 189.97 92.0416 189.97C92.2483 189.97 92.4083 189.907 92.5216 189.78C92.635 189.653 92.7183 189.483 92.7716 189.27C92.8316 189.05 92.8716 188.807 92.8916 188.54C92.9183 188.267 92.9383 187.993 92.9516 187.72L93.0416 185.66H97.3616V191H96.1116V186.38L96.4016 186.72H93.8616L94.1316 186.37L94.0616 187.78C94.0416 188.253 94.0016 188.693 93.9416 189.1C93.8883 189.5 93.8016 189.85 93.6816 190.15C93.5683 190.45 93.4083 190.683 93.2016 190.85C93.0016 191.017 92.745 191.1 92.4316 191.1C92.3316 191.1 92.2216 191.09 92.1016 191.07C91.9883 191.05 91.8683 191.023 91.7416 190.99Z" fill="white" fill-opacity="0.6"/>
<path d="M95.3873 58L93.0173 54.59L94.0673 53.94L96.8573 58H95.3873ZM90.7573 58V51H92.0373V58H90.7573ZM91.6473 55.05V53.93H94.0073V55.05H91.6473ZM94.1873 54.65L92.9973 54.49L95.3873 51H96.7673L94.1873 54.65ZM100.908 58V56.92L100.838 56.69V54.8C100.838 54.4333 100.728 54.15 100.508 53.95C100.288 53.7433 99.9548 53.64 99.5081 53.64C99.2081 53.64 98.9115 53.6867 98.6181 53.78C98.3315 53.8733 98.0881 54.0033 97.8881 54.17L97.3981 53.26C97.6848 53.04 98.0248 52.8767 98.4181 52.77C98.8181 52.6567 99.2315 52.6 99.6581 52.6C100.431 52.6 101.028 52.7867 101.448 53.16C101.875 53.5267 102.088 54.0967 102.088 54.87V58H100.908ZM99.2281 58.07C98.8281 58.07 98.4781 58.0033 98.1781 57.87C97.8781 57.73 97.6448 57.54 97.4781 57.3C97.3181 57.0533 97.2381 56.7767 97.2381 56.47C97.2381 56.17 97.3081 55.9 97.4481 55.66C97.5948 55.42 97.8315 55.23 98.1581 55.09C98.4848 54.95 98.9181 54.88 99.4581 54.88H101.008V55.71H99.5481C99.1215 55.71 98.8348 55.78 98.6881 55.92C98.5415 56.0533 98.4681 56.22 98.4681 56.42C98.4681 56.6467 98.5581 56.8267 98.7381 56.96C98.9181 57.0933 99.1681 57.16 99.4881 57.16C99.7948 57.16 100.068 57.09 100.308 56.95C100.555 56.81 100.731 56.6033 100.838 56.33L101.048 57.08C100.928 57.3933 100.711 57.6367 100.398 57.81C100.091 57.9833 99.7015 58.07 99.2281 58.07ZM106.185 58.1C105.745 58.1 105.352 58.0333 105.005 57.9C104.658 57.7667 104.358 57.5633 104.105 57.29C103.858 57.01 103.668 56.6567 103.535 56.23C103.402 55.8033 103.335 55.2967 103.335 54.71C103.335 54.2833 103.372 53.8933 103.445 53.54C103.518 53.1867 103.628 52.87 103.775 52.59C103.922 52.3033 104.105 52.05 104.325 51.83C104.552 51.61 104.815 51.4267 105.115 51.28C105.415 51.1333 105.755 51.02 106.135 50.94L108.615 50.41L108.795 51.53L106.545 51.99C106.418 52.0167 106.265 52.0567 106.085 52.11C105.912 52.1567 105.732 52.23 105.545 52.33C105.365 52.4233 105.195 52.56 105.035 52.74C104.882 52.9133 104.755 53.14 104.655 53.42C104.562 53.6933 104.515 54.0367 104.515 54.45C104.515 54.5767 104.518 54.6733 104.525 54.74C104.538 54.8 104.548 54.8667 104.555 54.94C104.568 55.0067 104.575 55.1067 104.575 55.24L104.105 54.75C104.238 54.41 104.422 54.12 104.655 53.88C104.895 53.6333 105.172 53.4467 105.485 53.32C105.805 53.1867 106.152 53.12 106.525 53.12C107.025 53.12 107.468 53.2233 107.855 53.43C108.242 53.6367 108.545 53.9267 108.765 54.3C108.985 54.6733 109.095 55.0967 109.095 55.57C109.095 56.0633 108.975 56.5 108.735 56.88C108.495 57.26 108.155 57.56 107.715 57.78C107.282 57.9933 106.772 58.1 106.185 58.1ZM106.285 57.09C106.585 57.09 106.848 57.0267 107.075 56.9C107.308 56.7667 107.488 56.5867 107.615 56.36C107.748 56.1333 107.815 55.88 107.815 55.6C107.815 55.32 107.748 55.0767 107.615 54.87C107.488 54.6567 107.308 54.4867 107.075 54.36C106.848 54.2333 106.578 54.17 106.265 54.17C105.965 54.17 105.695 54.23 105.455 54.35C105.222 54.47 105.038 54.6367 104.905 54.85C104.778 55.0567 104.715 55.2967 104.715 55.57C104.715 55.85 104.782 56.1067 104.915 56.34C105.048 56.5733 105.232 56.7567 105.465 56.89C105.705 57.0233 105.978 57.09 106.285 57.09ZM110.305 58V52.66H111.555V56.18L114.505 52.66H115.645V58H114.395V54.48L111.455 58H110.305ZM117.326 58V52.66H118.576V54.83H121.266V52.66H122.516V58H121.266V55.89H118.576V58H117.326ZM126.682 58.07C126.088 58.07 125.568 57.9533 125.122 57.72C124.682 57.48 124.338 57.1533 124.092 56.74C123.852 56.3267 123.732 55.8567 123.732 55.33C123.732 54.7967 123.848 54.3267 124.082 53.92C124.322 53.5067 124.648 53.1833 125.062 52.95C125.482 52.7167 125.958 52.6 126.492 52.6C127.012 52.6 127.475 52.7133 127.882 52.94C128.288 53.1667 128.608 53.4867 128.842 53.9C129.075 54.3133 129.192 54.8 129.192 55.36C129.192 55.4133 129.188 55.4733 129.182 55.54C129.182 55.6067 129.178 55.67 129.172 55.73H124.722V54.9H128.512L128.022 55.16C128.028 54.8533 127.965 54.5833 127.832 54.35C127.698 54.1167 127.515 53.9333 127.282 53.8C127.055 53.6667 126.792 53.6 126.492 53.6C126.185 53.6 125.915 53.6667 125.682 53.8C125.455 53.9333 125.275 54.12 125.142 54.36C125.015 54.5933 124.952 54.87 124.952 55.19V55.39C124.952 55.71 125.025 55.9933 125.172 56.24C125.318 56.4867 125.525 56.6767 125.792 56.81C126.058 56.9433 126.365 57.01 126.712 57.01C127.012 57.01 127.282 56.9633 127.522 56.87C127.762 56.7767 127.975 56.63 128.162 56.43L128.832 57.2C128.592 57.48 128.288 57.6967 127.922 57.85C127.562 57.9967 127.148 58.07 126.682 58.07ZM131.464 58V53.42L131.754 53.72H129.584V52.66H134.584V53.72H132.424L132.714 53.42V58H131.464ZM138.974 58V51.5L139.544 52.09H137.494V51H140.274V58H138.974Z" fill="white" fill-opacity="0.6"/>
<path d="M534.381 78L532.011 74.59L533.061 73.94L535.851 78H534.381ZM529.751 78V71H531.031V78H529.751ZM530.641 75.05V73.93H533.001V75.05H530.641ZM533.181 74.65L531.991 74.49L534.381 71H535.761L533.181 74.65ZM539.902 78V76.92L539.832 76.69V74.8C539.832 74.4333 539.722 74.15 539.502 73.95C539.282 73.7433 538.949 73.64 538.502 73.64C538.202 73.64 537.906 73.6867 537.612 73.78C537.326 73.8733 537.082 74.0033 536.882 74.17L536.392 73.26C536.679 73.04 537.019 72.8767 537.412 72.77C537.812 72.6567 538.226 72.6 538.652 72.6C539.426 72.6 540.022 72.7867 540.442 73.16C540.869 73.5267 541.082 74.0967 541.082 74.87V78H539.902ZM538.222 78.07C537.822 78.07 537.472 78.0033 537.172 77.87C536.872 77.73 536.639 77.54 536.472 77.3C536.312 77.0533 536.232 76.7767 536.232 76.47C536.232 76.17 536.302 75.9 536.442 75.66C536.589 75.42 536.826 75.23 537.152 75.09C537.479 74.95 537.912 74.88 538.452 74.88H540.002V75.71H538.542C538.116 75.71 537.829 75.78 537.682 75.92C537.536 76.0533 537.462 76.22 537.462 76.42C537.462 76.6467 537.552 76.8267 537.732 76.96C537.912 77.0933 538.162 77.16 538.482 77.16C538.789 77.16 539.062 77.09 539.302 76.95C539.549 76.81 539.726 76.6033 539.832 76.33L540.042 77.08C539.922 77.3933 539.706 77.6367 539.392 77.81C539.086 77.9833 538.696 78.07 538.222 78.07ZM545.179 78.1C544.739 78.1 544.346 78.0333 543.999 77.9C543.652 77.7667 543.352 77.5633 543.099 77.29C542.852 77.01 542.662 76.6567 542.529 76.23C542.396 75.8033 542.329 75.2967 542.329 74.71C542.329 74.2833 542.366 73.8933 542.439 73.54C542.512 73.1867 542.622 72.87 542.769 72.59C542.916 72.3033 543.099 72.05 543.319 71.83C543.546 71.61 543.809 71.4267 544.109 71.28C544.409 71.1333 544.749 71.02 545.129 70.94L547.609 70.41L547.789 71.53L545.539 71.99C545.412 72.0167 545.259 72.0567 545.079 72.11C544.906 72.1567 544.726 72.23 544.539 72.33C544.359 72.4233 544.189 72.56 544.029 72.74C543.876 72.9133 543.749 73.14 543.649 73.42C543.556 73.6933 543.509 74.0367 543.509 74.45C543.509 74.5767 543.512 74.6733 543.519 74.74C543.532 74.8 543.542 74.8667 543.549 74.94C543.562 75.0067 543.569 75.1067 543.569 75.24L543.099 74.75C543.232 74.41 543.416 74.12 543.649 73.88C543.889 73.6333 544.166 73.4467 544.479 73.32C544.799 73.1867 545.146 73.12 545.519 73.12C546.019 73.12 546.462 73.2233 546.849 73.43C547.236 73.6367 547.539 73.9267 547.759 74.3C547.979 74.6733 548.089 75.0967 548.089 75.57C548.089 76.0633 547.969 76.5 547.729 76.88C547.489 77.26 547.149 77.56 546.709 77.78C546.276 77.9933 545.766 78.1 545.179 78.1ZM545.279 77.09C545.579 77.09 545.842 77.0267 546.069 76.9C546.302 76.7667 546.482 76.5867 546.609 76.36C546.742 76.1333 546.809 75.88 546.809 75.6C546.809 75.32 546.742 75.0767 546.609 74.87C546.482 74.6567 546.302 74.4867 546.069 74.36C545.842 74.2333 545.572 74.17 545.259 74.17C544.959 74.17 544.689 74.23 544.449 74.35C544.216 74.47 544.032 74.6367 543.899 74.85C543.772 75.0567 543.709 75.2967 543.709 75.57C543.709 75.85 543.776 76.1067 543.909 76.34C544.042 76.5733 544.226 76.7567 544.459 76.89C544.699 77.0233 544.972 77.09 545.279 77.09ZM549.299 78V72.66H550.549V76.18L553.499 72.66H554.639V78H553.389V74.48L550.449 78H549.299ZM556.32 78V72.66H557.57V74.83H560.26V72.66H561.51V78H560.26V75.89H557.57V78H556.32ZM565.676 78.07C565.082 78.07 564.562 77.9533 564.116 77.72C563.676 77.48 563.332 77.1533 563.086 76.74C562.846 76.3267 562.726 75.8567 562.726 75.33C562.726 74.7967 562.842 74.3267 563.076 73.92C563.316 73.5067 563.642 73.1833 564.056 72.95C564.476 72.7167 564.952 72.6 565.486 72.6C566.006 72.6 566.469 72.7133 566.876 72.94C567.282 73.1667 567.602 73.4867 567.836 73.9C568.069 74.3133 568.186 74.8 568.186 75.36C568.186 75.4133 568.182 75.4733 568.176 75.54C568.176 75.6067 568.172 75.67 568.166 75.73H563.716V74.9H567.506L567.016 75.16C567.022 74.8533 566.959 74.5833 566.826 74.35C566.692 74.1167 566.509 73.9333 566.276 73.8C566.049 73.6667 565.786 73.6 565.486 73.6C565.179 73.6 564.909 73.6667 564.676 73.8C564.449 73.9333 564.269 74.12 564.136 74.36C564.009 74.5933 563.946 74.87 563.946 75.19V75.39C563.946 75.71 564.019 75.9933 564.166 76.24C564.312 76.4867 564.519 76.6767 564.786 76.81C565.052 76.9433 565.359 77.01 565.706 77.01C566.006 77.01 566.276 76.9633 566.516 76.87C566.756 76.7767 566.969 76.63 567.156 76.43L567.826 77.2C567.586 77.48 567.282 77.6967 566.916 77.85C566.556 77.9967 566.142 78.07 565.676 78.07ZM570.458 78V73.42L570.748 73.72H568.578V72.66H573.578V73.72H571.418L571.708 73.42V78H570.458ZM579.048 78.1C578.555 78.1 578.072 78.03 577.598 77.89C577.132 77.7433 576.738 77.5433 576.418 77.29L576.978 76.28C577.232 76.4867 577.538 76.6533 577.898 76.78C578.258 76.9067 578.635 76.97 579.028 76.97C579.495 76.97 579.858 76.8767 580.118 76.69C580.378 76.4967 580.508 76.2367 580.508 75.91C580.508 75.59 580.388 75.3367 580.148 75.15C579.908 74.9633 579.522 74.87 578.988 74.87H578.348V73.98L580.348 71.6L580.518 72.09H576.758V71H581.528V71.87L579.528 74.25L578.848 73.85H579.238C580.098 73.85 580.742 74.0433 581.168 74.43C581.602 74.81 581.818 75.3 581.818 75.9C581.818 76.2933 581.718 76.6567 581.518 76.99C581.318 77.3233 581.012 77.5933 580.598 77.8C580.192 78 579.675 78.1 579.048 78.1Z" fill="white" fill-opacity="0.6"/>
<path d="M808.372 78L806.002 74.59L807.052 73.94L809.842 78H808.372ZM803.742 78V71H805.022V78H803.742ZM804.632 75.05V73.93H806.992V75.05H804.632ZM807.172 74.65L805.982 74.49L808.372 71H809.752L807.172 74.65ZM813.893 78V76.92L813.823 76.69V74.8C813.823 74.4333 813.713 74.15 813.493 73.95C813.273 73.7433 812.939 73.64 812.493 73.64C812.193 73.64 811.896 73.6867 811.603 73.78C811.316 73.8733 811.073 74.0033 810.873 74.17L810.383 73.26C810.669 73.04 811.009 72.8767 811.403 72.77C811.803 72.6567 812.216 72.6 812.643 72.6C813.416 72.6 814.013 72.7867 814.433 73.16C814.859 73.5267 815.073 74.0967 815.073 74.87V78H813.893ZM812.213 78.07C811.813 78.07 811.463 78.0033 811.163 77.87C810.863 77.73 810.629 77.54 810.463 77.3C810.303 77.0533 810.223 76.7767 810.223 76.47C810.223 76.17 810.293 75.9 810.433 75.66C810.579 75.42 810.816 75.23 811.143 75.09C811.469 74.95 811.903 74.88 812.443 74.88H813.993V75.71H812.533C812.106 75.71 811.819 75.78 811.673 75.92C811.526 76.0533 811.453 76.22 811.453 76.42C811.453 76.6467 811.543 76.8267 811.723 76.96C811.903 77.0933 812.153 77.16 812.473 77.16C812.779 77.16 813.053 77.09 813.293 76.95C813.539 76.81 813.716 76.6033 813.823 76.33L814.033 77.08C813.913 77.3933 813.696 77.6367 813.383 77.81C813.076 77.9833 812.686 78.07 812.213 78.07ZM819.169 78.1C818.729 78.1 818.336 78.0333 817.989 77.9C817.643 77.7667 817.343 77.5633 817.089 77.29C816.843 77.01 816.653 76.6567 816.519 76.23C816.386 75.8033 816.319 75.2967 816.319 74.71C816.319 74.2833 816.356 73.8933 816.429 73.54C816.503 73.1867 816.613 72.87 816.759 72.59C816.906 72.3033 817.089 72.05 817.309 71.83C817.536 71.61 817.799 71.4267 818.099 71.28C818.399 71.1333 818.739 71.02 819.119 70.94L821.599 70.41L821.779 71.53L819.529 71.99C819.403 72.0167 819.249 72.0567 819.069 72.11C818.896 72.1567 818.716 72.23 818.529 72.33C818.349 72.4233 818.179 72.56 818.019 72.74C817.866 72.9133 817.739 73.14 817.639 73.42C817.546 73.6933 817.499 74.0367 817.499 74.45C817.499 74.5767 817.503 74.6733 817.509 74.74C817.523 74.8 817.533 74.8667 817.539 74.94C817.553 75.0067 817.559 75.1067 817.559 75.24L817.089 74.75C817.223 74.41 817.406 74.12 817.639 73.88C817.879 73.6333 818.156 73.4467 818.469 73.32C818.789 73.1867 819.136 73.12 819.509 73.12C820.009 73.12 820.453 73.2233 820.839 73.43C821.226 73.6367 821.529 73.9267 821.749 74.3C821.969 74.6733 822.079 75.0967 822.079 75.57C822.079 76.0633 821.959 76.5 821.719 76.88C821.479 77.26 821.139 77.56 820.699 77.78C820.266 77.9933 819.756 78.1 819.169 78.1ZM819.269 77.09C819.569 77.09 819.833 77.0267 820.059 76.9C820.293 76.7667 820.473 76.5867 820.599 76.36C820.733 76.1333 820.799 75.88 820.799 75.6C820.799 75.32 820.733 75.0767 820.599 74.87C820.473 74.6567 820.293 74.4867 820.059 74.36C819.833 74.2333 819.563 74.17 819.249 74.17C818.949 74.17 818.679 74.23 818.439 74.35C818.206 74.47 818.023 74.6367 817.889 74.85C817.763 75.0567 817.699 75.2967 817.699 75.57C817.699 75.85 817.766 76.1067 817.899 76.34C818.033 76.5733 818.216 76.7567 818.449 76.89C818.689 77.0233 818.963 77.09 819.269 77.09ZM823.289 78V72.66H824.539V76.18L827.489 72.66H828.629V78H827.379V74.48L824.439 78H823.289ZM830.311 78V72.66H831.561V74.83H834.251V72.66H835.501V78H834.251V75.89H831.561V78H830.311ZM839.666 78.07C839.073 78.07 838.553 77.9533 838.106 77.72C837.666 77.48 837.323 77.1533 837.076 76.74C836.836 76.3267 836.716 75.8567 836.716 75.33C836.716 74.7967 836.833 74.3267 837.066 73.92C837.306 73.5067 837.633 73.1833 838.046 72.95C838.466 72.7167 838.943 72.6 839.476 72.6C839.996 72.6 840.459 72.7133 840.866 72.94C841.273 73.1667 841.593 73.4867 841.826 73.9C842.059 74.3133 842.176 74.8 842.176 75.36C842.176 75.4133 842.173 75.4733 842.166 75.54C842.166 75.6067 842.163 75.67 842.156 75.73H837.706V74.9H841.496L841.006 75.16C841.013 74.8533 840.949 74.5833 840.816 74.35C840.683 74.1167 840.499 73.9333 840.266 73.8C840.039 73.6667 839.776 73.6 839.476 73.6C839.169 73.6 838.899 73.6667 838.666 73.8C838.439 73.9333 838.259 74.12 838.126 74.36C837.999 74.5933 837.936 74.87 837.936 75.19V75.39C837.936 75.71 838.009 75.9933 838.156 76.24C838.303 76.4867 838.509 76.6767 838.776 76.81C839.043 76.9433 839.349 77.01 839.696 77.01C839.996 77.01 840.266 76.9633 840.506 76.87C840.746 76.7767 840.959 76.63 841.146 76.43L841.816 77.2C841.576 77.48 841.273 77.6967 840.906 77.85C840.546 77.9967 840.133 78.07 839.666 78.07ZM844.448 78V73.42L844.738 73.72H842.568V72.66H847.568V73.72H845.408L845.698 73.42V78H844.448ZM853.158 78.1C852.665 78.1 852.182 78.03 851.708 77.89C851.242 77.7433 850.848 77.5433 850.528 77.29L851.078 76.28C851.332 76.4867 851.638 76.6533 851.998 76.78C852.365 76.9067 852.745 76.97 853.138 76.97C853.598 76.97 853.958 76.8733 854.218 76.68C854.485 76.4867 854.618 76.2267 854.618 75.9C854.618 75.68 854.562 75.4867 854.448 75.32C854.342 75.1533 854.148 75.0267 853.868 74.94C853.595 74.8533 853.218 74.81 852.738 74.81H851.048L851.408 71H855.518V72.09H851.888L852.568 71.47L852.298 74.32L851.618 73.71H853.028C853.722 73.71 854.278 73.8033 854.698 73.99C855.125 74.17 855.435 74.4233 855.628 74.75C855.828 75.07 855.928 75.4367 855.928 75.85C855.928 76.2567 855.828 76.63 855.628 76.97C855.428 77.31 855.122 77.5833 854.708 77.79C854.302 77.9967 853.785 78.1 853.158 78.1Z" fill="white" fill-opacity="0.6"/>
<path d="M247.436 91.31L247.856 90.36C248.156 90.5667 248.483 90.7267 248.836 90.84C249.196 90.9467 249.553 91.0033 249.906 91.01C250.26 91.0167 250.58 90.9767 250.866 90.89C251.16 90.8033 251.393 90.6733 251.566 90.5C251.74 90.3267 251.826 90.11 251.826 89.85C251.826 89.5367 251.696 89.3033 251.436 89.15C251.183 88.99 250.836 88.91 250.396 88.91H248.766V87.89H250.296C250.69 87.89 250.993 87.81 251.206 87.65C251.426 87.49 251.536 87.2733 251.536 87C251.536 86.7733 251.463 86.5867 251.316 86.44C251.176 86.2933 250.983 86.1833 250.736 86.11C250.496 86.0367 250.223 86.0033 249.916 86.01C249.616 86.01 249.303 86.0567 248.976 86.15C248.65 86.2367 248.34 86.3667 248.046 86.54L247.636 85.49C248.076 85.2567 248.536 85.0933 249.016 85C249.503 84.9067 249.973 84.88 250.426 84.92C250.88 84.96 251.286 85.0633 251.646 85.23C252.013 85.3967 252.306 85.6167 252.526 85.89C252.746 86.1567 252.856 86.4733 252.856 86.84C252.856 87.1733 252.766 87.47 252.586 87.73C252.413 87.9833 252.173 88.18 251.866 88.32C251.56 88.46 251.203 88.53 250.796 88.53L250.846 88.21C251.306 88.21 251.706 88.29 252.046 88.45C252.393 88.6033 252.66 88.8167 252.846 89.09C253.04 89.3633 253.136 89.68 253.136 90.04C253.136 90.38 253.05 90.6833 252.876 90.95C252.703 91.21 252.466 91.43 252.166 91.61C251.866 91.7833 251.523 91.9133 251.136 92C250.75 92.08 250.343 92.11 249.916 92.09C249.49 92.07 249.063 91.9967 248.636 91.87C248.216 91.7433 247.816 91.5567 247.436 91.31ZM256.971 92.07C256.377 92.07 255.857 91.9533 255.411 91.72C254.971 91.48 254.627 91.1533 254.381 90.74C254.141 90.3267 254.021 89.8567 254.021 89.33C254.021 88.7967 254.137 88.3267 254.371 87.92C254.611 87.5067 254.937 87.1833 255.351 86.95C255.771 86.7167 256.247 86.6 256.781 86.6C257.301 86.6 257.764 86.7133 258.171 86.94C258.577 87.1667 258.897 87.4867 259.131 87.9C259.364 88.3133 259.481 88.8 259.481 89.36C259.481 89.4133 259.477 89.4733 259.471 89.54C259.471 89.6067 259.467 89.67 259.461 89.73H255.011V88.9H258.801L258.311 89.16C258.317 88.8533 258.254 88.5833 258.121 88.35C257.987 88.1167 257.804 87.9333 257.571 87.8C257.344 87.6667 257.081 87.6 256.781 87.6C256.474 87.6 256.204 87.6667 255.971 87.8C255.744 87.9333 255.564 88.12 255.431 88.36C255.304 88.5933 255.241 88.87 255.241 89.19V89.39C255.241 89.71 255.314 89.9933 255.461 90.24C255.607 90.4867 255.814 90.6767 256.081 90.81C256.347 90.9433 256.654 91.01 257.001 91.01C257.301 91.01 257.571 90.9633 257.811 90.87C258.051 90.7767 258.264 90.63 258.451 90.43L259.121 91.2C258.881 91.48 258.577 91.6967 258.211 91.85C257.851 91.9967 257.437 92.07 256.971 92.07ZM259.999 91.99L260.059 90.94C260.106 90.9467 260.149 90.9533 260.189 90.96C260.229 90.9667 260.266 90.97 260.299 90.97C260.506 90.97 260.666 90.9067 260.779 90.78C260.893 90.6533 260.976 90.4833 261.029 90.27C261.089 90.05 261.129 89.8067 261.149 89.54C261.176 89.2667 261.196 88.9933 261.209 88.72L261.299 86.66H265.619V92H264.369V87.38L264.659 87.72H262.119L262.389 87.37L262.319 88.78C262.299 89.2533 262.259 89.6933 262.199 90.1C262.146 90.5 262.059 90.85 261.939 91.15C261.826 91.45 261.666 91.6833 261.459 91.85C261.259 92.0167 261.003 92.1 260.689 92.1C260.589 92.1 260.479 92.09 260.359 92.07C260.246 92.05 260.126 92.0233 259.999 91.99ZM269.793 92.07C269.2 92.07 268.68 91.9533 268.233 91.72C267.793 91.48 267.45 91.1533 267.203 90.74C266.963 90.3267 266.843 89.8567 266.843 89.33C266.843 88.7967 266.96 88.3267 267.193 87.92C267.433 87.5067 267.76 87.1833 268.173 86.95C268.593 86.7167 269.07 86.6 269.603 86.6C270.123 86.6 270.586 86.7133 270.993 86.94C271.4 87.1667 271.72 87.4867 271.953 87.9C272.186 88.3133 272.303 88.8 272.303 89.36C272.303 89.4133 272.3 89.4733 272.293 89.54C272.293 89.6067 272.29 89.67 272.283 89.73H267.833V88.9H271.623L271.133 89.16C271.14 88.8533 271.076 88.5833 270.943 88.35C270.81 88.1167 270.626 87.9333 270.393 87.8C270.166 87.6667 269.903 87.6 269.603 87.6C269.296 87.6 269.026 87.6667 268.793 87.8C268.566 87.9333 268.386 88.12 268.253 88.36C268.126 88.5933 268.063 88.87 268.063 89.19V89.39C268.063 89.71 268.136 89.9933 268.283 90.24C268.43 90.4867 268.636 90.6767 268.903 90.81C269.17 90.9433 269.476 91.01 269.823 91.01C270.123 91.01 270.393 90.9633 270.633 90.87C270.873 90.7767 271.086 90.63 271.273 90.43L271.943 91.2C271.703 91.48 271.4 91.6967 271.033 91.85C270.673 91.9967 270.26 92.07 269.793 92.07ZM273.67 92V86.66H274.92V88.83H277.61V86.66H278.86V92H277.61V89.89H274.92V92H273.67ZM283.775 92V90.92L283.705 90.69V88.8C283.705 88.4333 283.595 88.15 283.375 87.95C283.155 87.7433 282.822 87.64 282.375 87.64C282.075 87.64 281.779 87.6867 281.485 87.78C281.199 87.8733 280.955 88.0033 280.755 88.17L280.265 87.26C280.552 87.04 280.892 86.8767 281.285 86.77C281.685 86.6567 282.099 86.6 282.525 86.6C283.299 86.6 283.895 86.7867 284.315 87.16C284.742 87.5267 284.955 88.0967 284.955 88.87V92H283.775ZM282.095 92.07C281.695 92.07 281.345 92.0033 281.045 91.87C280.745 91.73 280.512 91.54 280.345 91.3C280.185 91.0533 280.105 90.7767 280.105 90.47C280.105 90.17 280.175 89.9 280.315 89.66C280.462 89.42 280.699 89.23 281.025 89.09C281.352 88.95 281.785 88.88 282.325 88.88H283.875V89.71H282.415C281.989 89.71 281.702 89.78 281.555 89.92C281.409 90.0533 281.335 90.22 281.335 90.42C281.335 90.6467 281.425 90.8267 281.605 90.96C281.785 91.0933 282.035 91.16 282.355 91.16C282.662 91.16 282.935 91.09 283.175 90.95C283.422 90.81 283.599 90.6033 283.705 90.33L283.915 91.08C283.795 91.3933 283.579 91.6367 283.265 91.81C282.959 91.9833 282.569 92.07 282.095 92.07ZM289.892 92V90.18L290.072 90.39H288.472C287.739 90.39 287.162 90.2367 286.742 89.93C286.329 89.6167 286.122 89.1667 286.122 88.58C286.122 87.9533 286.342 87.4767 286.782 87.15C287.229 86.8233 287.822 86.66 288.562 86.66H291.012V92H289.892ZM286.052 92L287.492 89.96H288.772L287.392 92H286.052ZM289.892 89.78V87.38L290.072 87.71H288.602C288.215 87.71 287.915 87.7833 287.702 87.93C287.495 88.07 287.392 88.3 287.392 88.62C287.392 89.22 287.782 89.52 288.562 89.52H290.072L289.892 89.78ZM256.894 103.31L257.314 102.36C257.614 102.567 257.941 102.727 258.294 102.84C258.654 102.947 259.011 103.003 259.364 103.01C259.718 103.017 260.038 102.977 260.324 102.89C260.618 102.803 260.851 102.673 261.024 102.5C261.198 102.327 261.284 102.11 261.284 101.85C261.284 101.537 261.154 101.303 260.894 101.15C260.641 100.99 260.294 100.91 259.854 100.91H258.224V99.89H259.754C260.148 99.89 260.451 99.81 260.664 99.65C260.884 99.49 260.994 99.2733 260.994 99C260.994 98.7733 260.921 98.5867 260.774 98.44C260.634 98.2933 260.441 98.1833 260.194 98.11C259.954 98.0367 259.681 98.0033 259.374 98.01C259.074 98.01 258.761 98.0567 258.434 98.15C258.108 98.2367 257.798 98.3667 257.504 98.54L257.094 97.49C257.534 97.2567 257.994 97.0933 258.474 97C258.961 96.9067 259.431 96.88 259.884 96.92C260.338 96.96 260.744 97.0633 261.104 97.23C261.471 97.3967 261.764 97.6167 261.984 97.89C262.204 98.1567 262.314 98.4733 262.314 98.84C262.314 99.1733 262.224 99.47 262.044 99.73C261.871 99.9833 261.631 100.18 261.324 100.32C261.018 100.46 260.661 100.53 260.254 100.53L260.304 100.21C260.764 100.21 261.164 100.29 261.504 100.45C261.851 100.603 262.118 100.817 262.304 101.09C262.498 101.363 262.594 101.68 262.594 102.04C262.594 102.38 262.508 102.683 262.334 102.95C262.161 103.21 261.924 103.43 261.624 103.61C261.324 103.783 260.981 103.913 260.594 104C260.208 104.08 259.801 104.11 259.374 104.09C258.948 104.07 258.521 103.997 258.094 103.87C257.674 103.743 257.274 103.557 256.894 103.31ZM266.319 104.07C265.772 104.07 265.285 103.953 264.859 103.72C264.432 103.48 264.095 103.153 263.849 102.74C263.602 102.327 263.479 101.857 263.479 101.33C263.479 100.797 263.602 100.327 263.849 99.92C264.095 99.5067 264.432 99.1833 264.859 98.95C265.285 98.7167 265.772 98.6 266.319 98.6C266.872 98.6 267.362 98.7167 267.789 98.95C268.222 99.1833 268.559 99.5033 268.799 99.91C269.045 100.317 269.169 100.79 269.169 101.33C269.169 101.857 269.045 102.327 268.799 102.74C268.559 103.153 268.222 103.48 267.789 103.72C267.362 103.953 266.872 104.07 266.319 104.07ZM266.319 103C266.625 103 266.899 102.933 267.139 102.8C267.379 102.667 267.565 102.473 267.699 102.22C267.839 101.967 267.909 101.67 267.909 101.33C267.909 100.983 267.839 100.687 267.699 100.44C267.565 100.187 267.379 99.9933 267.139 99.86C266.899 99.7267 266.629 99.66 266.329 99.66C266.022 99.66 265.749 99.7267 265.509 99.86C265.275 99.9933 265.089 100.187 264.949 100.44C264.809 100.687 264.739 100.983 264.739 101.33C264.739 101.67 264.809 101.967 264.949 102.22C265.089 102.473 265.275 102.667 265.509 102.8C265.749 102.933 266.019 103 266.319 103ZM270.403 104V98.66H271.653V100.83H274.343V98.66H275.593V104H274.343V101.89H271.653V104H270.403ZM280.509 104V102.92L280.439 102.69V100.8C280.439 100.433 280.329 100.15 280.109 99.95C279.889 99.7433 279.555 99.64 279.109 99.64C278.809 99.64 278.512 99.6867 278.219 99.78C277.932 99.8733 277.689 100.003 277.489 100.17L276.999 99.26C277.285 99.04 277.625 98.8767 278.019 98.77C278.419 98.6567 278.832 98.6 279.259 98.6C280.032 98.6 280.629 98.7867 281.049 99.16C281.475 99.5267 281.689 100.097 281.689 100.87V104H280.509ZM278.829 104.07C278.429 104.07 278.079 104.003 277.779 103.87C277.479 103.73 277.245 103.54 277.079 103.3C276.919 103.053 276.839 102.777 276.839 102.47C276.839 102.17 276.909 101.9 277.049 101.66C277.195 101.42 277.432 101.23 277.759 101.09C278.085 100.95 278.519 100.88 279.059 100.88H280.609V101.71H279.149C278.722 101.71 278.435 101.78 278.289 101.92C278.142 102.053 278.069 102.22 278.069 102.42C278.069 102.647 278.159 102.827 278.339 102.96C278.519 103.093 278.769 103.16 279.089 103.16C279.395 103.16 279.669 103.09 279.909 102.95C280.155 102.81 280.332 102.603 280.439 102.33L280.649 103.08C280.529 103.393 280.312 103.637 279.999 103.81C279.692 103.983 279.302 104.07 278.829 104.07Z" fill="white" fill-opacity="0.6"/>
<path d="M260.719 50.0216V47.4302C260.719 46.1043 261.804 45.0195 263.13 45.0195H275.183C276.509 45.0195 277.594 46.1043 277.594 47.4302V50.0336C276.196 50.5278 275.183 51.8537 275.183 53.4206V55.8674H263.13V53.4085C263.13 51.8537 262.118 50.5158 260.719 50.0216ZM278.799 51.0461C277.473 51.0461 276.389 52.1309 276.389 53.4567V57.0727H261.925V53.4567C261.925 52.1309 260.852 51.0461 259.514 51.0461C258.176 51.0461 257.104 52.1309 257.104 53.4567V59.4833C257.104 60.8092 258.188 61.894 259.514 61.894V64.3046H261.925V61.894H276.389V64.3046H278.799V61.894C280.125 61.894 281.21 60.8092 281.21 59.4833V53.4567C281.21 52.1309 280.125 51.0461 278.799 51.0461Z" fill="white" fill-opacity="0.5"/>
<circle opacity="0.4" cx="269.5" cy="54.5" r="17.5" fill="#36BA6B"/>
<path d="M151.965 149.885V146.923C151.965 145.408 153.204 144.168 154.72 144.168H168.495C170.01 144.168 171.25 145.408 171.25 146.923V149.898C169.652 150.463 168.495 151.978 168.495 153.769V156.566H154.72V153.755C154.72 151.978 153.562 150.449 151.965 149.885ZM172.627 151.055C171.112 151.055 169.872 152.295 169.872 153.811V157.943H153.342V153.811C153.342 152.295 152.116 151.055 150.587 151.055C149.058 151.055 147.832 152.295 147.832 153.811V160.698C147.832 162.213 149.072 163.453 150.587 163.453V166.208H153.342V163.453H169.872V166.208H172.627V163.453C174.142 163.453 175.382 162.213 175.382 160.698V153.811C175.382 152.295 174.142 151.055 172.627 151.055Z" fill="white" fill-opacity="0.5"/>
<circle opacity="0.4" cx="162" cy="155" r="20" fill="#36BA6B"/>
<path d="M223.5 176.5L315.5 176.5" stroke="#36BA6B" stroke-opacity="0.2"/>
<line x1="19.5" y1="292" x2="19.5" y2="18" stroke="#36BA6B" stroke-opacity="0.2"/>
<path d="M381.495 290.5L535.473 290.5" stroke="#EAA360" stroke-opacity="0.2"/>
<path d="M624.505 289.498L679.5 289.501" stroke="#EAA360" stroke-opacity="0.2"/>
<path d="M1019.65 290.5L1019 18" stroke="#36BA6B" stroke-opacity="0.2"/>
<path d="M740 19H919.5" stroke="#EAA360" stroke-opacity="0.2"/>
</svg>
