<svg width="1038" height="309" viewBox="0 0 1038 309" fill="none" xmlns="http://www.w3.org/2000/svg">
<rect width="1038" height="309" rx="18" fill="#12141C"/>
<path d="M427.075 245.182C427.075 245.807 427.464 246.196 428.089 246.196C428.715 246.196 429.103 245.807 429.103 245.182V235.802H430.117V245.182C430.117 245.806 430.506 246.196 431.131 246.196C431.756 246.196 432.145 245.807 432.145 245.182V229.211H432.652V234.947C432.652 236.162 434.176 236.162 434.173 234.947V228.786C434.173 227.444 433.207 226.676 431.638 226.676H427.582C426.152 226.676 425.047 227.294 425.047 228.748V235.295C425.047 236.309 426.568 236.309 426.568 235.295V229.211H427.075V245.182Z" fill="white" fill-opacity="0.5"/>
<path d="M429.546 225.792C430.702 225.792 431.638 224.856 431.638 223.701C431.638 222.546 430.702 221.609 429.546 221.609C428.391 221.609 427.455 222.546 427.455 223.701C427.455 224.856 428.391 225.792 429.546 225.792Z" fill="white" fill-opacity="0.5"/>
<path d="M442.222 225.792C443.377 225.792 444.314 224.856 444.314 223.701C444.314 222.546 443.377 221.609 442.222 221.609C441.067 221.609 440.131 222.546 440.131 223.701C440.131 224.856 441.067 225.792 442.222 225.792Z" fill="white" fill-opacity="0.5"/>
<path d="M447.312 237.577L444.316 229.344L444.299 229.26C444.299 229.139 444.4 229.042 444.525 229.042C444.632 229.042 444.722 229.114 444.746 229.209L446.783 234.535C446.918 234.839 447.475 235.042 447.841 235.042C448.33 235.042 448.381 234.081 448.37 234.028L446.333 228.903C446.156 227.726 444.968 226.676 443.612 226.676H440.958C439.601 226.676 438.325 227.726 438.148 228.903L436.202 234.091C436.158 234.192 436.202 235.074 436.732 235.074C437.143 235.074 437.69 234.914 437.789 234.551L439.754 229.195C439.785 229.111 439.87 229.047 439.968 229.047C440.093 229.047 440.194 229.142 440.194 229.262L440.18 229.338L437.261 237.578C437.254 237.602 437.261 238.186 437.261 238.211C437.261 238.387 437.684 238.845 437.868 238.845H439.751V245.231C439.751 245.758 440.215 246.197 440.765 246.197C441.315 246.197 441.779 245.758 441.779 245.231V238.586C441.779 238.443 442.793 238.447 442.793 238.591V245.182C442.793 245.71 443.258 246.196 443.807 246.196C444.358 246.196 444.821 245.709 444.821 245.182V238.844H446.783C446.966 238.844 447.312 238.386 447.312 238.211C447.312 238.17 447.327 237.612 447.312 237.577Z" fill="white" fill-opacity="0.5"/>
<circle opacity="0.4" cx="436.5" cy="233.5" r="17.5" fill="#EAA360"/>
<path d="M331.774 241.774H367.394V277.394H331.774V241.774Z" stroke="white" stroke-opacity="0.6" stroke-width="1.54867"/>
<path d="M337.195 271.975H343.39V265.78H349.585V259.585H355.779V253.391H361.974" stroke="white" stroke-opacity="0.6" stroke-width="3.09734" stroke-linecap="round" stroke-linejoin="round"/>
<path d="M337.194 258.035L348.035 247.194M348.035 247.194V253.389M348.035 247.194H341.84" stroke="white" stroke-opacity="0.6" stroke-width="3.09734" stroke-linecap="round" stroke-linejoin="round"/>
<path d="M693.774 241.774H729.394V277.394H693.774V241.774Z" stroke="white" stroke-opacity="0.6" stroke-width="1.54867"/>
<path d="M699.195 271.975H705.39V265.78H711.585V259.585H717.779V253.391H723.974" stroke="white" stroke-opacity="0.6" stroke-width="3.09734" stroke-linecap="round" stroke-linejoin="round"/>
<path d="M699.194 258.035L710.035 247.194M710.035 247.194V253.389M710.035 247.194H703.84" stroke="white" stroke-opacity="0.6" stroke-width="3.09734" stroke-linecap="round" stroke-linejoin="round"/>
<rect x="223" y="19" width="93" height="111" fill="#36BA6B" fill-opacity="0.1"/>
<rect x="384" y="18" width="103" height="112" fill="#36BA6B" fill-opacity="0.1"/>
<rect x="487" y="18" width="140" height="112" fill="#36BA6B" fill-opacity="0.1"/>
<rect x="832" y="177" width="187" height="113" fill="#EAA360" fill-opacity="0.1"/>
<rect x="740" y="19" width="179" height="113" fill="#EAA360" fill-opacity="0.1"/>
<rect x="919" y="19" width="100" height="158" fill="#EAA360" fill-opacity="0.1"/>
<rect x="628" y="19" width="54" height="112" fill="#36BA6B" fill-opacity="0.1"/>
<path d="M20 19H223V86H20V19Z" fill="#36BA6B" fill-opacity="0.1"/>
<path d="M20 86H132L132.5 132H124.5V153.5V176.5H132.5L132 222H20V86Z" fill="#36BA6B" fill-opacity="0.1"/>
<rect x="20" y="222" width="203" height="69" fill="#36BA6B" fill-opacity="0.1"/>
<rect x="223" y="176" width="93" height="115" fill="#36BA6B" fill-opacity="0.1"/>
<rect x="741" y="177" width="91" height="112" fill="#EAA360" fill-opacity="0.1"/>
<rect x="382" y="178" width="108" height="112" fill="#EAA360" fill-opacity="0.1"/>
<rect x="490" y="251" width="45" height="39" fill="#EAA360" fill-opacity="0.1"/>
<rect x="595" y="180" width="30" height="36" fill="#EAA360" fill-opacity="0.1"/>
<rect x="625" y="180" width="54" height="109" fill="#EAA360" fill-opacity="0.1"/>
<path d="M625 289V179.5H638.5" stroke="#EAA360" stroke-opacity="0.2"/>
<path d="M638.5 179.5H679M688 179.5H679M679 179.5V289" stroke="#EAA360" stroke-opacity="0.2"/>
<path d="M741 170V177M741 289.5V278V177M741 177H732H772.5" stroke="#EAA360" stroke-opacity="0.2"/>
<path d="M772.5 177H832M851 177H832M832 177V289.5" stroke="#EAA360" stroke-opacity="0.2"/>
<path d="M851 177H1019" stroke="#EAA360" stroke-opacity="0.2"/>
<path d="M919 141.999V132.5M919 32.5V132.5M919 132.5H889.5" stroke="#EAA360" stroke-opacity="0.2"/>
<path d="M919 32.5V19" stroke="#EAA360" stroke-opacity="0.2"/>
<path d="M889.5 132.5H801.5M776 132.5H801.5M801.5 132.5V96.5H781.5" stroke="#EAA360" stroke-opacity="0.2"/>
<path d="M781.5 96.5H740V139.5" stroke="#EAA360" stroke-opacity="0.2"/>
<path d="M776 132.5H735" stroke="#EAA360" stroke-opacity="0.2"/>
<path d="M740 96V19" stroke="#EAA360" stroke-opacity="0.2"/>
<path d="M20 86H132.5M176 86H132.5M132.5 86V121" stroke="#36BA6B" stroke-opacity="0.2"/>
<path d="M176 86H223" stroke="#36BA6B" stroke-opacity="0.2"/>
<path d="M204 221.5H132.5M20 221.5H132.5M132.5 221.5V213.5" stroke="#36BA6B" stroke-opacity="0.2"/>
<path d="M204 221.5H223V178.515V176V291" stroke="#36BA6B" stroke-opacity="0.2"/>
<path d="M316 291V176.5H325.5" stroke="#36BA6B" stroke-opacity="0.2"/>
<path d="M373.5 177.5H382V290" stroke="#EAA360" stroke-opacity="0.2"/>
<path d="M380 177.5H424" stroke="#EAA360" stroke-opacity="0.2"/>
<path d="M424 177.5H490V290" stroke="#EAA360" stroke-opacity="0.2"/>
<path d="M624.492 216H595V179.5H624.5" stroke="#EAA360" stroke-opacity="0.2"/>
<path d="M535 290V251H490" stroke="#EAA360" stroke-opacity="0.2"/>
<path d="M223 129.856L223 87.6147L223 84.0826L223 20" stroke="#36BA6B" stroke-opacity="0.2"/>
<path d="M132.5 213.5V176.5H124.5V132H132.5V121" stroke="#36BA6B" stroke-opacity="0.2"/>
<path d="M316 132.921V130.868M316 19V130.355M316 130.355H222.5H326H316ZM316 130.355V130.868M316 136V130.868" stroke="#36BA6B" stroke-opacity="0.2"/>
<path d="M383.5 66.5V135" stroke="#36BA6B" stroke-opacity="0.2"/>
<path d="M383.5 18L383.5 66.5" stroke="#36BA6B" stroke-opacity="0.2"/>
<path d="M373.5 130.501H487M613.5 130.501H487M487 130.501V19" stroke="#36BA6B" stroke-opacity="0.2"/>
<path d="M613.5 130.5H664" stroke="#36BA6B" stroke-opacity="0.2"/>
<path d="M627.5 130.001V19" stroke="#36BA6B" stroke-opacity="0.2"/>
<path d="M664 130.5H693" stroke="#36BA6B" stroke-opacity="0.2"/>
<path d="M682 64.5V130" stroke="#36BA6B" stroke-opacity="0.2"/>
<path d="M681.5 77.5H667" stroke="#36BA6B" stroke-opacity="0.2"/>
<path d="M667 77.5H628" stroke="#36BA6B" stroke-opacity="0.2"/>
<path d="M682 19V64.4997" stroke="#36BA6B" stroke-opacity="0.2"/>
<path d="M919 142V176.5" stroke="#EAA360" stroke-opacity="0.2"/>
<path d="M316.5 291.5L20.0002 291.5" stroke="#36BA6B" stroke-opacity="0.2"/>
<path d="M1019 290L740.5 290" stroke="#EAA360" stroke-opacity="0.2"/>
<path d="M740 19L19.9789 18.5" stroke="#36BA6B" stroke-opacity="0.2"/>
<path fill-rule="evenodd" clip-rule="evenodd" d="M269.145 244.399H266.513C265.771 244.399 265.169 243.824 265.169 243.115V243.101C265.169 242.391 265.771 241.816 266.513 241.816H273.487C274.23 241.816 274.831 242.391 274.831 243.101V243.115C274.831 243.824 274.229 244.399 273.487 244.399H270.855V249.374H271.34C271.809 249.374 272.191 249.738 272.191 250.187C272.191 250.637 271.809 251 271.34 251H268.66C268.191 251 267.81 250.637 267.81 250.187C267.81 249.738 268.191 249.374 268.66 249.374H269.145L269.145 244.399ZM261.312 247.745C261.148 247.639 261.023 247.481 260.963 247.291L259.037 241.16C258.898 240.716 259.162 240.247 259.627 240.114C260.092 239.981 260.582 240.233 260.721 240.677L262.459 246.21H266.031C266.516 246.21 266.91 246.586 266.91 247.05C266.91 247.513 266.516 247.89 266.031 247.89H265.872V250.523C265.872 250.77 265.662 250.971 265.403 250.971C265.144 250.971 264.933 250.77 264.933 250.523V247.89H262.251V250.523C262.251 250.77 262.04 250.971 261.781 250.971C261.522 250.971 261.312 250.77 261.312 250.523L261.312 247.745ZM274.128 247.889H273.969C273.484 247.889 273.09 247.513 273.09 247.049C273.09 246.586 273.484 246.21 273.969 246.21H277.541L279.279 240.677C279.418 240.233 279.908 239.981 280.373 240.114C280.838 240.247 281.102 240.716 280.963 241.159L279.037 247.291C278.978 247.481 278.852 247.639 278.688 247.745V250.523C278.688 250.77 278.478 250.971 278.219 250.971C277.96 250.971 277.749 250.77 277.749 250.523V247.889H275.067V250.523C275.067 250.77 274.856 250.971 274.597 250.971C274.338 250.971 274.128 250.77 274.128 250.523L274.128 247.889ZM270.855 240.941V236.989H269.145V240.941H270.855ZM279.393 236.114H260.607C260.184 236.114 259.813 235.844 259.702 235.454C259.59 235.065 259.765 234.652 260.128 234.446L269.521 229.125C269.816 228.958 270.184 228.958 270.479 229.125L279.872 234.446C280.235 234.652 280.41 235.065 280.298 235.454C280.186 235.844 279.816 236.114 279.393 236.114H279.393Z" fill="white" fill-opacity="0.6"/>
<circle opacity="0.4" cx="269.5" cy="239.5" r="17.5" fill="#36BA6B"/>
<circle opacity="0.4" cx="436.5" cy="77.5" r="17.5" fill="#36BA6B"/>
<path opacity="0.6" d="M446.954 81.4627L437.857 75.3273V74.8665C437.857 74.5943 437.987 74.3748 438.265 74.1769C438.3 74.1523 438.34 74.1259 438.385 74.0963C438.827 73.8046 439.747 73.198 439.747 71.8303C439.747 70.4097 438.66 69.3198 437.608 69.0862C436.501 68.8386 435.497 69.129 434.843 69.9017C434.247 70.6041 434.079 71.1891 434.044 72.1391C434.041 72.2078 434.04 72.3558 434.038 72.5004C434.036 72.7 434.402 72.8622 434.854 72.8622H435.018C435.469 72.8622 435.836 72.701 435.837 72.5015C435.838 72.3367 435.839 72.171 435.84 72.1396C435.865 71.4844 436.029 71.0989 436.65 70.9637C437.036 70.88 437.453 70.9964 437.697 71.2541C437.808 71.3704 437.867 71.5722 437.85 71.7807C437.84 71.9196 437.785 72.1795 437.541 72.36L436.762 72.9314C436.265 73.2742 436.053 73.6845 436.053 74.3026V75.3288L427.047 81.4411C425.713 82.3276 425.989 83.8394 426.105 84.2817C426.212 84.6849 426.698 86 428.466 86H445.646C446.896 86 447.686 85.125 447.917 84.2569C448.155 83.3493 447.897 82.061 446.954 81.4626L446.954 81.4627ZM446.03 83.598C445.987 83.7601 445.847 83.935 445.621 83.935H445.62H428.445C428.207 83.9341 428.073 83.7658 428.03 83.6222C427.976 83.4376 428.046 83.249 428.208 83.1252L437.011 77.192L445.862 83.1501C446.081 83.2976 446.052 83.5121 446.03 83.5977L446.03 83.598Z" fill="white" fill-opacity="0.6"/>
<path d="M74.4825 147C71.9676 147 69.5558 147.999 67.7773 149.777C65.9989 151.556 65 153.968 65 156.483C65 158.998 65.999 161.41 67.7773 163.188C69.5556 164.967 71.9676 165.966 74.4825 165.966C76.9974 165.966 79.4092 164.967 81.1876 163.188C82.9661 161.41 83.9651 158.998 83.9651 156.483C83.9651 153.968 82.9661 151.556 81.1876 149.777C79.4094 147.999 76.9976 147 74.4825 147ZM78.2376 151.119C78.4508 150.906 78.7403 150.785 79.0422 150.785C79.3439 150.785 79.6335 150.905 79.847 151.119C80.0606 151.332 80.1805 151.622 80.1805 151.923C80.1805 152.225 80.0606 152.515 79.847 152.728C79.6335 152.942 79.3439 153.061 79.0422 153.061C78.7403 153.061 78.4508 152.941 78.2376 152.728C78.0243 152.514 77.9046 152.225 77.9046 151.923C77.9046 151.622 78.0243 151.333 78.2376 151.119ZM66.8962 156.483C66.8962 156.181 67.0161 155.891 67.2296 155.678C67.4428 155.465 67.7323 155.345 68.0342 155.345C68.3359 155.345 68.6254 155.465 68.8388 155.678C69.052 155.891 69.1719 156.181 69.1719 156.483C69.1719 156.784 69.052 157.074 68.8388 157.287C68.6254 157.5 68.3359 157.62 68.0342 157.62C67.7323 157.62 67.4428 157.5 67.2296 157.287C67.0161 157.074 66.8962 156.784 66.8962 156.483ZM70.7272 161.846C70.5137 162.06 70.2244 162.18 69.9226 162.18C69.6207 162.18 69.331 162.06 69.1176 161.847C68.9041 161.633 68.7841 161.344 68.7841 161.042C68.7841 160.74 68.9041 160.451 69.1176 160.237C69.331 160.024 69.6207 159.904 69.9226 159.904C70.2245 159.904 70.5138 160.024 70.7272 160.238C70.9402 160.451 71.0599 160.74 71.0599 161.042C71.0599 161.343 70.9402 161.633 70.7272 161.846V161.846ZM70.7272 152.743C70.5137 152.956 70.2244 153.076 69.9226 153.076C69.6207 153.076 69.331 152.957 69.1176 152.743C68.9041 152.53 68.7841 152.24 68.7841 151.938C68.7841 151.637 68.9041 151.347 69.1176 151.134C69.331 150.92 69.6207 150.8 69.9226 150.8C70.2245 150.801 70.5138 150.921 70.7272 151.134C70.9357 151.347 71.0524 151.633 71.0524 151.931C71.0524 152.229 70.9357 152.515 70.7272 152.727V152.743ZM74.4823 164.069C74.1804 164.069 73.8909 163.949 73.6777 163.736C73.4642 163.522 73.3443 163.233 73.3443 162.931C73.3443 162.629 73.4642 162.34 73.6777 162.126C73.8909 161.913 74.1804 161.793 74.4823 161.793C74.784 161.793 75.0735 161.913 75.2869 162.126C75.5001 162.34 75.62 162.629 75.62 162.931C75.62 163.233 75.5001 163.522 75.2869 163.736C75.0734 163.949 74.784 164.069 74.4823 164.069ZM74.4823 151.172C74.1804 151.172 73.8909 151.052 73.6777 150.839C73.4642 150.626 73.3443 150.336 73.3443 150.034C73.3443 149.732 73.4642 149.443 73.6777 149.23C73.8909 149.016 74.1804 148.896 74.4823 148.896C74.784 148.896 75.0735 149.016 75.2869 149.23C75.5001 149.443 75.62 149.733 75.62 150.034C75.62 150.336 75.5001 150.626 75.2869 150.839C75.0734 151.052 74.784 151.172 74.4823 151.172ZM79.8455 161.846C79.6323 162.06 79.3428 162.18 79.0409 162.18C78.739 162.18 78.4496 162.06 78.2359 161.847C78.0225 161.633 77.9026 161.344 77.9026 161.042C77.9026 160.74 78.0225 160.451 78.2359 160.237C78.4496 160.024 78.739 159.904 79.0409 159.904C79.3428 159.904 79.6323 160.024 79.8455 160.238C80.0586 160.451 80.1783 160.74 80.1783 161.042C80.1783 161.343 80.0586 161.633 79.8455 161.846V161.846ZM80.9304 157.62C80.6285 157.62 80.3392 157.501 80.1258 157.287C79.9124 157.074 79.7925 156.784 79.7925 156.483C79.7925 156.181 79.9124 155.891 80.1258 155.678C80.3392 155.465 80.6286 155.345 80.9304 155.345C81.2321 155.345 81.5216 155.465 81.735 155.678C81.9483 155.891 82.0682 156.181 82.0682 156.483C82.0682 156.784 81.9483 157.074 81.735 157.287C81.5216 157.501 81.2321 157.62 80.9304 157.62Z" fill="white" fill-opacity="0.6"/>
<path d="M85.4819 165.208C86.171 166.391 86.6822 167.669 86.9991 169.001C84.7234 167.184 80.6915 166.456 77.8164 166.164C79.8055 165.48 81.5342 164.197 82.7662 162.492C84.3154 162.791 85.7685 163.462 86.9994 164.449L85.4819 165.208Z" fill="white" fill-opacity="0.6"/>
<circle opacity="0.4" cx="75.5" cy="157.5" r="17.5" fill="#36BA6B"/>
<circle opacity="0.4" cx="124.5" cy="256.5" r="17.5" fill="#36BA6B"/>
<g opacity="0.6">
<path d="M118.773 260.667C118.773 261 118 264 118 264H121L122.318 258.333L123.136 262.667L126.409 258.667L126 264H128.5L131.182 253L129 250L125.045 255.333L123.955 250H119.318L120.682 252C120.682 252 118.781 260.26 118.773 260.667Z" fill="white"/>
<path d="M118.773 260.667H117.182L116.5 264H113.5L114.182 260.667H112.273L112 260L113.364 251.667L112.273 250H116.636L115.273 257.667H117.182L118.545 250H119.318M118.773 260.667C118.773 261 118 264 118 264H121L122.318 258.333L123.136 262.667L126.409 258.667L126 264H128.5L131.182 253M118.773 260.667C118.781 260.26 120.682 252 120.682 252L119.318 250M131.182 253H132.318L130 264H133L135.318 253H135.864V254H138.591L139.682 250H129M131.182 253L129 250M129 250L125.045 255.333L123.955 250H119.318" stroke="white"/>
</g>
<path d="M251.062 197L248.692 193.59L249.742 192.94L252.532 197H251.062ZM246.432 197V190H247.712V197H246.432ZM247.322 194.05V192.93H249.682V194.05H247.322ZM249.862 193.65L248.672 193.49L251.062 190H252.442L249.862 193.65ZM255.586 197.07C255.04 197.07 254.553 196.953 254.126 196.72C253.7 196.48 253.363 196.153 253.116 195.74C252.87 195.327 252.746 194.857 252.746 194.33C252.746 193.797 252.87 193.327 253.116 192.92C253.363 192.507 253.7 192.183 254.126 191.95C254.553 191.717 255.04 191.6 255.586 191.6C256.14 191.6 256.63 191.717 257.056 191.95C257.49 192.183 257.826 192.503 258.066 192.91C258.313 193.317 258.436 193.79 258.436 194.33C258.436 194.857 258.313 195.327 258.066 195.74C257.826 196.153 257.49 196.48 257.056 196.72C256.63 196.953 256.14 197.07 255.586 197.07ZM255.586 196C255.893 196 256.166 195.933 256.406 195.8C256.646 195.667 256.833 195.473 256.966 195.22C257.106 194.967 257.176 194.67 257.176 194.33C257.176 193.983 257.106 193.687 256.966 193.44C256.833 193.187 256.646 192.993 256.406 192.86C256.166 192.727 255.896 192.66 255.596 192.66C255.29 192.66 255.016 192.727 254.776 192.86C254.543 192.993 254.356 193.187 254.216 193.44C254.076 193.687 254.006 193.983 254.006 194.33C254.006 194.67 254.076 194.967 254.216 195.22C254.356 195.473 254.543 195.667 254.776 195.8C255.016 195.933 255.286 196 255.586 196ZM263.061 197.1C263.054 197.1 263.024 197.1 262.971 197.1C262.924 197.1 262.878 197.1 262.831 197.1C262.791 197.1 262.764 197.1 262.751 197.1C261.624 197.087 260.751 196.843 260.131 196.37C259.511 195.89 259.201 195.207 259.201 194.32C259.201 193.44 259.511 192.767 260.131 192.3C260.751 191.833 261.634 191.593 262.781 191.58C262.794 191.58 262.821 191.58 262.861 191.58C262.908 191.58 262.951 191.58 262.991 191.58C263.038 191.58 263.064 191.58 263.071 191.58C264.224 191.58 265.121 191.817 265.761 192.29C266.408 192.757 266.731 193.433 266.731 194.32C266.731 195.213 266.408 195.9 265.761 196.38C265.121 196.86 264.221 197.1 263.061 197.1ZM263.021 196.06C263.588 196.06 264.054 195.997 264.421 195.87C264.788 195.737 265.061 195.543 265.241 195.29C265.421 195.03 265.511 194.707 265.511 194.32C265.511 193.94 265.421 193.627 265.241 193.38C265.061 193.127 264.788 192.94 264.421 192.82C264.054 192.693 263.588 192.63 263.021 192.63C263.008 192.63 262.974 192.63 262.921 192.63C262.874 192.63 262.844 192.63 262.831 192.63C262.278 192.63 261.824 192.697 261.471 192.83C261.118 192.957 260.854 193.143 260.681 193.39C260.514 193.637 260.431 193.947 260.431 194.32C260.431 194.7 260.514 195.017 260.681 195.27C260.854 195.523 261.118 195.717 261.471 195.85C261.831 195.983 262.284 196.053 262.831 196.06C262.844 196.06 262.874 196.06 262.921 196.06C262.974 196.06 263.008 196.06 263.021 196.06ZM262.371 198.94V189.58H263.551V198.94H262.371ZM270.433 197.07C269.839 197.07 269.319 196.953 268.873 196.72C268.433 196.48 268.089 196.153 267.843 195.74C267.603 195.327 267.483 194.857 267.483 194.33C267.483 193.797 267.599 193.327 267.833 192.92C268.073 192.507 268.399 192.183 268.813 191.95C269.233 191.717 269.709 191.6 270.243 191.6C270.763 191.6 271.226 191.713 271.633 191.94C272.039 192.167 272.359 192.487 272.593 192.9C272.826 193.313 272.943 193.8 272.943 194.36C272.943 194.413 272.939 194.473 272.933 194.54C272.933 194.607 272.929 194.67 272.923 194.73H268.473V193.9H272.263L271.773 194.16C271.779 193.853 271.716 193.583 271.583 193.35C271.449 193.117 271.266 192.933 271.033 192.8C270.806 192.667 270.543 192.6 270.243 192.6C269.936 192.6 269.666 192.667 269.433 192.8C269.206 192.933 269.026 193.12 268.893 193.36C268.766 193.593 268.703 193.87 268.703 194.19V194.39C268.703 194.71 268.776 194.993 268.923 195.24C269.069 195.487 269.276 195.677 269.543 195.81C269.809 195.943 270.116 196.01 270.463 196.01C270.763 196.01 271.033 195.963 271.273 195.87C271.513 195.777 271.726 195.63 271.913 195.43L272.583 196.2C272.343 196.48 272.039 196.697 271.673 196.85C271.313 196.997 270.899 197.07 270.433 197.07ZM274.31 197V191.66H275.56V195.18L278.51 191.66H279.65V197H278.4V193.48L275.46 197H274.31ZM276.9 191.03C276.366 191.03 275.956 190.907 275.67 190.66C275.383 190.407 275.236 190.04 275.23 189.56H276.06C276.066 189.8 276.14 189.99 276.28 190.13C276.426 190.27 276.63 190.34 276.89 190.34C277.143 190.34 277.343 190.27 277.49 190.13C277.643 189.99 277.723 189.8 277.73 189.56H278.58C278.573 190.04 278.423 190.407 278.13 190.66C277.843 190.907 277.433 191.03 276.9 191.03ZM281.331 197V191.66H282.581V193.83H285.271V191.66H286.521V197H285.271V194.89H282.581V197H281.331ZM291.586 197V195.18L291.766 195.39H290.166C289.433 195.39 288.856 195.237 288.436 194.93C288.023 194.617 287.816 194.167 287.816 193.58C287.816 192.953 288.036 192.477 288.476 192.15C288.923 191.823 289.516 191.66 290.256 191.66H292.706V197H291.586ZM287.746 197L289.186 194.96H290.466L289.086 197H287.746ZM291.586 194.78V192.38L291.766 192.71H290.296C289.91 192.71 289.61 192.783 289.396 192.93C289.19 193.07 289.086 193.3 289.086 193.62C289.086 194.22 289.476 194.52 290.256 194.52H291.766L291.586 194.78Z" fill="white" fill-opacity="0.6"/>
<path d="M765.381 239L763.011 235.59L764.061 234.94L766.851 239H765.381ZM760.751 239V232H762.031V239H760.751ZM761.641 236.05V234.93H764.001V236.05H761.641ZM764.181 235.65L762.991 235.49L765.381 232H766.761L764.181 235.65ZM770.902 239V237.92L770.832 237.69V235.8C770.832 235.433 770.722 235.15 770.502 234.95C770.282 234.743 769.949 234.64 769.502 234.64C769.202 234.64 768.906 234.687 768.612 234.78C768.326 234.873 768.082 235.003 767.882 235.17L767.392 234.26C767.679 234.04 768.019 233.877 768.412 233.77C768.812 233.657 769.226 233.6 769.652 233.6C770.426 233.6 771.022 233.787 771.442 234.16C771.869 234.527 772.082 235.097 772.082 235.87V239H770.902ZM769.222 239.07C768.822 239.07 768.472 239.003 768.172 238.87C767.872 238.73 767.639 238.54 767.472 238.3C767.312 238.053 767.232 237.777 767.232 237.47C767.232 237.17 767.302 236.9 767.442 236.66C767.589 236.42 767.826 236.23 768.152 236.09C768.479 235.95 768.912 235.88 769.452 235.88H771.002V236.71H769.542C769.116 236.71 768.829 236.78 768.682 236.92C768.536 237.053 768.462 237.22 768.462 237.42C768.462 237.647 768.552 237.827 768.732 237.96C768.912 238.093 769.162 238.16 769.482 238.16C769.789 238.16 770.062 238.09 770.302 237.95C770.549 237.81 770.726 237.603 770.832 237.33L771.042 238.08C770.922 238.393 770.706 238.637 770.392 238.81C770.086 238.983 769.696 239.07 769.222 239.07ZM776.179 239.1C775.739 239.1 775.346 239.033 774.999 238.9C774.652 238.767 774.352 238.563 774.099 238.29C773.852 238.01 773.662 237.657 773.529 237.23C773.396 236.803 773.329 236.297 773.329 235.71C773.329 235.283 773.366 234.893 773.439 234.54C773.512 234.187 773.622 233.87 773.769 233.59C773.916 233.303 774.099 233.05 774.319 232.83C774.546 232.61 774.809 232.427 775.109 232.28C775.409 232.133 775.749 232.02 776.129 231.94L778.609 231.41L778.789 232.53L776.539 232.99C776.412 233.017 776.259 233.057 776.079 233.11C775.906 233.157 775.726 233.23 775.539 233.33C775.359 233.423 775.189 233.56 775.029 233.74C774.876 233.913 774.749 234.14 774.649 234.42C774.556 234.693 774.509 235.037 774.509 235.45C774.509 235.577 774.512 235.673 774.519 235.74C774.532 235.8 774.542 235.867 774.549 235.94C774.562 236.007 774.569 236.107 774.569 236.24L774.099 235.75C774.232 235.41 774.416 235.12 774.649 234.88C774.889 234.633 775.166 234.447 775.479 234.32C775.799 234.187 776.146 234.12 776.519 234.12C777.019 234.12 777.462 234.223 777.849 234.43C778.236 234.637 778.539 234.927 778.759 235.3C778.979 235.673 779.089 236.097 779.089 236.57C779.089 237.063 778.969 237.5 778.729 237.88C778.489 238.26 778.149 238.56 777.709 238.78C777.276 238.993 776.766 239.1 776.179 239.1ZM776.279 238.09C776.579 238.09 776.842 238.027 777.069 237.9C777.302 237.767 777.482 237.587 777.609 237.36C777.742 237.133 777.809 236.88 777.809 236.6C777.809 236.32 777.742 236.077 777.609 235.87C777.482 235.657 777.302 235.487 777.069 235.36C776.842 235.233 776.572 235.17 776.259 235.17C775.959 235.17 775.689 235.23 775.449 235.35C775.216 235.47 775.032 235.637 774.899 235.85C774.772 236.057 774.709 236.297 774.709 236.57C774.709 236.85 774.776 237.107 774.909 237.34C775.042 237.573 775.226 237.757 775.459 237.89C775.699 238.023 775.972 238.09 776.279 238.09ZM780.299 239V233.66H781.549V237.18L784.499 233.66H785.639V239H784.389V235.48L781.449 239H780.299ZM787.32 239V233.66H788.57V235.83H791.26V233.66H792.51V239H791.26V236.89H788.57V239H787.32ZM796.676 239.07C796.082 239.07 795.562 238.953 795.116 238.72C794.676 238.48 794.332 238.153 794.086 237.74C793.846 237.327 793.726 236.857 793.726 236.33C793.726 235.797 793.842 235.327 794.076 234.92C794.316 234.507 794.642 234.183 795.056 233.95C795.476 233.717 795.952 233.6 796.486 233.6C797.006 233.6 797.469 233.713 797.876 233.94C798.282 234.167 798.602 234.487 798.836 234.9C799.069 235.313 799.186 235.8 799.186 236.36C799.186 236.413 799.182 236.473 799.176 236.54C799.176 236.607 799.172 236.67 799.166 236.73H794.716V235.9H798.506L798.016 236.16C798.022 235.853 797.959 235.583 797.826 235.35C797.692 235.117 797.509 234.933 797.276 234.8C797.049 234.667 796.786 234.6 796.486 234.6C796.179 234.6 795.909 234.667 795.676 234.8C795.449 234.933 795.269 235.12 795.136 235.36C795.009 235.593 794.946 235.87 794.946 236.19V236.39C794.946 236.71 795.019 236.993 795.166 237.24C795.312 237.487 795.519 237.677 795.786 237.81C796.052 237.943 796.359 238.01 796.706 238.01C797.006 238.01 797.276 237.963 797.516 237.87C797.756 237.777 797.969 237.63 798.156 237.43L798.826 238.2C798.586 238.48 798.282 238.697 797.916 238.85C797.556 238.997 797.142 239.07 796.676 239.07ZM801.458 239V234.42L801.748 234.72H799.578V233.66H804.578V234.72H802.418L802.708 234.42V239H801.458ZM807.758 239V238.13L810.538 235.49C810.772 235.27 810.945 235.077 811.058 234.91C811.172 234.743 811.245 234.59 811.278 234.45C811.318 234.303 811.338 234.167 811.338 234.04C811.338 233.72 811.228 233.473 811.008 233.3C810.788 233.12 810.465 233.03 810.038 233.03C809.698 233.03 809.388 233.09 809.108 233.21C808.835 233.33 808.598 233.513 808.398 233.76L807.488 233.06C807.762 232.693 808.128 232.41 808.588 232.21C809.055 232.003 809.575 231.9 810.148 231.9C810.655 231.9 811.095 231.983 811.468 232.15C811.848 232.31 812.138 232.54 812.338 232.84C812.545 233.14 812.648 233.497 812.648 233.91C812.648 234.137 812.618 234.363 812.558 234.59C812.498 234.81 812.385 235.043 812.218 235.29C812.052 235.537 811.808 235.813 811.488 236.12L809.098 238.39L808.828 237.9H812.918V239H807.758Z" fill="white" fill-opacity="0.6"/>
<path d="M898.898 237L896.528 233.59L897.578 232.94L900.368 237H898.898ZM894.268 237V230H895.548V237H894.268ZM895.158 234.05V232.93H897.518V234.05H895.158ZM897.698 233.65L896.508 233.49L898.898 230H900.278L897.698 233.65ZM904.419 237V235.92L904.349 235.69V233.8C904.349 233.433 904.239 233.15 904.019 232.95C903.799 232.743 903.466 232.64 903.019 232.64C902.719 232.64 902.422 232.687 902.129 232.78C901.842 232.873 901.599 233.003 901.399 233.17L900.909 232.26C901.196 232.04 901.536 231.877 901.929 231.77C902.329 231.657 902.742 231.6 903.169 231.6C903.942 231.6 904.539 231.787 904.959 232.16C905.386 232.527 905.599 233.097 905.599 233.87V237H904.419ZM902.739 237.07C902.339 237.07 901.989 237.003 901.689 236.87C901.389 236.73 901.156 236.54 900.989 236.3C900.829 236.053 900.749 235.777 900.749 235.47C900.749 235.17 900.819 234.9 900.959 234.66C901.106 234.42 901.342 234.23 901.669 234.09C901.996 233.95 902.429 233.88 902.969 233.88H904.519V234.71H903.059C902.632 234.71 902.346 234.78 902.199 234.92C902.052 235.053 901.979 235.22 901.979 235.42C901.979 235.647 902.069 235.827 902.249 235.96C902.429 236.093 902.679 236.16 902.999 236.16C903.306 236.16 903.579 236.09 903.819 235.95C904.066 235.81 904.242 235.603 904.349 235.33L904.559 236.08C904.439 236.393 904.222 236.637 903.909 236.81C903.602 236.983 903.212 237.07 902.739 237.07ZM909.696 237.1C909.256 237.1 908.862 237.033 908.516 236.9C908.169 236.767 907.869 236.563 907.616 236.29C907.369 236.01 907.179 235.657 907.046 235.23C906.912 234.803 906.846 234.297 906.846 233.71C906.846 233.283 906.882 232.893 906.956 232.54C907.029 232.187 907.139 231.87 907.286 231.59C907.432 231.303 907.616 231.05 907.836 230.83C908.062 230.61 908.326 230.427 908.626 230.28C908.926 230.133 909.266 230.02 909.646 229.94L912.126 229.41L912.306 230.53L910.056 230.99C909.929 231.017 909.776 231.057 909.596 231.11C909.422 231.157 909.242 231.23 909.056 231.33C908.876 231.423 908.706 231.56 908.546 231.74C908.392 231.913 908.266 232.14 908.166 232.42C908.072 232.693 908.026 233.037 908.026 233.45C908.026 233.577 908.029 233.673 908.036 233.74C908.049 233.8 908.059 233.867 908.066 233.94C908.079 234.007 908.086 234.107 908.086 234.24L907.616 233.75C907.749 233.41 907.932 233.12 908.166 232.88C908.406 232.633 908.682 232.447 908.996 232.32C909.316 232.187 909.662 232.12 910.036 232.12C910.536 232.12 910.979 232.223 911.366 232.43C911.752 232.637 912.056 232.927 912.276 233.3C912.496 233.673 912.606 234.097 912.606 234.57C912.606 235.063 912.486 235.5 912.246 235.88C912.006 236.26 911.666 236.56 911.226 236.78C910.792 236.993 910.282 237.1 909.696 237.1ZM909.796 236.09C910.096 236.09 910.359 236.027 910.586 235.9C910.819 235.767 910.999 235.587 911.126 235.36C911.259 235.133 911.326 234.88 911.326 234.6C911.326 234.32 911.259 234.077 911.126 233.87C910.999 233.657 910.819 233.487 910.586 233.36C910.359 233.233 910.089 233.17 909.776 233.17C909.476 233.17 909.206 233.23 908.966 233.35C908.732 233.47 908.549 233.637 908.416 233.85C908.289 234.057 908.226 234.297 908.226 234.57C908.226 234.85 908.292 235.107 908.426 235.34C908.559 235.573 908.742 235.757 908.976 235.89C909.216 236.023 909.489 236.09 909.796 236.09ZM913.816 237V231.66H915.066V235.18L918.016 231.66H919.156V237H917.906V233.48L914.966 237H913.816ZM920.837 237V231.66H922.087V233.83H924.777V231.66H926.027V237H924.777V234.89H922.087V237H920.837ZM930.192 237.07C929.599 237.07 929.079 236.953 928.632 236.72C928.192 236.48 927.849 236.153 927.602 235.74C927.362 235.327 927.242 234.857 927.242 234.33C927.242 233.797 927.359 233.327 927.592 232.92C927.832 232.507 928.159 232.183 928.572 231.95C928.992 231.717 929.469 231.6 930.002 231.6C930.522 231.6 930.986 231.713 931.392 231.94C931.799 232.167 932.119 232.487 932.352 232.9C932.586 233.313 932.702 233.8 932.702 234.36C932.702 234.413 932.699 234.473 932.692 234.54C932.692 234.607 932.689 234.67 932.682 234.73H928.232V233.9H932.022L931.532 234.16C931.539 233.853 931.476 233.583 931.342 233.35C931.209 233.117 931.026 232.933 930.792 232.8C930.566 232.667 930.302 232.6 930.002 232.6C929.696 232.6 929.426 232.667 929.192 232.8C928.966 232.933 928.786 233.12 928.652 233.36C928.526 233.593 928.462 233.87 928.462 234.19V234.39C928.462 234.71 928.536 234.993 928.682 235.24C928.829 235.487 929.036 235.677 929.302 235.81C929.569 235.943 929.876 236.01 930.222 236.01C930.522 236.01 930.792 235.963 931.032 235.87C931.272 235.777 931.486 235.63 931.672 235.43L932.342 236.2C932.102 236.48 931.799 236.697 931.432 236.85C931.072 236.997 930.659 237.07 930.192 237.07ZM934.974 237V232.42L935.264 232.72H933.094V231.66H938.094V232.72H935.934L936.224 232.42V237H934.974ZM941.265 235.41V234.51L944.715 230H946.105L942.705 234.51L942.055 234.31H947.605V235.41H941.265ZM945.105 237V235.41L945.145 234.31V232.9H946.365V237H945.105Z" fill="white" fill-opacity="0.6"/>
<path d="M933.671 101.1C933.558 101.1 933.445 101.09 933.331 101.07C933.218 101.05 933.095 101.027 932.961 101L933.051 99.87C933.145 99.8967 933.245 99.91 933.351 99.91C933.631 99.91 933.855 99.7967 934.021 99.57C934.188 99.3367 934.308 98.9967 934.381 98.55C934.455 98.1033 934.505 97.5533 934.531 96.9L934.631 94H939.781V101H938.501V94.78L938.801 95.1H935.471L935.751 94.77L935.681 96.85C935.661 97.5433 935.615 98.1533 935.541 98.68C935.468 99.2067 935.355 99.65 935.201 100.01C935.055 100.363 934.858 100.633 934.611 100.82C934.365 101.007 934.051 101.1 933.671 101.1ZM944.851 101V99.92L944.781 99.69V97.8C944.781 97.4333 944.671 97.15 944.451 96.95C944.231 96.7433 943.897 96.64 943.451 96.64C943.151 96.64 942.854 96.6867 942.561 96.78C942.274 96.8733 942.031 97.0033 941.831 97.17L941.341 96.26C941.627 96.04 941.967 95.8767 942.361 95.77C942.761 95.6567 943.174 95.6 943.601 95.6C944.374 95.6 944.971 95.7867 945.391 96.16C945.817 96.5267 946.031 97.0967 946.031 97.87V101H944.851ZM943.171 101.07C942.771 101.07 942.421 101.003 942.121 100.87C941.821 100.73 941.587 100.54 941.421 100.3C941.261 100.053 941.181 99.7767 941.181 99.47C941.181 99.17 941.251 98.9 941.391 98.66C941.537 98.42 941.774 98.23 942.101 98.09C942.427 97.95 942.861 97.88 943.401 97.88H944.951V98.71H943.491C943.064 98.71 942.777 98.78 942.631 98.92C942.484 99.0533 942.411 99.22 942.411 99.42C942.411 99.6467 942.501 99.8267 942.681 99.96C942.861 100.093 943.111 100.16 943.431 100.16C943.737 100.16 944.011 100.09 944.251 99.95C944.497 99.81 944.674 99.6033 944.781 99.33L944.991 100.08C944.871 100.393 944.654 100.637 944.341 100.81C944.034 100.983 943.644 101.07 943.171 101.07ZM950.127 101.1C949.687 101.1 949.294 101.033 948.947 100.9C948.601 100.767 948.301 100.563 948.047 100.29C947.801 100.01 947.611 99.6567 947.477 99.23C947.344 98.8033 947.277 98.2967 947.277 97.71C947.277 97.2833 947.314 96.8933 947.387 96.54C947.461 96.1867 947.571 95.87 947.717 95.59C947.864 95.3033 948.047 95.05 948.267 94.83C948.494 94.61 948.757 94.4267 949.057 94.28C949.357 94.1333 949.697 94.02 950.077 93.94L952.557 93.41L952.737 94.53L950.487 94.99C950.361 95.0167 950.207 95.0567 950.027 95.11C949.854 95.1567 949.674 95.23 949.487 95.33C949.307 95.4233 949.137 95.56 948.977 95.74C948.824 95.9133 948.697 96.14 948.597 96.42C948.504 96.6933 948.457 97.0367 948.457 97.45C948.457 97.5767 948.461 97.6733 948.467 97.74C948.481 97.8 948.491 97.8667 948.497 97.94C948.511 98.0067 948.517 98.1067 948.517 98.24L948.047 97.75C948.181 97.41 948.364 97.12 948.597 96.88C948.837 96.6333 949.114 96.4467 949.427 96.32C949.747 96.1867 950.094 96.12 950.467 96.12C950.967 96.12 951.411 96.2233 951.797 96.43C952.184 96.6367 952.487 96.9267 952.707 97.3C952.927 97.6733 953.037 98.0967 953.037 98.57C953.037 99.0633 952.917 99.5 952.677 99.88C952.437 100.26 952.097 100.56 951.657 100.78C951.224 100.993 950.714 101.1 950.127 101.1ZM950.227 100.09C950.527 100.09 950.791 100.027 951.017 99.9C951.251 99.7667 951.431 99.5867 951.557 99.36C951.691 99.1333 951.757 98.88 951.757 98.6C951.757 98.32 951.691 98.0767 951.557 97.87C951.431 97.6567 951.251 97.4867 951.017 97.36C950.791 97.2333 950.521 97.17 950.207 97.17C949.907 97.17 949.637 97.23 949.397 97.35C949.164 97.47 948.981 97.6367 948.847 97.85C948.721 98.0567 948.657 98.2967 948.657 98.57C948.657 98.85 948.724 99.1067 948.857 99.34C948.991 99.5733 949.174 99.7567 949.407 99.89C949.647 100.023 949.921 100.09 950.227 100.09ZM956.627 101.07C956.081 101.07 955.594 100.953 955.167 100.72C954.741 100.48 954.404 100.153 954.157 99.74C953.911 99.3267 953.787 98.8567 953.787 98.33C953.787 97.7967 953.911 97.3267 954.157 96.92C954.404 96.5067 954.741 96.1833 955.167 95.95C955.594 95.7167 956.081 95.6 956.627 95.6C957.181 95.6 957.671 95.7167 958.097 95.95C958.531 96.1833 958.867 96.5033 959.107 96.91C959.354 97.3167 959.477 97.79 959.477 98.33C959.477 98.8567 959.354 99.3267 959.107 99.74C958.867 100.153 958.531 100.48 958.097 100.72C957.671 100.953 957.181 101.07 956.627 101.07ZM956.627 100C956.934 100 957.207 99.9333 957.447 99.8C957.687 99.6667 957.874 99.4733 958.007 99.22C958.147 98.9667 958.217 98.67 958.217 98.33C958.217 97.9833 958.147 97.6867 958.007 97.44C957.874 97.1867 957.687 96.9933 957.447 96.86C957.207 96.7267 956.937 96.66 956.637 96.66C956.331 96.66 956.057 96.7267 955.817 96.86C955.584 96.9933 955.397 97.1867 955.257 97.44C955.117 97.6867 955.047 97.9833 955.047 98.33C955.047 98.67 955.117 98.9667 955.257 99.22C955.397 99.4733 955.584 99.6667 955.817 99.8C956.057 99.9333 956.327 100 956.627 100ZM963.672 101.07C963.239 101.07 962.842 100.97 962.482 100.77C962.129 100.57 961.845 100.27 961.632 99.87C961.425 99.4633 961.322 98.95 961.322 98.33C961.322 97.7033 961.422 97.19 961.622 96.79C961.829 96.39 962.109 96.0933 962.462 95.9C962.815 95.7 963.219 95.6 963.672 95.6C964.199 95.6 964.662 95.7133 965.062 95.94C965.469 96.1667 965.789 96.4833 966.022 96.89C966.262 97.2967 966.382 97.7767 966.382 98.33C966.382 98.8833 966.262 99.3667 966.022 99.78C965.789 100.187 965.469 100.503 965.062 100.73C964.662 100.957 964.199 101.07 963.672 101.07ZM960.712 102.94V95.66H961.902V96.92L961.862 98.34L961.962 99.76V102.94H960.712ZM963.532 100C963.832 100 964.099 99.9333 964.332 99.8C964.572 99.6667 964.762 99.4733 964.902 99.22C965.042 98.9667 965.112 98.67 965.112 98.33C965.112 97.9833 965.042 97.6867 964.902 97.44C964.762 97.1867 964.572 96.9933 964.332 96.86C964.099 96.7267 963.832 96.66 963.532 96.66C963.232 96.66 962.962 96.7267 962.722 96.86C962.482 96.9933 962.292 97.1867 962.152 97.44C962.012 97.6867 961.942 97.9833 961.942 98.33C961.942 98.67 962.012 98.9667 962.152 99.22C962.292 99.4733 962.482 99.6667 962.722 99.8C962.962 99.9333 963.232 100 963.532 100ZM970.798 101V99.92L970.728 99.69V97.8C970.728 97.4333 970.618 97.15 970.398 96.95C970.178 96.7433 969.844 96.64 969.398 96.64C969.098 96.64 968.801 96.6867 968.508 96.78C968.221 96.8733 967.978 97.0033 967.778 97.17L967.288 96.26C967.574 96.04 967.914 95.8767 968.308 95.77C968.708 95.6567 969.121 95.6 969.548 95.6C970.321 95.6 970.918 95.7867 971.338 96.16C971.764 96.5267 971.978 97.0967 971.978 97.87V101H970.798ZM969.118 101.07C968.718 101.07 968.368 101.003 968.068 100.87C967.768 100.73 967.534 100.54 967.368 100.3C967.208 100.053 967.128 99.7767 967.128 99.47C967.128 99.17 967.198 98.9 967.338 98.66C967.484 98.42 967.721 98.23 968.048 98.09C968.374 97.95 968.808 97.88 969.348 97.88H970.898V98.71H969.438C969.011 98.71 968.724 98.78 968.578 98.92C968.431 99.0533 968.358 99.22 968.358 99.42C968.358 99.6467 968.448 99.8267 968.628 99.96C968.808 100.093 969.058 100.16 969.378 100.16C969.684 100.16 969.958 100.09 970.198 99.95C970.444 99.81 970.621 99.6033 970.728 99.33L970.938 100.08C970.818 100.393 970.601 100.637 970.288 100.81C969.981 100.983 969.591 101.07 969.118 101.07ZM974.635 101V96.42L974.925 96.72H972.755V95.66H977.755V96.72H975.595L975.885 96.42V101H974.635ZM980.807 101.07C980.26 101.07 979.774 100.953 979.347 100.72C978.92 100.48 978.584 100.153 978.337 99.74C978.09 99.3267 977.967 98.8567 977.967 98.33C977.967 97.7967 978.09 97.3267 978.337 96.92C978.584 96.5067 978.92 96.1833 979.347 95.95C979.774 95.7167 980.26 95.6 980.807 95.6C981.36 95.6 981.85 95.7167 982.277 95.95C982.71 96.1833 983.047 96.5033 983.287 96.91C983.534 97.3167 983.657 97.79 983.657 98.33C983.657 98.8567 983.534 99.3267 983.287 99.74C983.047 100.153 982.71 100.48 982.277 100.72C981.85 100.953 981.36 101.07 980.807 101.07ZM980.807 100C981.114 100 981.387 99.9333 981.627 99.8C981.867 99.6667 982.054 99.4733 982.187 99.22C982.327 98.9667 982.397 98.67 982.397 98.33C982.397 97.9833 982.327 97.6867 982.187 97.44C982.054 97.1867 981.867 96.9933 981.627 96.86C981.387 96.7267 981.117 96.66 980.817 96.66C980.51 96.66 980.237 96.7267 979.997 96.86C979.764 96.9933 979.577 97.1867 979.437 97.44C979.297 97.6867 979.227 97.9833 979.227 98.33C979.227 98.67 979.297 98.9667 979.437 99.22C979.577 99.4733 979.764 99.6667 979.997 99.8C980.237 99.9333 980.507 100 980.807 100ZM987.852 101.07C987.418 101.07 987.022 100.97 986.662 100.77C986.308 100.57 986.025 100.27 985.812 99.87C985.605 99.4633 985.502 98.95 985.502 98.33C985.502 97.7033 985.602 97.19 985.802 96.79C986.008 96.39 986.288 96.0933 986.642 95.9C986.995 95.7 987.398 95.6 987.852 95.6C988.378 95.6 988.842 95.7133 989.242 95.94C989.648 96.1667 989.968 96.4833 990.202 96.89C990.442 97.2967 990.562 97.7767 990.562 98.33C990.562 98.8833 990.442 99.3667 990.202 99.78C989.968 100.187 989.648 100.503 989.242 100.73C988.842 100.957 988.378 101.07 987.852 101.07ZM984.892 102.94V95.66H986.082V96.92L986.042 98.34L986.142 99.76V102.94H984.892ZM987.712 100C988.012 100 988.278 99.9333 988.512 99.8C988.752 99.6667 988.942 99.4733 989.082 99.22C989.222 98.9667 989.292 98.67 989.292 98.33C989.292 97.9833 989.222 97.6867 989.082 97.44C988.942 97.1867 988.752 96.9933 988.512 96.86C988.278 96.7267 988.012 96.66 987.712 96.66C987.412 96.66 987.142 96.7267 986.902 96.86C986.662 96.9933 986.472 97.1867 986.332 97.44C986.192 97.6867 986.122 97.9833 986.122 98.33C986.122 98.67 986.192 98.9667 986.332 99.22C986.472 99.4733 986.662 99.6667 986.902 99.8C987.142 99.9333 987.412 100 987.712 100ZM991.806 101V95.66H993.056V99.18L996.006 95.66H997.146V101H995.896V97.48L992.956 101H991.806ZM1002.22 101V99.18L1002.4 99.39H1000.8C1000.06 99.39 999.487 99.2367 999.067 98.93C998.654 98.6167 998.447 98.1667 998.447 97.58C998.447 96.9533 998.667 96.4767 999.107 96.15C999.554 95.8233 1000.15 95.66 1000.89 95.66H1003.34V101H1002.22ZM998.377 101L999.817 98.96H1001.1L999.717 101H998.377ZM1002.22 98.78V96.38L1002.4 96.71H1000.93C1000.54 96.71 1000.24 96.7833 1000.03 96.93C999.821 97.07 999.717 97.3 999.717 97.62C999.717 98.22 1000.11 98.52 1000.89 98.52H1002.4L1002.22 98.78Z" fill="white" fill-opacity="0.6"/>
<path d="M58.4049 191L56.0349 187.59L57.0849 186.94L59.8749 191H58.4049ZM53.7749 191V184H55.0549V191H53.7749ZM54.6649 188.05V186.93H57.0249V188.05H54.6649ZM57.2049 187.65L56.0149 187.49L58.4049 184H59.7849L57.2049 187.65ZM60.7541 191V185.66H62.0041V189.18L64.9541 185.66H66.0941V191H64.8441V187.48L61.9041 191H60.7541ZM67.7755 191V185.66H69.0255V187.83H71.7155V185.66H72.9655V191H71.7155V188.89H69.0255V191H67.7755ZM77.0208 191.07C76.4741 191.07 75.9874 190.953 75.5608 190.72C75.1341 190.48 74.7974 190.153 74.5508 189.74C74.3041 189.327 74.1808 188.857 74.1808 188.33C74.1808 187.797 74.3041 187.327 74.5508 186.92C74.7974 186.507 75.1341 186.183 75.5608 185.95C75.9874 185.717 76.4741 185.6 77.0208 185.6C77.5741 185.6 78.0641 185.717 78.4908 185.95C78.9241 186.183 79.2608 186.503 79.5008 186.91C79.7474 187.317 79.8708 187.79 79.8708 188.33C79.8708 188.857 79.7474 189.327 79.5008 189.74C79.2608 190.153 78.9241 190.48 78.4908 190.72C78.0641 190.953 77.5741 191.07 77.0208 191.07ZM77.0208 190C77.3274 190 77.6008 189.933 77.8408 189.8C78.0808 189.667 78.2674 189.473 78.4008 189.22C78.5408 188.967 78.6108 188.67 78.6108 188.33C78.6108 187.983 78.5408 187.687 78.4008 187.44C78.2674 187.187 78.0808 186.993 77.8408 186.86C77.6008 186.727 77.3308 186.66 77.0308 186.66C76.7241 186.66 76.4508 186.727 76.2108 186.86C75.9774 186.993 75.7908 187.187 75.6508 187.44C75.5108 187.687 75.4408 187.983 75.4408 188.33C75.4408 188.67 75.5108 188.967 75.6508 189.22C75.7908 189.473 75.9774 189.667 76.2108 189.8C76.4508 189.933 76.7208 190 77.0208 190ZM82.7175 191.09C82.3108 191.09 81.9075 191.043 81.5075 190.95C81.1142 190.85 80.7575 190.71 80.4375 190.53L80.7875 189.6C81.0475 189.747 81.3408 189.86 81.6675 189.94C81.9942 190.02 82.3208 190.06 82.6475 190.06C82.9275 190.06 83.1675 190.033 83.3675 189.98C83.5675 189.92 83.7208 189.833 83.8275 189.72C83.9408 189.607 83.9975 189.477 83.9975 189.33C83.9975 189.117 83.9042 188.957 83.7175 188.85C83.5375 188.737 83.2775 188.68 82.9375 188.68H81.9075V187.84H82.8375C83.0508 187.84 83.2308 187.817 83.3775 187.77C83.5308 187.723 83.6475 187.653 83.7275 187.56C83.8075 187.467 83.8475 187.357 83.8475 187.23C83.8475 187.103 83.7975 186.993 83.6975 186.9C83.6042 186.8 83.4675 186.727 83.2875 186.68C83.1075 186.627 82.8908 186.6 82.6375 186.6C82.3708 186.6 82.0942 186.633 81.8075 186.7C81.5275 186.767 81.2408 186.863 80.9475 186.99L80.6275 186.07C80.9675 185.917 81.2975 185.8 81.6175 185.72C81.9442 185.633 82.2675 185.587 82.5875 185.58C83.0742 185.56 83.5075 185.61 83.8875 185.73C84.2675 185.85 84.5675 186.023 84.7875 186.25C85.0075 186.477 85.1175 186.743 85.1175 187.05C85.1175 187.303 85.0375 187.533 84.8775 187.74C84.7242 187.94 84.5108 188.097 84.2375 188.21C83.9708 188.323 83.6642 188.38 83.3175 188.38L83.3575 188.11C83.9508 188.11 84.4175 188.23 84.7575 188.47C85.0975 188.703 85.2675 189.023 85.2675 189.43C85.2675 189.757 85.1575 190.047 84.9375 190.3C84.7175 190.547 84.4142 190.74 84.0275 190.88C83.6475 191.02 83.2108 191.09 82.7175 191.09ZM89.7948 191V189.92L89.7248 189.69V187.8C89.7248 187.433 89.6148 187.15 89.3948 186.95C89.1748 186.743 88.8415 186.64 88.3948 186.64C88.0948 186.64 87.7982 186.687 87.5048 186.78C87.2182 186.873 86.9748 187.003 86.7748 187.17L86.2848 186.26C86.5715 186.04 86.9115 185.877 87.3048 185.77C87.7048 185.657 88.1182 185.6 88.5448 185.6C89.3182 185.6 89.9148 185.787 90.3348 186.16C90.7615 186.527 90.9748 187.097 90.9748 187.87V191H89.7948ZM88.1148 191.07C87.7148 191.07 87.3648 191.003 87.0648 190.87C86.7648 190.73 86.5315 190.54 86.3648 190.3C86.2048 190.053 86.1248 189.777 86.1248 189.47C86.1248 189.17 86.1948 188.9 86.3348 188.66C86.4815 188.42 86.7182 188.23 87.0448 188.09C87.3715 187.95 87.8048 187.88 88.3448 187.88H89.8948V188.71H88.4348C88.0082 188.71 87.7215 188.78 87.5748 188.92C87.4282 189.053 87.3548 189.22 87.3548 189.42C87.3548 189.647 87.4448 189.827 87.6248 189.96C87.8048 190.093 88.0548 190.16 88.3748 190.16C88.6815 190.16 88.9548 190.09 89.1948 189.95C89.4415 189.81 89.6182 189.603 89.7248 189.33L89.9348 190.08C89.8148 190.393 89.5982 190.637 89.2848 190.81C88.9782 190.983 88.5882 191.07 88.1148 191.07ZM91.7416 190.99L91.8016 189.94C91.8483 189.947 91.8916 189.953 91.9316 189.96C91.9716 189.967 92.0083 189.97 92.0416 189.97C92.2483 189.97 92.4083 189.907 92.5216 189.78C92.635 189.653 92.7183 189.483 92.7716 189.27C92.8316 189.05 92.8716 188.807 92.8916 188.54C92.9183 188.267 92.9383 187.993 92.9516 187.72L93.0416 185.66H97.3616V191H96.1116V186.38L96.4016 186.72H93.8616L94.1316 186.37L94.0616 187.78C94.0416 188.253 94.0016 188.693 93.9416 189.1C93.8883 189.5 93.8016 189.85 93.6816 190.15C93.5683 190.45 93.4083 190.683 93.2016 190.85C93.0016 191.017 92.745 191.1 92.4316 191.1C92.3316 191.1 92.2216 191.09 92.1016 191.07C91.9883 191.05 91.8683 191.023 91.7416 190.99Z" fill="white" fill-opacity="0.6"/>
<path d="M95.3873 58L93.0173 54.59L94.0673 53.94L96.8573 58H95.3873ZM90.7573 58V51H92.0373V58H90.7573ZM91.6473 55.05V53.93H94.0073V55.05H91.6473ZM94.1873 54.65L92.9973 54.49L95.3873 51H96.7673L94.1873 54.65ZM100.908 58V56.92L100.838 56.69V54.8C100.838 54.4333 100.728 54.15 100.508 53.95C100.288 53.7433 99.9548 53.64 99.5081 53.64C99.2081 53.64 98.9115 53.6867 98.6181 53.78C98.3315 53.8733 98.0881 54.0033 97.8881 54.17L97.3981 53.26C97.6848 53.04 98.0248 52.8767 98.4181 52.77C98.8181 52.6567 99.2315 52.6 99.6581 52.6C100.431 52.6 101.028 52.7867 101.448 53.16C101.875 53.5267 102.088 54.0967 102.088 54.87V58H100.908ZM99.2281 58.07C98.8281 58.07 98.4781 58.0033 98.1781 57.87C97.8781 57.73 97.6448 57.54 97.4781 57.3C97.3181 57.0533 97.2381 56.7767 97.2381 56.47C97.2381 56.17 97.3081 55.9 97.4481 55.66C97.5948 55.42 97.8315 55.23 98.1581 55.09C98.4848 54.95 98.9181 54.88 99.4581 54.88H101.008V55.71H99.5481C99.1215 55.71 98.8348 55.78 98.6881 55.92C98.5415 56.0533 98.4681 56.22 98.4681 56.42C98.4681 56.6467 98.5581 56.8267 98.7381 56.96C98.9181 57.0933 99.1681 57.16 99.4881 57.16C99.7948 57.16 100.068 57.09 100.308 56.95C100.555 56.81 100.731 56.6033 100.838 56.33L101.048 57.08C100.928 57.3933 100.711 57.6367 100.398 57.81C100.091 57.9833 99.7015 58.07 99.2281 58.07ZM106.185 58.1C105.745 58.1 105.352 58.0333 105.005 57.9C104.658 57.7667 104.358 57.5633 104.105 57.29C103.858 57.01 103.668 56.6567 103.535 56.23C103.402 55.8033 103.335 55.2967 103.335 54.71C103.335 54.2833 103.372 53.8933 103.445 53.54C103.518 53.1867 103.628 52.87 103.775 52.59C103.922 52.3033 104.105 52.05 104.325 51.83C104.552 51.61 104.815 51.4267 105.115 51.28C105.415 51.1333 105.755 51.02 106.135 50.94L108.615 50.41L108.795 51.53L106.545 51.99C106.418 52.0167 106.265 52.0567 106.085 52.11C105.912 52.1567 105.732 52.23 105.545 52.33C105.365 52.4233 105.195 52.56 105.035 52.74C104.882 52.9133 104.755 53.14 104.655 53.42C104.562 53.6933 104.515 54.0367 104.515 54.45C104.515 54.5767 104.518 54.6733 104.525 54.74C104.538 54.8 104.548 54.8667 104.555 54.94C104.568 55.0067 104.575 55.1067 104.575 55.24L104.105 54.75C104.238 54.41 104.422 54.12 104.655 53.88C104.895 53.6333 105.172 53.4467 105.485 53.32C105.805 53.1867 106.152 53.12 106.525 53.12C107.025 53.12 107.468 53.2233 107.855 53.43C108.242 53.6367 108.545 53.9267 108.765 54.3C108.985 54.6733 109.095 55.0967 109.095 55.57C109.095 56.0633 108.975 56.5 108.735 56.88C108.495 57.26 108.155 57.56 107.715 57.78C107.282 57.9933 106.772 58.1 106.185 58.1ZM106.285 57.09C106.585 57.09 106.848 57.0267 107.075 56.9C107.308 56.7667 107.488 56.5867 107.615 56.36C107.748 56.1333 107.815 55.88 107.815 55.6C107.815 55.32 107.748 55.0767 107.615 54.87C107.488 54.6567 107.308 54.4867 107.075 54.36C106.848 54.2333 106.578 54.17 106.265 54.17C105.965 54.17 105.695 54.23 105.455 54.35C105.222 54.47 105.038 54.6367 104.905 54.85C104.778 55.0567 104.715 55.2967 104.715 55.57C104.715 55.85 104.782 56.1067 104.915 56.34C105.048 56.5733 105.232 56.7567 105.465 56.89C105.705 57.0233 105.978 57.09 106.285 57.09ZM110.305 58V52.66H111.555V56.18L114.505 52.66H115.645V58H114.395V54.48L111.455 58H110.305ZM117.326 58V52.66H118.576V54.83H121.266V52.66H122.516V58H121.266V55.89H118.576V58H117.326ZM126.682 58.07C126.088 58.07 125.568 57.9533 125.122 57.72C124.682 57.48 124.338 57.1533 124.092 56.74C123.852 56.3267 123.732 55.8567 123.732 55.33C123.732 54.7967 123.848 54.3267 124.082 53.92C124.322 53.5067 124.648 53.1833 125.062 52.95C125.482 52.7167 125.958 52.6 126.492 52.6C127.012 52.6 127.475 52.7133 127.882 52.94C128.288 53.1667 128.608 53.4867 128.842 53.9C129.075 54.3133 129.192 54.8 129.192 55.36C129.192 55.4133 129.188 55.4733 129.182 55.54C129.182 55.6067 129.178 55.67 129.172 55.73H124.722V54.9H128.512L128.022 55.16C128.028 54.8533 127.965 54.5833 127.832 54.35C127.698 54.1167 127.515 53.9333 127.282 53.8C127.055 53.6667 126.792 53.6 126.492 53.6C126.185 53.6 125.915 53.6667 125.682 53.8C125.455 53.9333 125.275 54.12 125.142 54.36C125.015 54.5933 124.952 54.87 124.952 55.19V55.39C124.952 55.71 125.025 55.9933 125.172 56.24C125.318 56.4867 125.525 56.6767 125.792 56.81C126.058 56.9433 126.365 57.01 126.712 57.01C127.012 57.01 127.282 56.9633 127.522 56.87C127.762 56.7767 127.975 56.63 128.162 56.43L128.832 57.2C128.592 57.48 128.288 57.6967 127.922 57.85C127.562 57.9967 127.148 58.07 126.682 58.07ZM131.464 58V53.42L131.754 53.72H129.584V52.66H134.584V53.72H132.424L132.714 53.42V58H131.464ZM138.974 58V51.5L139.544 52.09H137.494V51H140.274V58H138.974Z" fill="white" fill-opacity="0.6"/>
<path d="M808.372 78L806.002 74.59L807.052 73.94L809.842 78H808.372ZM803.742 78V71H805.022V78H803.742ZM804.632 75.05V73.93H806.992V75.05H804.632ZM807.172 74.65L805.982 74.49L808.372 71H809.752L807.172 74.65ZM813.893 78V76.92L813.823 76.69V74.8C813.823 74.4333 813.713 74.15 813.493 73.95C813.273 73.7433 812.939 73.64 812.493 73.64C812.193 73.64 811.896 73.6867 811.603 73.78C811.316 73.8733 811.073 74.0033 810.873 74.17L810.383 73.26C810.669 73.04 811.009 72.8767 811.403 72.77C811.803 72.6567 812.216 72.6 812.643 72.6C813.416 72.6 814.013 72.7867 814.433 73.16C814.859 73.5267 815.073 74.0967 815.073 74.87V78H813.893ZM812.213 78.07C811.813 78.07 811.463 78.0033 811.163 77.87C810.863 77.73 810.629 77.54 810.463 77.3C810.303 77.0533 810.223 76.7767 810.223 76.47C810.223 76.17 810.293 75.9 810.433 75.66C810.579 75.42 810.816 75.23 811.143 75.09C811.469 74.95 811.903 74.88 812.443 74.88H813.993V75.71H812.533C812.106 75.71 811.819 75.78 811.673 75.92C811.526 76.0533 811.453 76.22 811.453 76.42C811.453 76.6467 811.543 76.8267 811.723 76.96C811.903 77.0933 812.153 77.16 812.473 77.16C812.779 77.16 813.053 77.09 813.293 76.95C813.539 76.81 813.716 76.6033 813.823 76.33L814.033 77.08C813.913 77.3933 813.696 77.6367 813.383 77.81C813.076 77.9833 812.686 78.07 812.213 78.07ZM819.169 78.1C818.729 78.1 818.336 78.0333 817.989 77.9C817.643 77.7667 817.343 77.5633 817.089 77.29C816.843 77.01 816.653 76.6567 816.519 76.23C816.386 75.8033 816.319 75.2967 816.319 74.71C816.319 74.2833 816.356 73.8933 816.429 73.54C816.503 73.1867 816.613 72.87 816.759 72.59C816.906 72.3033 817.089 72.05 817.309 71.83C817.536 71.61 817.799 71.4267 818.099 71.28C818.399 71.1333 818.739 71.02 819.119 70.94L821.599 70.41L821.779 71.53L819.529 71.99C819.403 72.0167 819.249 72.0567 819.069 72.11C818.896 72.1567 818.716 72.23 818.529 72.33C818.349 72.4233 818.179 72.56 818.019 72.74C817.866 72.9133 817.739 73.14 817.639 73.42C817.546 73.6933 817.499 74.0367 817.499 74.45C817.499 74.5767 817.503 74.6733 817.509 74.74C817.523 74.8 817.533 74.8667 817.539 74.94C817.553 75.0067 817.559 75.1067 817.559 75.24L817.089 74.75C817.223 74.41 817.406 74.12 817.639 73.88C817.879 73.6333 818.156 73.4467 818.469 73.32C818.789 73.1867 819.136 73.12 819.509 73.12C820.009 73.12 820.453 73.2233 820.839 73.43C821.226 73.6367 821.529 73.9267 821.749 74.3C821.969 74.6733 822.079 75.0967 822.079 75.57C822.079 76.0633 821.959 76.5 821.719 76.88C821.479 77.26 821.139 77.56 820.699 77.78C820.266 77.9933 819.756 78.1 819.169 78.1ZM819.269 77.09C819.569 77.09 819.833 77.0267 820.059 76.9C820.293 76.7667 820.473 76.5867 820.599 76.36C820.733 76.1333 820.799 75.88 820.799 75.6C820.799 75.32 820.733 75.0767 820.599 74.87C820.473 74.6567 820.293 74.4867 820.059 74.36C819.833 74.2333 819.563 74.17 819.249 74.17C818.949 74.17 818.679 74.23 818.439 74.35C818.206 74.47 818.023 74.6367 817.889 74.85C817.763 75.0567 817.699 75.2967 817.699 75.57C817.699 75.85 817.766 76.1067 817.899 76.34C818.033 76.5733 818.216 76.7567 818.449 76.89C818.689 77.0233 818.963 77.09 819.269 77.09ZM823.289 78V72.66H824.539V76.18L827.489 72.66H828.629V78H827.379V74.48L824.439 78H823.289ZM830.311 78V72.66H831.561V74.83H834.251V72.66H835.501V78H834.251V75.89H831.561V78H830.311ZM839.666 78.07C839.073 78.07 838.553 77.9533 838.106 77.72C837.666 77.48 837.323 77.1533 837.076 76.74C836.836 76.3267 836.716 75.8567 836.716 75.33C836.716 74.7967 836.833 74.3267 837.066 73.92C837.306 73.5067 837.633 73.1833 838.046 72.95C838.466 72.7167 838.943 72.6 839.476 72.6C839.996 72.6 840.459 72.7133 840.866 72.94C841.273 73.1667 841.593 73.4867 841.826 73.9C842.059 74.3133 842.176 74.8 842.176 75.36C842.176 75.4133 842.173 75.4733 842.166 75.54C842.166 75.6067 842.163 75.67 842.156 75.73H837.706V74.9H841.496L841.006 75.16C841.013 74.8533 840.949 74.5833 840.816 74.35C840.683 74.1167 840.499 73.9333 840.266 73.8C840.039 73.6667 839.776 73.6 839.476 73.6C839.169 73.6 838.899 73.6667 838.666 73.8C838.439 73.9333 838.259 74.12 838.126 74.36C837.999 74.5933 837.936 74.87 837.936 75.19V75.39C837.936 75.71 838.009 75.9933 838.156 76.24C838.303 76.4867 838.509 76.6767 838.776 76.81C839.043 76.9433 839.349 77.01 839.696 77.01C839.996 77.01 840.266 76.9633 840.506 76.87C840.746 76.7767 840.959 76.63 841.146 76.43L841.816 77.2C841.576 77.48 841.273 77.6967 840.906 77.85C840.546 77.9967 840.133 78.07 839.666 78.07ZM844.448 78V73.42L844.738 73.72H842.568V72.66H847.568V73.72H845.408L845.698 73.42V78H844.448ZM853.158 78.1C852.665 78.1 852.182 78.03 851.708 77.89C851.242 77.7433 850.848 77.5433 850.528 77.29L851.078 76.28C851.332 76.4867 851.638 76.6533 851.998 76.78C852.365 76.9067 852.745 76.97 853.138 76.97C853.598 76.97 853.958 76.8733 854.218 76.68C854.485 76.4867 854.618 76.2267 854.618 75.9C854.618 75.68 854.562 75.4867 854.448 75.32C854.342 75.1533 854.148 75.0267 853.868 74.94C853.595 74.8533 853.218 74.81 852.738 74.81H851.048L851.408 71H855.518V72.09H851.888L852.568 71.47L852.298 74.32L851.618 73.71H853.028C853.722 73.71 854.278 73.8033 854.698 73.99C855.125 74.17 855.435 74.4233 855.628 74.75C855.828 75.07 855.928 75.4367 855.928 75.85C855.928 76.2567 855.828 76.63 855.628 76.97C855.428 77.31 855.122 77.5833 854.708 77.79C854.302 77.9967 853.785 78.1 853.158 78.1Z" fill="white" fill-opacity="0.6"/>
<path d="M247.436 91.31L247.856 90.36C248.156 90.5667 248.483 90.7267 248.836 90.84C249.196 90.9467 249.553 91.0033 249.906 91.01C250.26 91.0167 250.58 90.9767 250.866 90.89C251.16 90.8033 251.393 90.6733 251.566 90.5C251.74 90.3267 251.826 90.11 251.826 89.85C251.826 89.5367 251.696 89.3033 251.436 89.15C251.183 88.99 250.836 88.91 250.396 88.91H248.766V87.89H250.296C250.69 87.89 250.993 87.81 251.206 87.65C251.426 87.49 251.536 87.2733 251.536 87C251.536 86.7733 251.463 86.5867 251.316 86.44C251.176 86.2933 250.983 86.1833 250.736 86.11C250.496 86.0367 250.223 86.0033 249.916 86.01C249.616 86.01 249.303 86.0567 248.976 86.15C248.65 86.2367 248.34 86.3667 248.046 86.54L247.636 85.49C248.076 85.2567 248.536 85.0933 249.016 85C249.503 84.9067 249.973 84.88 250.426 84.92C250.88 84.96 251.286 85.0633 251.646 85.23C252.013 85.3967 252.306 85.6167 252.526 85.89C252.746 86.1567 252.856 86.4733 252.856 86.84C252.856 87.1733 252.766 87.47 252.586 87.73C252.413 87.9833 252.173 88.18 251.866 88.32C251.56 88.46 251.203 88.53 250.796 88.53L250.846 88.21C251.306 88.21 251.706 88.29 252.046 88.45C252.393 88.6033 252.66 88.8167 252.846 89.09C253.04 89.3633 253.136 89.68 253.136 90.04C253.136 90.38 253.05 90.6833 252.876 90.95C252.703 91.21 252.466 91.43 252.166 91.61C251.866 91.7833 251.523 91.9133 251.136 92C250.75 92.08 250.343 92.11 249.916 92.09C249.49 92.07 249.063 91.9967 248.636 91.87C248.216 91.7433 247.816 91.5567 247.436 91.31ZM256.971 92.07C256.377 92.07 255.857 91.9533 255.411 91.72C254.971 91.48 254.627 91.1533 254.381 90.74C254.141 90.3267 254.021 89.8567 254.021 89.33C254.021 88.7967 254.137 88.3267 254.371 87.92C254.611 87.5067 254.937 87.1833 255.351 86.95C255.771 86.7167 256.247 86.6 256.781 86.6C257.301 86.6 257.764 86.7133 258.171 86.94C258.577 87.1667 258.897 87.4867 259.131 87.9C259.364 88.3133 259.481 88.8 259.481 89.36C259.481 89.4133 259.477 89.4733 259.471 89.54C259.471 89.6067 259.467 89.67 259.461 89.73H255.011V88.9H258.801L258.311 89.16C258.317 88.8533 258.254 88.5833 258.121 88.35C257.987 88.1167 257.804 87.9333 257.571 87.8C257.344 87.6667 257.081 87.6 256.781 87.6C256.474 87.6 256.204 87.6667 255.971 87.8C255.744 87.9333 255.564 88.12 255.431 88.36C255.304 88.5933 255.241 88.87 255.241 89.19V89.39C255.241 89.71 255.314 89.9933 255.461 90.24C255.607 90.4867 255.814 90.6767 256.081 90.81C256.347 90.9433 256.654 91.01 257.001 91.01C257.301 91.01 257.571 90.9633 257.811 90.87C258.051 90.7767 258.264 90.63 258.451 90.43L259.121 91.2C258.881 91.48 258.577 91.6967 258.211 91.85C257.851 91.9967 257.437 92.07 256.971 92.07ZM259.999 91.99L260.059 90.94C260.106 90.9467 260.149 90.9533 260.189 90.96C260.229 90.9667 260.266 90.97 260.299 90.97C260.506 90.97 260.666 90.9067 260.779 90.78C260.893 90.6533 260.976 90.4833 261.029 90.27C261.089 90.05 261.129 89.8067 261.149 89.54C261.176 89.2667 261.196 88.9933 261.209 88.72L261.299 86.66H265.619V92H264.369V87.38L264.659 87.72H262.119L262.389 87.37L262.319 88.78C262.299 89.2533 262.259 89.6933 262.199 90.1C262.146 90.5 262.059 90.85 261.939 91.15C261.826 91.45 261.666 91.6833 261.459 91.85C261.259 92.0167 261.003 92.1 260.689 92.1C260.589 92.1 260.479 92.09 260.359 92.07C260.246 92.05 260.126 92.0233 259.999 91.99ZM269.793 92.07C269.2 92.07 268.68 91.9533 268.233 91.72C267.793 91.48 267.45 91.1533 267.203 90.74C266.963 90.3267 266.843 89.8567 266.843 89.33C266.843 88.7967 266.96 88.3267 267.193 87.92C267.433 87.5067 267.76 87.1833 268.173 86.95C268.593 86.7167 269.07 86.6 269.603 86.6C270.123 86.6 270.586 86.7133 270.993 86.94C271.4 87.1667 271.72 87.4867 271.953 87.9C272.186 88.3133 272.303 88.8 272.303 89.36C272.303 89.4133 272.3 89.4733 272.293 89.54C272.293 89.6067 272.29 89.67 272.283 89.73H267.833V88.9H271.623L271.133 89.16C271.14 88.8533 271.076 88.5833 270.943 88.35C270.81 88.1167 270.626 87.9333 270.393 87.8C270.166 87.6667 269.903 87.6 269.603 87.6C269.296 87.6 269.026 87.6667 268.793 87.8C268.566 87.9333 268.386 88.12 268.253 88.36C268.126 88.5933 268.063 88.87 268.063 89.19V89.39C268.063 89.71 268.136 89.9933 268.283 90.24C268.43 90.4867 268.636 90.6767 268.903 90.81C269.17 90.9433 269.476 91.01 269.823 91.01C270.123 91.01 270.393 90.9633 270.633 90.87C270.873 90.7767 271.086 90.63 271.273 90.43L271.943 91.2C271.703 91.48 271.4 91.6967 271.033 91.85C270.673 91.9967 270.26 92.07 269.793 92.07ZM273.67 92V86.66H274.92V88.83H277.61V86.66H278.86V92H277.61V89.89H274.92V92H273.67ZM283.775 92V90.92L283.705 90.69V88.8C283.705 88.4333 283.595 88.15 283.375 87.95C283.155 87.7433 282.822 87.64 282.375 87.64C282.075 87.64 281.779 87.6867 281.485 87.78C281.199 87.8733 280.955 88.0033 280.755 88.17L280.265 87.26C280.552 87.04 280.892 86.8767 281.285 86.77C281.685 86.6567 282.099 86.6 282.525 86.6C283.299 86.6 283.895 86.7867 284.315 87.16C284.742 87.5267 284.955 88.0967 284.955 88.87V92H283.775ZM282.095 92.07C281.695 92.07 281.345 92.0033 281.045 91.87C280.745 91.73 280.512 91.54 280.345 91.3C280.185 91.0533 280.105 90.7767 280.105 90.47C280.105 90.17 280.175 89.9 280.315 89.66C280.462 89.42 280.699 89.23 281.025 89.09C281.352 88.95 281.785 88.88 282.325 88.88H283.875V89.71H282.415C281.989 89.71 281.702 89.78 281.555 89.92C281.409 90.0533 281.335 90.22 281.335 90.42C281.335 90.6467 281.425 90.8267 281.605 90.96C281.785 91.0933 282.035 91.16 282.355 91.16C282.662 91.16 282.935 91.09 283.175 90.95C283.422 90.81 283.599 90.6033 283.705 90.33L283.915 91.08C283.795 91.3933 283.579 91.6367 283.265 91.81C282.959 91.9833 282.569 92.07 282.095 92.07ZM289.892 92V90.18L290.072 90.39H288.472C287.739 90.39 287.162 90.2367 286.742 89.93C286.329 89.6167 286.122 89.1667 286.122 88.58C286.122 87.9533 286.342 87.4767 286.782 87.15C287.229 86.8233 287.822 86.66 288.562 86.66H291.012V92H289.892ZM286.052 92L287.492 89.96H288.772L287.392 92H286.052ZM289.892 89.78V87.38L290.072 87.71H288.602C288.215 87.71 287.915 87.7833 287.702 87.93C287.495 88.07 287.392 88.3 287.392 88.62C287.392 89.22 287.782 89.52 288.562 89.52H290.072L289.892 89.78ZM256.894 103.31L257.314 102.36C257.614 102.567 257.941 102.727 258.294 102.84C258.654 102.947 259.011 103.003 259.364 103.01C259.718 103.017 260.038 102.977 260.324 102.89C260.618 102.803 260.851 102.673 261.024 102.5C261.198 102.327 261.284 102.11 261.284 101.85C261.284 101.537 261.154 101.303 260.894 101.15C260.641 100.99 260.294 100.91 259.854 100.91H258.224V99.89H259.754C260.148 99.89 260.451 99.81 260.664 99.65C260.884 99.49 260.994 99.2733 260.994 99C260.994 98.7733 260.921 98.5867 260.774 98.44C260.634 98.2933 260.441 98.1833 260.194 98.11C259.954 98.0367 259.681 98.0033 259.374 98.01C259.074 98.01 258.761 98.0567 258.434 98.15C258.108 98.2367 257.798 98.3667 257.504 98.54L257.094 97.49C257.534 97.2567 257.994 97.0933 258.474 97C258.961 96.9067 259.431 96.88 259.884 96.92C260.338 96.96 260.744 97.0633 261.104 97.23C261.471 97.3967 261.764 97.6167 261.984 97.89C262.204 98.1567 262.314 98.4733 262.314 98.84C262.314 99.1733 262.224 99.47 262.044 99.73C261.871 99.9833 261.631 100.18 261.324 100.32C261.018 100.46 260.661 100.53 260.254 100.53L260.304 100.21C260.764 100.21 261.164 100.29 261.504 100.45C261.851 100.603 262.118 100.817 262.304 101.09C262.498 101.363 262.594 101.68 262.594 102.04C262.594 102.38 262.508 102.683 262.334 102.95C262.161 103.21 261.924 103.43 261.624 103.61C261.324 103.783 260.981 103.913 260.594 104C260.208 104.08 259.801 104.11 259.374 104.09C258.948 104.07 258.521 103.997 258.094 103.87C257.674 103.743 257.274 103.557 256.894 103.31ZM266.319 104.07C265.772 104.07 265.285 103.953 264.859 103.72C264.432 103.48 264.095 103.153 263.849 102.74C263.602 102.327 263.479 101.857 263.479 101.33C263.479 100.797 263.602 100.327 263.849 99.92C264.095 99.5067 264.432 99.1833 264.859 98.95C265.285 98.7167 265.772 98.6 266.319 98.6C266.872 98.6 267.362 98.7167 267.789 98.95C268.222 99.1833 268.559 99.5033 268.799 99.91C269.045 100.317 269.169 100.79 269.169 101.33C269.169 101.857 269.045 102.327 268.799 102.74C268.559 103.153 268.222 103.48 267.789 103.72C267.362 103.953 266.872 104.07 266.319 104.07ZM266.319 103C266.625 103 266.899 102.933 267.139 102.8C267.379 102.667 267.565 102.473 267.699 102.22C267.839 101.967 267.909 101.67 267.909 101.33C267.909 100.983 267.839 100.687 267.699 100.44C267.565 100.187 267.379 99.9933 267.139 99.86C266.899 99.7267 266.629 99.66 266.329 99.66C266.022 99.66 265.749 99.7267 265.509 99.86C265.275 99.9933 265.089 100.187 264.949 100.44C264.809 100.687 264.739 100.983 264.739 101.33C264.739 101.67 264.809 101.967 264.949 102.22C265.089 102.473 265.275 102.667 265.509 102.8C265.749 102.933 266.019 103 266.319 103ZM270.403 104V98.66H271.653V100.83H274.343V98.66H275.593V104H274.343V101.89H271.653V104H270.403ZM280.509 104V102.92L280.439 102.69V100.8C280.439 100.433 280.329 100.15 280.109 99.95C279.889 99.7433 279.555 99.64 279.109 99.64C278.809 99.64 278.512 99.6867 278.219 99.78C277.932 99.8733 277.689 100.003 277.489 100.17L276.999 99.26C277.285 99.04 277.625 98.8767 278.019 98.77C278.419 98.6567 278.832 98.6 279.259 98.6C280.032 98.6 280.629 98.7867 281.049 99.16C281.475 99.5267 281.689 100.097 281.689 100.87V104H280.509ZM278.829 104.07C278.429 104.07 278.079 104.003 277.779 103.87C277.479 103.73 277.245 103.54 277.079 103.3C276.919 103.053 276.839 102.777 276.839 102.47C276.839 102.17 276.909 101.9 277.049 101.66C277.195 101.42 277.432 101.23 277.759 101.09C278.085 100.95 278.519 100.88 279.059 100.88H280.609V101.71H279.149C278.722 101.71 278.435 101.78 278.289 101.92C278.142 102.053 278.069 102.22 278.069 102.42C278.069 102.647 278.159 102.827 278.339 102.96C278.519 103.093 278.769 103.16 279.089 103.16C279.395 103.16 279.669 103.09 279.909 102.95C280.155 102.81 280.332 102.603 280.439 102.33L280.649 103.08C280.529 103.393 280.312 103.637 279.999 103.81C279.692 103.983 279.302 104.07 278.829 104.07Z" fill="white" fill-opacity="0.6"/>
<path d="M260.719 50.0216V47.4302C260.719 46.1043 261.804 45.0195 263.13 45.0195H275.183C276.509 45.0195 277.594 46.1043 277.594 47.4302V50.0336C276.196 50.5278 275.183 51.8537 275.183 53.4206V55.8674H263.13V53.4085C263.13 51.8537 262.118 50.5158 260.719 50.0216ZM278.799 51.0461C277.473 51.0461 276.389 52.1309 276.389 53.4567V57.0727H261.925V53.4567C261.925 52.1309 260.852 51.0461 259.514 51.0461C258.176 51.0461 257.104 52.1309 257.104 53.4567V59.4833C257.104 60.8092 258.188 61.894 259.514 61.894V64.3046H261.925V61.894H276.389V64.3046H278.799V61.894C280.125 61.894 281.21 60.8092 281.21 59.4833V53.4567C281.21 52.1309 280.125 51.0461 278.799 51.0461Z" fill="white" fill-opacity="0.5"/>
<circle opacity="0.4" cx="269.5" cy="54.5" r="17.5" fill="#36BA6B"/>
<path d="M151.965 149.885V146.923C151.965 145.408 153.204 144.168 154.72 144.168H168.495C170.01 144.168 171.25 145.408 171.25 146.923V149.898C169.652 150.463 168.495 151.978 168.495 153.769V156.566H154.72V153.755C154.72 151.978 153.562 150.449 151.965 149.885ZM172.627 151.055C171.112 151.055 169.872 152.295 169.872 153.811V157.943H153.342V153.811C153.342 152.295 152.116 151.055 150.587 151.055C149.058 151.055 147.832 152.295 147.832 153.811V160.698C147.832 162.213 149.072 163.453 150.587 163.453V166.208H153.342V163.453H169.872V166.208H172.627V163.453C174.142 163.453 175.382 162.213 175.382 160.698V153.811C175.382 152.295 174.142 151.055 172.627 151.055Z" fill="white" fill-opacity="0.5"/>
<circle opacity="0.4" cx="162" cy="155" r="20" fill="#36BA6B"/>
<path d="M223.5 176.5L315.5 176.5" stroke="#36BA6B" stroke-opacity="0.2"/>
<line x1="19.5" y1="292" x2="19.5" y2="18" stroke="#36BA6B" stroke-opacity="0.2"/>
<path d="M381.495 290.5L535.473 290.5" stroke="#EAA360" stroke-opacity="0.2"/>
<path d="M624.505 289.498L679.5 289.501" stroke="#EAA360" stroke-opacity="0.2"/>
<path d="M1019.78 290.499L1019.01 19.5" stroke="#EAA360" stroke-opacity="0.2"/>
<path d="M740 19H1019.5" stroke="#EAA360" stroke-opacity="0.2"/>
<path opacity="0.6" d="M565.707 73.8341C565.702 73.8801 565.514 73.8341 565.408 73.8648C565.569 74.044 565.71 74.2119 565.834 74.4011C565.651 74.3813 565.395 74.2248 565.123 74.2583C565.09 74.2677 565.15 74.4539 565.185 74.5927C565.239 74.7887 565.001 74.5309 564.912 74.4791C564.559 74.2608 563.834 74.1477 563.88 73.5359C563.688 73.4238 563.489 73.3132 563.284 73.207C562.739 73.4727 562.218 73.8411 562.163 74.4277C562.087 75.1398 562.784 75.8722 563.813 75.6776C564.162 75.6144 564.448 75.4075 564.761 75.2549C565.08 75.0939 565.451 74.9749 565.809 74.9413C566.117 74.9092 566.911 74.9848 566.904 74.6904C566.901 74.3843 566.469 74.5927 566.236 74.5927C566.398 74.5057 566.45 74.3097 566.522 74.1309C566.369 74.086 566.263 74.1181 566.132 74.1477C566.225 73.9418 566.328 73.7176 566.448 73.5359C566.32 73.5191 566.155 73.5443 566.014 73.5902C566.137 73.3497 566.27 73.0964 566.448 72.9102C566.322 72.9102 566.192 72.9102 566.062 72.9102C566.29 72.6988 566.395 72.3448 566.822 72.3151C566.781 72.1542 566.494 72.2648 566.345 72.1191C566.632 72.0213 566.849 71.845 567.254 71.8559C567.229 71.803 567.06 71.604 566.977 71.4934C567.188 71.5132 567.699 71.5398 567.93 71.6574C568.121 71.4751 568.462 71.4164 568.842 71.4934C568.759 71.5843 568.611 71.6085 568.56 71.7216C568.899 71.9863 569.408 72.0924 569.827 72.2845C569.827 72.5951 569.606 72.7448 569.405 72.9453C569.326 72.7675 569.048 72.8025 568.84 72.7546C568.79 72.7744 568.787 72.8445 568.781 72.9033C569.153 72.9142 569.441 73.0865 569.754 73.0109C570.045 72.9369 570.034 72.5517 570.353 72.5448C570.171 72.6845 570.262 73.0796 570.038 73.1734C569.514 73.246 569.215 72.9813 568.819 73.0445C568.85 73.2445 569.153 73.2781 569.316 73.165C569.334 73.2781 569.482 73.2169 569.506 73.3048C569.551 73.4672 569.324 73.6396 569.226 73.7176C569.212 73.4825 568.814 73.4208 568.697 73.5359C568.4 73.8282 569.313 73.9448 569.543 74.2638C569.472 74.2638 569.365 74.2751 569.291 74.2751C569.292 74.4178 569.514 74.3714 569.616 74.3616C569.821 74.3339 570.054 74.0746 570.108 73.8341C570.152 73.6322 569.968 73.3428 570.294 73.2741C570.497 73.2613 570.512 73.124 570.669 73.0737C570.833 72.9912 570.593 73.1749 570.65 73.284C570.666 73.284 570.677 73.2811 570.69 73.2811C570.797 73.2811 570.906 73.3344 570.963 73.4208C571.039 73.3788 571.191 73.4544 571.212 73.5833C571.112 73.5581 571.039 73.5413 571.002 73.5976C570.945 73.7008 570.953 73.7922 571.002 73.845C571.033 73.8746 571.068 74.0327 571.068 74.1403C570.833 73.9097 570.593 74.408 570.397 74.5285C570.439 74.6095 570.549 74.6292 570.646 74.6559C570.58 74.769 570.397 74.7566 570.265 74.8011C570.273 74.8993 570.533 74.9413 570.404 74.9635C570.252 74.9848 570.086 75.0657 569.945 75.004C569.838 75.0292 570.086 75.1541 569.983 75.1694C569.655 75.2336 569.066 75.0391 569.084 75.2351C569.123 75.5349 569.482 75.3556 569.682 75.3166C570.166 75.2238 570.968 75.0124 571.161 75.7235C570.851 75.4633 570.981 75.9769 570.804 76.1072C570.712 76.166 570.804 75.9531 570.745 75.9309C570.491 75.8499 570.504 76.127 570.345 76.1813C570.21 75.4662 569.575 76.1719 569.254 76.3018C569.237 76.2208 569.236 76.2178 569.227 76.1102C569.068 76.1591 568.973 76.3018 568.847 76.3803C568.781 76.3186 568.801 76.1981 568.771 76.1102C568.6 76.201 568.456 76.3186 568.279 76.4025C568.245 76.3354 568.269 76.2475 568.207 76.1423C567.966 75.9744 567.437 76.0751 567.044 76.0539C567.06 76.2544 567.495 76.166 567.696 76.2233C567.92 76.2964 568.21 76.5398 568.114 76.9038C567.987 77.3601 566.659 77.3823 567.354 77.804C567.509 77.8094 567.751 77.608 568.183 77.7057C568.315 77.7339 568.156 77.7897 568.125 77.843C568.198 77.9833 568.407 77.9857 568.493 78.1186C568.422 78.1581 568.217 78.1018 568.232 78.281C567.752 78.2519 566.739 78.2786 566.729 78.2657C566.674 78.1704 566.608 78.043 566.552 77.9146C566.448 77.8978 566.21 77.9818 566.127 77.9522C565.993 77.9146 566.356 77.6623 566.379 77.5591C566.348 77.4776 566.203 77.4973 566.101 77.4875C566.225 77.2662 566.711 77.1541 566.663 77.0015C566.608 76.7808 566.301 76.7734 566.085 76.6964C566.192 77.2228 565.264 77.1976 565.056 77.601C565.047 77.5028 565.012 77.4233 564.97 77.363C564.857 77.4415 564.698 77.5141 564.639 77.6445C564.581 77.605 564.646 77.4583 564.514 77.4583C564.242 77.4608 563.959 77.7057 564 77.7729C564.103 77.9146 564.328 77.647 564.432 77.6736C564.514 77.6988 564.519 77.7605 564.61 77.7803C564.704 77.804 564.801 77.7773 564.863 77.8223C564.857 77.8613 564.798 77.8978 564.753 77.9033C564.795 78.0544 565.012 77.9917 565.08 78.1186C564.973 78.1186 564.887 78.1847 564.808 78.281C564.519 78.2687 563.302 78.3008 563.25 78.2628C563.164 78.207 563.127 78.1536 563.109 78.084C563.036 77.846 563.305 77.8139 563.398 77.643C563.341 77.566 563.17 77.5591 563.054 77.5364C563.174 77.3601 563.519 77.3502 563.706 77.2272C563.638 77.1655 563.562 77.122 563.424 77.1289C563.596 76.8238 563.993 76.9235 564.256 76.7512C564.559 76.5527 564.521 76.204 564.688 75.847C563.976 76.0445 563.396 76.4025 562.543 76.4025C561.588 76.4025 560.928 75.889 560.819 75.1527C560.646 73.9265 561.62 73.2421 562.576 72.8445C562.124 72.3823 561.652 72.0045 561.736 71.2623C561.918 69.6164 565.444 69.5211 565.43 71.3255C565.426 72.1907 564.576 72.5265 563.927 72.8751C564.035 72.9591 564.22 73.0865 564.269 73.1062C564.324 73.1314 564.469 73.0821 564.59 73.0988C565.126 73.1581 565.329 73.5734 565.707 73.8341ZM564.342 71.363C564.428 70.7265 563.938 70.4421 563.385 70.5374C562.453 70.7028 562.732 72.0549 563.354 72.4119C563.776 72.2267 564.272 71.8643 564.342 71.363ZM568.977 72.0998C568.756 72.0998 568.527 72.0939 568.491 72.2663C568.642 72.2648 568.691 72.3542 568.868 72.3304C568.79 72.2006 568.897 72.164 568.977 72.0998ZM569.648 72.4411C569.558 72.4243 569.53 72.2648 569.439 72.3403C569.42 72.4455 569.589 72.5265 569.648 72.4411Z" fill="white"/>
<g opacity="0.6">
<path d="M550.311 71.2718L549.579 71.9143L549.512 71.8363C549.312 71.6151 549.098 71.3923 548.826 71.2526C548.59 71.136 548.318 71.1025 548.058 71.1025C547.588 71.0941 547.104 71.2862 546.833 71.6639C546.481 72.1553 546.408 72.7726 546.406 73.3523C546.408 73.9232 546.479 74.5252 546.818 75.0096C547.067 75.3676 547.523 75.5597 547.978 75.5528C548.241 75.5538 548.504 75.5034 548.743 75.3874C549.029 75.2447 549.271 75.0318 549.496 74.8106L549.574 74.7336L550.247 75.414L550.19 75.4857C549.91 75.8145 549.574 76.1069 549.168 76.2891C548.764 76.4738 548.314 76.5365 547.865 76.5365C547.122 76.5494 546.341 76.2792 545.885 75.7024C545.346 75.0289 545.212 74.1568 545.209 73.3365C545.212 72.5123 545.378 71.6373 545.944 70.9894C546.452 70.4027 547.274 70.1326 548.058 70.1449C548.48 70.1449 548.912 70.1983 549.291 70.3775C549.684 70.5691 549.996 70.8743 550.258 71.2032L550.311 71.2718Z" fill="white"/>
<path d="M552.153 71.0853H551.014V70.0078H552.153V71.0853Z" fill="white"/>
<path d="M556.044 76.004C555.684 76.3038 555.218 76.5038 554.735 76.4855C554.392 76.4855 554.027 76.4129 553.785 76.1763C553.529 75.9354 553.464 75.5828 553.464 75.2578V72.488H552.828V71.6351H553.474L553.525 70.4569L554.579 70.2539L554.565 71.6351H555.885V72.488H554.561V74.9319C554.561 75.0717 554.565 75.2149 554.597 75.3447C554.637 75.4949 554.793 75.5966 554.96 75.5941C555.221 75.5941 555.437 75.4302 555.647 75.3028L555.744 75.2356L556.103 75.9581L556.044 76.004Z" fill="white"/>
<path d="M560.782 71.6367L559.119 75.7088C559.08 75.8169 559.032 75.9261 558.989 76.0283C558.932 76.1641 558.873 76.3009 558.817 76.4342C558.683 76.7503 558.551 77.0555 558.405 77.3651L557.967 78.2831H556.776L556.831 78.1725C556.855 78.128 556.883 78.0816 556.91 78.0357C557.015 77.8352 557.121 77.6367 557.219 77.4337C557.332 77.1972 557.449 76.9592 557.571 76.7241C557.657 76.5419 557.743 76.3602 557.819 76.171L557.822 76.1651L556.01 71.6367H557.211L558.247 74.4421C558.254 74.4757 558.267 74.5078 558.282 74.5429C558.3 74.5947 558.32 74.6535 558.337 74.7068C558.358 74.7656 558.373 74.8199 558.395 74.8762L558.397 74.8649C558.444 74.7221 558.489 74.5794 558.554 74.4421L559.625 71.6367H560.782Z" fill="white"/>
<path d="M555.788 85.2108H554.692L554.682 85.1209C554.668 84.9308 554.662 84.7387 554.658 84.5471V84.5219C554.251 84.9895 553.677 85.3451 553.018 85.3224C552.62 85.3283 552.205 85.2108 551.932 84.9278C551.637 84.6325 551.54 84.2182 551.543 83.8246V80.4414H552.648V83.6231C552.651 83.8221 552.672 84.036 552.803 84.2053C552.896 84.3327 553.063 84.3876 553.221 84.3821C553.308 84.3821 553.397 84.3723 553.477 84.3456C553.992 84.1619 554.309 83.6947 554.607 83.2819V80.4414H555.721L555.712 84.2221C555.716 84.5204 555.736 84.8103 555.775 85.1002L555.788 85.2108Z" fill="white"/>
<path d="M557.822 79.8964H556.672V78.8633H557.822V79.8964Z" fill="white"/>
<path d="M559.895 85.2144H558.807V78.8633H559.895V85.2144Z" fill="white"/>
<path d="M565.506 85.2144H564.39L564.372 85.1274C564.344 84.9191 564.325 84.7102 564.317 84.5018C564.133 84.7131 563.926 84.9062 563.666 85.0489C563.356 85.2237 562.988 85.2954 562.628 85.2924C562.119 85.2998 561.602 85.1205 561.274 84.7665C560.888 84.3591 560.738 83.8144 560.683 83.2909C560.669 83.1452 560.666 82.9981 560.666 82.8514C560.666 82.206 560.79 81.5201 561.246 80.9951C561.626 80.5403 562.272 80.3062 562.9 80.3146C563.218 80.3146 563.551 80.365 563.837 80.4954C564.002 80.5724 564.151 80.6761 564.278 80.7936C564.273 80.7097 564.271 80.6257 564.271 80.5403V78.8633H565.43V84.2583C565.43 84.2973 565.433 84.3393 565.433 84.3758C565.435 84.44 565.44 84.5087 565.443 84.5744C565.451 84.7423 565.467 84.9092 565.495 85.0786L565.506 85.2144ZM563.108 84.3422C563.666 84.1477 564.01 83.6686 564.286 83.2193C564.304 83.0988 564.312 82.9758 564.31 82.8514C564.31 82.5852 564.289 82.3151 564.206 82.0578C564.072 81.5941 563.612 81.1812 563.053 81.1812C562.717 81.1743 562.376 81.3309 562.199 81.5916C561.941 81.9556 561.888 82.4049 561.884 82.8286C561.892 83.2346 561.906 83.6588 562.126 84.0227C562.254 84.2509 562.53 84.3951 562.814 84.3857C562.915 84.3857 563.01 84.3714 563.108 84.3422Z" fill="white"/>
<path d="M570.018 80.7527L569.661 81.6263L569.555 81.5705C569.197 81.3547 568.778 81.1868 568.345 81.1996C568.123 81.2021 567.895 81.2356 567.712 81.3645C567.571 81.4697 567.504 81.6445 567.507 81.8055C567.501 81.9413 567.566 82.0885 567.701 82.1527C567.78 82.1917 567.868 82.2213 567.963 82.2258H567.973L567.977 82.2282C568.103 82.2549 568.23 82.2633 568.358 82.2746C568.793 82.329 569.252 82.4272 569.588 82.7097C569.881 82.9546 569.992 83.3413 569.988 83.7038C569.995 84.1433 569.822 84.604 569.459 84.8949C569.066 85.2139 568.538 85.3206 568.03 85.3206C567.415 85.3304 566.803 85.165 566.279 84.8583L566.201 84.8124L566.599 83.9695L566.699 84.0341C567.089 84.2692 567.532 84.4608 568.002 84.4554C568.226 84.4554 568.468 84.4119 568.648 84.2761C568.793 84.1714 568.872 83.9961 568.869 83.8228C568.872 83.6741 568.835 83.5176 568.716 83.4169C568.554 83.2924 568.34 83.2544 568.139 83.2307C567.936 83.208 567.735 83.1858 567.532 83.1566C567.335 83.124 567.146 83.0485 566.982 82.9537C566.585 82.7334 566.403 82.287 566.412 81.8702C566.403 81.4401 566.582 80.9981 566.931 80.7206C567.311 80.4139 567.826 80.3008 568.319 80.3008C568.885 80.2979 569.459 80.4337 569.94 80.7107L570.018 80.7527Z" fill="white"/>
<path d="M552.123 76.409H551.043V71.6367H552.123V76.409Z" fill="white"/>
<path d="M557.785 85.2108H556.707V80.4414H557.785V85.2108Z" fill="white"/>
<path d="M550.533 80.0479L549.781 80.6987L549.712 80.6271C549.483 80.395 549.245 80.1639 548.945 80.0252C548.685 79.9037 548.393 79.8755 548.106 79.8755C547.595 79.8686 547.056 80.041 546.735 80.4385C546.353 80.9047 546.267 81.522 546.261 82.1012C546.267 82.7032 546.343 83.3516 546.735 83.8469C547.053 84.2528 547.605 84.4222 548.127 84.4123C548.331 84.4123 548.537 84.4069 548.735 84.358C548.927 84.3116 549.11 84.2237 549.284 84.1338V82.2834H550.436V84.7037L550.381 84.7343C549.657 85.1027 548.852 85.3446 548.023 85.3249C547.201 85.3377 546.331 85.0874 545.781 84.4854C545.18 83.8429 545 82.955 545 82.118C544.997 81.2839 545.204 80.402 545.808 79.7679C546.368 79.1743 547.236 78.9141 548.064 78.918C548.528 78.918 549.005 78.9797 549.428 79.1689C549.844 79.3452 550.189 79.6405 550.472 79.9748L550.533 80.0479Z" fill="white"/>
</g>
<circle opacity="0.4" cx="557.5" cy="77.5" r="17.5" fill="#36BA6B"/>
<circle opacity="0.4" cx="512.5" cy="270.5" r="17.5" fill="#EAA360"/>
<path opacity="0.3" d="M512.5 259C509.823 259 506.934 259.887 505.539 261.464L506.617 262.833H518.382L519.46 261.464C518.066 259.887 515.177 259 512.5 259H512.5ZM507.885 263.929C508.08 264.246 508.393 264.558 508.944 264.836C509.815 265.274 511.086 265.571 512.5 265.571C513.913 265.571 515.184 265.274 516.056 264.836C516.607 264.558 516.919 264.246 517.115 263.929H507.885ZM507.128 264.913C507.536 269.627 509.78 273.238 512.5 273.238C515.22 273.238 517.464 269.627 517.871 264.913C517.545 265.255 517.123 265.552 516.642 265.794C515.542 266.347 514.095 266.667 512.5 266.667C510.905 266.667 509.458 266.347 508.358 265.794C507.876 265.552 507.455 265.255 507.128 264.913ZM508.377 272.074L504.026 273.786C502.527 274.464 501 276.376 501 277.893V282H508.755L510.731 273.965C509.819 273.576 509.028 272.904 508.376 272.074L508.377 272.074ZM516.623 272.074C515.972 272.905 515.181 273.576 514.269 273.965L516.188 282H524V277.893C524 276.376 522.511 274.391 520.974 273.786L516.623 272.074ZM511.885 274.291L509.985 282H514.94L513.105 274.291C512.907 274.318 512.706 274.333 512.5 274.333C512.291 274.333 512.086 274.319 511.885 274.291Z" fill="white"/>
</svg>
